<svg xmlns="http://www.w3.org/2000/svg" width="42" height="40" fill="none"><g fill-rule="evenodd" clip-rule="evenodd"><path d="m10.186 37.803 11.082 1.848c.83.138 1.68.084 2.486-.158l15.596-4.678a5.217 5.217 0 0 0 3.516-6.43 5.212 5.212 0 0 0-6.304-3.618l-8.22 2.104a1.5 1.5 0 1 0 .744 2.906l8.22-2.104a2.213 2.213 0 0 1 2.676 1.534 2.217 2.217 0 0 1-1.494 2.734l-15.596 4.68c-.368.11-.754.134-1.13.07l-11.084-1.846a1.5 1.5 0 1 0-.492 2.958Z"/><path d="M10.786 23.724s4.278-1.038 6.576-1.598c.576-.14 1.18-.07 1.708.194l7.018 3.508a2.122 2.122 0 0 1 .818 3.078l-.002.004a2.011 2.011 0 0 1-2.574.684l-5.228-2.612a1.5 1.5 0 0 0-1.342 2.682l5.228 2.614c2.26 1.13 5.01.4 6.412-1.704l.002-.004a5.114 5.114 0 0 0 .688-4.156 5.12 5.12 0 0 0-2.66-3.268l-7.018-3.51a5.49 5.49 0 0 0-3.758-.424l-6.576 1.596a1.5 1.5 0 1 0 .708 2.916Z"/><path d="M11.932 20.322a1.5 1.5 0 0 0-1.5-1.5h-8a1.5 1.5 0 0 0-1.5 1.5v18c0 .83.672 1.5 1.5 1.5h8a1.5 1.5 0 0 0 1.5-1.5v-18Zm-3 1.502v15l-5-.002v-15l5 .002Zm22.5-20.514a6.84 6.84 0 0 0-8.604.868 6.836 6.836 0 0 0-.03 9.632l7.574 7.574a1.5 1.5 0 0 0 2.12 0l7.574-7.574a6.834 6.834 0 0 0-8.634-10.5Zm-1.06 2.988a3.836 3.836 0 0 0-5.422 0 3.836 3.836 0 0 0-.02 5.402l6.502 6.502 6.5-6.502a3.834 3.834 0 0 0-5.44-5.402 1.488 1.488 0 0 1-1.414.398l-.02-.006-.072-.02-.07-.024-.048-.018-.02-.008-.048-.022-.066-.032-.064-.036-.02-.012a1.51 1.51 0 0 1-.278-.22Z"/></g></svg>
