<svg xmlns="http://www.w3.org/2000/svg" width="25" height="24" fill="none"><g fill-rule="evenodd" clip-rule="evenodd"><path fill="#3764B9" d="M12.5 24h-6a6 6 0 0 1-6-6V6a6 6 0 0 1 6-6h12a6 6 0 0 1 6 6v12a6 6 0 0 1-6 6h-2.25a1.875 1.875 0 1 0-3.75 0Z"/><path fill="#507DD2" d="M11.75 6.75h6.75a3.375 3.375 0 0 0 .345-6.733C18.73.011 18.617 0 18.5 0h-12a6 6 0 0 0-6 6v12A11.25 11.25 0 0 1 11.75 6.75Z"/><path fill="#1E4BA0" d="M18.5 12a6 6 0 1 0 6 6V6a6 6 0 0 1-6 6Z"/><path fill="#fff" d="M20 6.75a.75.75 0 0 1-.75.75H17a.75.75 0 0 0-.75.75v3h2.835a.75.75 0 0 1 .735.897l-.45 2.25a.75.75 0 0 1-.735.603H16.25v9H12.5v-9h-2.25a.75.75 0 0 1-.75-.75V12a.75.75 0 0 1 .75-.75h2.25v-3a4.5 4.5 0 0 1 4.5-4.5h2.25a.75.75 0 0 1 .75.75v2.25Z"/></g></svg>
