<svg xmlns="http://www.w3.org/2000/svg" width="25" height="24" fill="none"><path fill="#D01E50" fill-rule="evenodd" d="M20 3.25a3.251 3.251 0 0 1 0 6.5 3.251 3.251 0 0 1 0-6.5Zm0 1.5a1.75 1.75 0 1 0 .001 3.501A1.75 1.75 0 0 0 20 4.75Z" clip-rule="evenodd"/><path fill="#D01E50" fill-rule="evenodd" d="M15.5 5.75a.75.75 0 0 1 0 1.5H4a.747.747 0 0 0-.53.22.747.747 0 0 0-.22.53v10.5c0 .199.079.39.22.53.14.141.331.22.53.22h17c.199 0 .39-.079.53-.22a.747.747 0 0 0 .22-.53v-8a.75.75 0 0 1 1.5 0v8A2.25 2.25 0 0 1 21 20.75H4a2.25 2.25 0 0 1-2.25-2.25V8A2.25 2.25 0 0 1 4 5.75h11.5Z" clip-rule="evenodd"/><path fill="#D01E50" fill-rule="evenodd" d="M17.05 9.65a.75.75 0 0 1 .9 1.2l-4.4 3.3a1.749 1.749 0 0 1-2.1 0l-8.9-6.675a.75.75 0 0 1 .9-1.2l8.9 6.675a.249.249 0 0 0 .3 0l4.4-3.3Z" clip-rule="evenodd"/><path fill="#D01E50" fill-rule="evenodd" d="M22.599 19.007a.751.751 0 0 1-1.131.986l-6.534-7.5a.752.752 0 0 1 .073-1.06.752.752 0 0 1 1.059.074l6.533 7.5ZM3.53 19.993a.751.751 0 0 1-1.13-.986l6.532-7.5a.752.752 0 0 1 1.06-.073.752.752 0 0 1 .072 1.059l-6.534 7.5Z" clip-rule="evenodd"/></svg>
