<svg xmlns="http://www.w3.org/2000/svg" width="94" height="16" fill="none"><path fill="#565656" d="M52.773 3.328c-.65 0-1.01.359-1.01 1.01 0 .591.396.975 1.01.975.613 0 1.011-.382 1.011-.975-.002-.651-.36-1.01-1.01-1.01Zm0 3.104c-.504 0-.899.38-.899.867v7.325c0 .486.395.867.9.867.503 0 .898-.38.898-.867V7.3c-.002-.486-.395-.867-.899-.867ZM58.459 6.34c-1.95 0-3.162.947-3.162 2.472 0 1.858 1.713 2.417 3.09 2.866 1.139.371 1.831.64 1.831 1.213 0 .863-1.055.992-1.683.992-.91 0-1.6-.253-2.164-.8a.886.886 0 0 0-.623-.264c-.464 0-.842.365-.842.813 0 .228.089.379.186.51l.004.004.005.005c.573.701 1.856 1.409 3.434 1.409.986 0 1.825-.217 2.428-.628.687-.469 1.05-1.175 1.05-2.043 0-1.8-1.69-2.363-3.047-2.814-1.165-.387-1.872-.666-1.872-1.263 0-.656.744-.793 1.367-.793.913 0 1.392.269 1.83.675.17.163.371.245.603.245.464 0 .842-.364.842-.812 0-.271-.139-.45-.19-.516-.646-.82-1.74-1.27-3.087-1.27ZM66.391 6.34c-1.95 0-3.162.947-3.162 2.472 0 1.858 1.713 2.417 3.09 2.866 1.14.371 1.831.64 1.831 1.213 0 .863-1.055.992-1.683.992-.91 0-1.599-.253-2.164-.8a.886.886 0 0 0-.623-.264c-.464 0-.842.365-.842.813 0 .228.09.379.187.51l.003.004.005.005c.573.701 1.856 1.409 3.434 1.409.986 0 1.825-.217 2.428-.628.687-.469 1.05-1.175 1.05-2.043 0-1.8-1.689-2.363-3.047-2.814-1.164-.387-1.871-.666-1.871-1.263 0-.656.743-.793 1.366-.793.913 0 1.392.269 1.83.675.17.163.372.245.603.245.464 0 .842-.364.842-.812 0-.271-.139-.45-.19-.516-.647-.82-1.742-1.27-3.087-1.27ZM74.789 6.323c-2.027 0-2.974.977-3.358 1.56l-.002.003-.002.003a.83.83 0 0 0-.135.456c0 .448.378.813.842.813.271 0 .476-.1.709-.348l.002-.001.001-.002c.55-.6 1.079-.822 1.946-.822 1.194 0 1.908.634 1.908 1.695v.2h-2.339c-2.204 0-3.573 1.084-3.573 2.832 0 .896.34 1.635.986 2.137.615.478 1.495.731 2.55.731.952 0 1.805-.29 2.39-.789a.873.873 0 0 0 .867.698c.483 0 .878-.38.878-.847V9.68c-.003-2.071-1.409-3.357-3.67-3.357Zm-.355 7.632c-1.216 0-1.834-.419-1.834-1.244 0-1.03.957-1.245 1.758-1.245h2.339v.469c0 1.395-1.137 2.02-2.263 2.02ZM84.011 2.407c-1.143 0-2.076.36-2.7 1.04-.548.6-.837 1.412-.837 2.352v.776h-.337c-.482 0-.86.365-.86.83 0 .466.378.83.86.83h.337v6.388c0 .486.395.867.899.867s.899-.381.899-.867V8.235h1.402c.482 0 .86-.364.86-.83 0-.465-.378-.83-.86-.83h-1.402V5.8c0-1.148.584-1.732 1.739-1.732.482 0 .86-.364.86-.83 0-.465-.378-.83-.86-.83ZM86.293 3.328c-.651 0-1.011.359-1.011 1.01 0 .591.396.975 1.01.975s1.012-.382 1.012-.975c0-.651-.359-1.01-1.011-1.01Zm0 3.104c-.504 0-.899.38-.899.867v7.325c0 .486.395.867.899.867.503 0 .898-.38.898-.867V7.3c0-.486-.395-.867-.898-.867ZM93.121 6.358c-.928 0-1.746.305-2.307.83-.055-.433-.427-.756-.892-.756-.504 0-.9.38-.9.866v7.326c0 .486.396.867.9.867.503 0 .898-.38.898-.867v-4.043c0-1.606.84-2.526 2.301-2.526.484 0 .879-.38.879-.847 0-.467-.395-.85-.879-.85ZM49.491 7.448c-.644-.747-1.68-1.125-3.077-1.125-1.191 0-2.108.359-2.73 1.066-.62-.682-1.724-1.066-3.02-1.066v-.005c-1.398 0-2.42.38-3.065 1.125-.502.582-.756 1.375-.756 2.357v4.818c0 .486.395.866.898.866.504 0 .899-.38.899-.866v-4.582c0-1.5.577-2.112 2.025-2.112v.005c1.44 0 1.916.593 1.916 2.111v4.583c0 .485.395.866.899.866s.899-.38.899-.867V9.805c0-.605.161-1.069.479-1.38.337-.33.862-.495 1.559-.495 1.448 0 2.038.612 2.038 2.111v4.583c0 .485.395.866.899.866s.898-.38.898-.867V9.805c-.005-.981-.259-1.774-.761-2.356Z"/><path fill="#BE3253" d="M33.68 12.939c0-.579-.199-1.11-.539-1.536l-.017-.02L24.21 1.08l-.013-.013a2.636 2.636 0 0 0-2.025-.932c-.83 0-1.57.376-2.048.96l.011-.015-3.293 3.81-3.3-3.81-.01-.013a2.636 2.636 0 0 0-2.024-.932c-.831 0-1.571.376-2.049.96l.014-.015L.557 11.384l-.01.013c-.342.427-.547.96-.547 1.542 0 1.392 1.171 2.522 2.615 2.522l-.022.002H31.07l-.005-.002c1.445-.002 2.614-1.13 2.614-2.522Zm-24.402.443H2.602h.011-.021.01a.452.452 0 0 1-.45-.443c0-.086.027-.167.07-.236l-.007.008L11.17 2.344l.001-.002a.471.471 0 0 1 .678.013l.003.005 3.586 4.148-5.804 6.708.016-.017a.464.464 0 0 1-.372.183Zm11.119 0h-7.113.002a.462.462 0 0 1-.468-.448c0-.092.03-.177.08-.248l3.586-4.145a.466.466 0 0 1 .357-.159c.138 0 .264.058.348.152l3.608 4.182c.06.078.06.162.06.215 0 .245-.207.45-.46.45Zm10.67 0h-6.67a.461.461 0 0 1-.334-.144l.004.007-.011-.013c.002.002.003.005.006.006l-5.819-6.731 3.593-4.157.006-.008a.467.467 0 0 1 .676.013l.008.01 8.937 10.35.006.009c.051.07.058.137.058.216a.453.453 0 0 1-.46.442Z"/></svg>
