<svg xmlns="http://www.w3.org/2000/svg" width="122" height="22" fill="none"><g clip-path="url(#a)"><path fill="#565656" d="M68.295 5.6c-.843 0-1.309.464-1.309 1.307 0 .765.513 1.262 1.309 1.262.793 0 1.308-.495 1.308-1.262-.002-.843-.466-1.307-1.308-1.307Zm0 4.016c-.652 0-1.163.493-1.163 1.122v9.48c0 .63.51 1.122 1.163 1.122.652 0 1.162-.493 1.162-1.122v-9.48c-.002-.63-.51-1.122-1.162-1.122ZM75.652 9.498c-2.522 0-4.091 1.225-4.091 3.198 0 2.404 2.217 3.128 3.997 3.71 1.475.48 2.371.826 2.371 1.568 0 1.118-1.366 1.285-2.178 1.285-1.178 0-2.07-.328-2.8-1.035a1.146 1.146 0 0 0-.807-.342c-.6 0-1.09.472-1.09 1.051 0 .295.116.49.242.66l.004.006.007.006c.741.908 2.402 1.823 4.444 1.823 1.276 0 2.362-.28 3.142-.812.89-.607 1.36-1.52 1.36-2.644 0-2.33-2.187-3.057-3.944-3.64-1.507-.502-2.422-.863-2.422-1.636 0-.85.962-1.027 1.767-1.027 1.183 0 1.803.349 2.369.874.22.21.481.318.78.318.601 0 1.09-.472 1.09-1.052 0-.35-.179-.581-.245-.668-.836-1.06-2.253-1.643-3.996-1.643ZM85.918 9.498c-2.523 0-4.092 1.225-4.092 3.198 0 2.404 2.217 3.128 3.997 3.71 1.475.48 2.371.826 2.371 1.568 0 1.118-1.366 1.285-2.178 1.285-1.178 0-2.07-.328-2.8-1.035a1.146 1.146 0 0 0-.806-.342c-.601 0-1.09.472-1.09 1.051 0 .295.115.49.24.66l.005.006.007.006c.741.908 2.402 1.823 4.444 1.823 1.276 0 2.362-.28 3.142-.812.89-.607 1.36-1.52 1.36-2.644 0-2.33-2.187-3.057-3.944-3.64-1.507-.502-2.422-.863-2.422-1.636 0-.85.962-1.027 1.768-1.027 1.182 0 1.802.349 2.368.874.22.21.481.318.78.318.601 0 1.09-.472 1.09-1.052 0-.35-.179-.581-.245-.668-.838-1.06-2.255-1.643-3.995-1.643ZM96.786 9.477c-2.623 0-3.848 1.264-4.346 2.018l-.002.004-.002.004a1.073 1.073 0 0 0-.176.59c0 .58.49 1.052 1.09 1.052.351 0 .616-.13.918-.45l.002-.002.002-.002c.712-.777 1.396-1.064 2.518-1.064 1.546 0 2.47.82 2.47 2.194v.258h-3.028c-2.852 0-4.624 1.404-4.624 3.666 0 1.159.44 2.115 1.277 2.765.795.618 1.934.946 3.3.946 1.231 0 2.334-.375 3.093-1.02a1.13 1.13 0 0 0 1.121.903c.626 0 1.137-.493 1.137-1.097V13.82c-.004-2.68-1.824-4.344-4.75-4.344Zm-.46 9.876c-1.573 0-2.373-.542-2.373-1.61 0-1.332 1.238-1.61 2.275-1.61h3.027v.605c0 1.807-1.47 2.615-2.929 2.615ZM108.72 4.408c-1.479 0-2.687.466-3.493 1.347-.709.775-1.083 1.826-1.083 3.043v1.004h-.437c-.624 0-1.113.472-1.113 1.074 0 .602.489 1.075 1.113 1.075h.437v8.266c0 .629.51 1.121 1.162 1.121.652 0 1.163-.492 1.163-1.121V11.95h1.815c.624 0 1.114-.473 1.114-1.075s-.49-1.074-1.114-1.074h-1.815V8.798c0-1.487.757-2.241 2.251-2.241.625 0 1.114-.472 1.114-1.075 0-.602-.489-1.074-1.114-1.074ZM111.673 5.6c-.843 0-1.309.464-1.309 1.307 0 .765.513 1.262 1.309 1.262.793 0 1.308-.495 1.308-1.262 0-.843-.464-1.307-1.308-1.307Zm0 4.016c-.652 0-1.163.493-1.163 1.122v9.48c0 .63.511 1.122 1.163 1.122s1.162-.493 1.162-1.122v-9.48c0-.63-.51-1.122-1.162-1.122ZM120.51 9.521c-1.202 0-2.26.394-2.987 1.075-.07-.561-.551-.98-1.154-.98-.652 0-1.163.493-1.163 1.122v9.48c0 .63.511 1.122 1.163 1.122s1.163-.493 1.163-1.122v-5.232c0-2.079 1.086-3.269 2.978-3.269.626 0 1.137-.492 1.137-1.097 0-.604-.511-1.099-1.137-1.099ZM64.047 10.933c-.834-.967-2.174-1.456-3.982-1.456-1.542 0-2.728.464-3.534 1.38-.802-.883-2.23-1.38-3.908-1.38V9.47c-1.808 0-3.131.49-3.965 1.455-.65.753-.98 1.78-.98 3.05v6.235c0 .629.512 1.122 1.164 1.122.652 0 1.163-.493 1.163-1.122v-5.93c0-1.94.746-2.732 2.62-2.732v.006c1.864 0 2.48.767 2.48 2.732v5.93c0 .63.51 1.122 1.163 1.122.652 0 1.163-.493 1.163-1.122v-6.235c0-.783.21-1.383.62-1.785.436-.427 1.116-.642 2.018-.642 1.874 0 2.638.792 2.638 2.732v5.93c0 .63.51 1.122 1.163 1.122.652 0 1.162-.493 1.162-1.122v-6.235c-.006-1.27-.335-2.297-.985-3.05Z"/><path fill="#BE3253" d="M43.585 18.038c0-.748-.256-1.437-.697-1.988l-.021-.024L31.33 2.689l-.017-.016a3.412 3.412 0 0 0-2.621-1.206 3.413 3.413 0 0 0-2.65 1.243l.014-.02-4.262 4.932-4.27-4.933-.012-.016a3.412 3.412 0 0 0-2.62-1.206A3.413 3.413 0 0 0 12.24 2.71l.018-.02L.72 16.025l-.012.016A3.18 3.18 0 0 0 0 18.038c0 1.802 1.516 3.264 3.384 3.264l-.028.002h36.852l-.007-.002c1.87-.002 3.384-1.462 3.384-3.264Zm-31.578.573H3.367h.015-.028.013a.585.585 0 0 1-.582-.573c0-.111.035-.216.09-.305l-.008.01L14.455 4.327l.002-.002a.61.61 0 0 1 .877.016l.004.006 4.64 5.37-7.511 8.68.021-.023a.6.6 0 0 1-.48.237Zm14.39 0H17.19h.002c-.329 0-.605-.262-.605-.58 0-.119.039-.228.103-.32l4.64-5.364a.603.603 0 0 1 .463-.206c.18 0 .342.074.45.196l4.67 5.413c.076.1.076.21.076.278a.593.593 0 0 1-.594.583Zm13.806 0h-8.63a.598.598 0 0 1-.433-.185l.006.008-.015-.017c.002.003.004.007.009.009l-7.531-8.712 4.649-5.38.009-.01a.604.604 0 0 1 .874.017l.01.012L40.718 17.75l.008.01a.43.43 0 0 1 .075.28.587.587 0 0 1-.597.571Z"/></g><defs><clipPath id="a"><path fill="#fff" d="M0 0h121.647v22H0z"/></clipPath></defs></svg>
