<svg xmlns="http://www.w3.org/2000/svg" width="25" height="24" fill="none"><path fill="#D01E50" fill-rule="evenodd" d="M12.5 1.25A7.754 7.754 0 0 0 4.75 9c0 2.528 1.158 5.232 2.573 7.558 2.065 3.392 4.647 5.972 4.647 5.972a.749.749 0 0 0 1.06 0s2.582-2.58 4.647-5.972c1.415-2.326 2.573-5.03 2.573-7.558a7.754 7.754 0 0 0-7.75-7.75Zm0 1.5A6.254 6.254 0 0 1 18.75 9c0 2.272-1.082 4.688-2.355 6.778-1.407 2.311-3.065 4.228-3.895 5.132-.83-.904-2.488-2.821-3.895-5.132C7.332 13.688 6.25 11.272 6.25 9a6.254 6.254 0 0 1 6.25-6.25Z" clip-rule="evenodd"/><path fill="#D01E50" fill-rule="evenodd" d="M16.25 10.5V7.533a1.75 1.75 0 0 0-.779-1.456l-2-1.333a1.75 1.75 0 0 0-1.942 0l-2 1.333a1.75 1.75 0 0 0-.779 1.456V10.5c0 .464.184.91.513 1.237.328.33.773.513 1.237.513h4c.464 0 .909-.184 1.237-.513.329-.328.513-.773.513-1.237Zm-1.5-2.966V10.5a.25.25 0 0 1-.25.25h-4a.25.25 0 0 1-.25-.25V7.534c0-.083.042-.16.111-.208l2-1.333a.251.251 0 0 1 .278 0l2 1.333a.253.253 0 0 1 .111.208Z" clip-rule="evenodd"/></svg>
