<svg width="44" height="44" fill="none" xmlns="http://www.w3.org/2000/svg"><g filter="url(#a)"><rect x="10" y="8" width="24" height="24" rx="12" fill="#fff"/><path d="M28.49 24.957a2.381 2.381 0 0 1-1.457 1.874c-.385.16-.8.208-1.217.16a3.14 3.14 0 0 1-1.217-.416c-.577-.32-1.154-.817-1.826-1.553 1.056-1.298 1.698-2.483 1.938-3.54a4.01 4.01 0 0 0 .08-1.362 2.608 2.608 0 0 0-.432-1.089c-.496-.72-1.33-1.136-2.258-1.136-.928 0-1.761.431-2.258 1.136a2.6 2.6 0 0 0-.432 1.09 3.32 3.32 0 0 0 .08 1.36c.24 1.058.898 2.259 1.939 3.556-.657.737-1.25 1.234-1.826 1.553-.417.24-.817.369-1.217.417a2.557 2.557 0 0 1-1.217-.16 2.38 2.38 0 0 1-1.458-1.874c-.048-.401-.015-.801.144-1.25.048-.16.128-.32.208-.512.113-.256.24-.529.369-.8l.015-.033a175.536 175.536 0 0 1 3.524-7.191l.048-.096c.128-.24.256-.497.384-.737.128-.256.273-.497.449-.705a1.675 1.675 0 0 1 1.281-.592c.497 0 .946.208 1.282.592.176.208.32.449.449.705.128.24.256.496.384.737l.048.096a211.901 211.901 0 0 1 3.507 7.207v.016c.128.256.24.544.369.8.08.193.16.352.208.512.128.417.176.817.112 1.234l-.003.001Zm-6.39-.753c-.865-1.089-1.425-2.114-1.618-2.978a2.584 2.584 0 0 1-.047-.977c.032-.256.128-.48.256-.672.303-.432.817-.705 1.41-.705.591 0 1.12.256 1.409.705.128.192.224.416.256.672a2.57 2.57 0 0 1-.048.977c-.193.848-.753 1.874-1.618 2.978Zm7.223-.832c-.08-.193-.16-.401-.24-.577-.128-.289-.257-.56-.369-.818l-.016-.015a167.755 167.755 0 0 0-3.54-7.24l-.047-.095c-.128-.24-.256-.497-.384-.753-.16-.289-.32-.593-.577-.88A2.585 2.585 0 0 0 22.116 12c-.785 0-1.522.352-2.05.96-.24.29-.416.593-.577.882-.128.256-.256.512-.384.752l-.048.096a188.335 188.335 0 0 0-3.54 7.24l-.015.032c-.113.256-.24.529-.369.817-.08.176-.16.369-.24.577a3.596 3.596 0 0 0-.193 1.729 3.403 3.403 0 0 0 2.082 2.659c.417.176.849.256 1.298.256a4.238 4.238 0 0 0 2.018-.577c.656-.368 1.28-.897 1.986-1.665.704.768 1.345 1.297 1.986 1.665a4.25 4.25 0 0 0 2.017.577c.45 0 .898-.08 1.298-.256a3.396 3.396 0 0 0 2.082-2.659c.128-.56.064-1.121-.144-1.713Z" fill="#F15C61"/><rect x="10.5" y="8.5" width="23" height="23" rx="11.5" stroke="#FAFAFA"/></g><defs><filter id="a" x="0" y="0" width="44" height="44" filterUnits="userSpaceOnUse" color-interpolation-filters="sRGB"><feFlood flood-opacity="0" result="BackgroundImageFix"/><feColorMatrix in="SourceAlpha" values="0 0 0 0 0 0 0 0 0 0 0 0 0 0 0 0 0 0 127 0" result="hardAlpha"/><feOffset dy="2"/><feGaussianBlur stdDeviation="5"/><feComposite in2="hardAlpha" operator="out"/><feColorMatrix values="0 0 0 0 0 0 0 0 0 0 0 0 0 0 0 0 0 0 0.1 0"/><feBlend in2="BackgroundImageFix" result="effect1_dropShadow_2704_132331"/><feBlend in="SourceGraphic" in2="effect1_dropShadow_2704_132331" result="shape"/></filter></defs></svg>