<svg width="22" height="22" fill="none" xmlns="http://www.w3.org/2000/svg"><g fill-rule="evenodd" clip-rule="evenodd" fill=""><path d="M3.25.25a3.001 3.001 0 0 0 0 6 3.001 3.001 0 0 0 0-6Zm0 1.5a1.5 1.5 0 1 1-.001 3.001A1.5 1.5 0 0 1 3.25 1.75ZM3.25 8a3.001 3.001 0 0 0 0 6 3.001 3.001 0 0 0 0-6Zm0 1.5a1.5 1.5 0 1 1-.001 3.001A1.5 1.5 0 0 1 3.25 9.5ZM3.25 15.75a3.001 3.001 0 0 0 0 6 3.001 3.001 0 0 0 0-6Zm0 1.5a1.5 1.5 0 1 1-.001 3.001 1.5 1.5 0 0 1 .001-3.001ZM11 .25a3.001 3.001 0 0 0 0 6 3.001 3.001 0 0 0 0-6Zm0 1.5a1.5 1.5 0 1 1-.001 3.001A1.5 1.5 0 0 1 11 1.75ZM11 8a3.001 3.001 0 0 0 0 6 3.001 3.001 0 0 0 0-6Zm0 1.5a1.5 1.5 0 1 1-.001 3.001A1.5 1.5 0 0 1 11 9.5ZM11 15.75a3.001 3.001 0 0 0 0 6 3.001 3.001 0 0 0 0-6Zm0 1.5a1.5 1.5 0 1 1-.001 3.001A1.5 1.5 0 0 1 11 17.25ZM18.75.25a3.001 3.001 0 0 0 0 6 3.001 3.001 0 0 0 0-6Zm0 1.5a1.5 1.5 0 1 1-.001 3.001 1.5 1.5 0 0 1 .001-3.001ZM18.75 8a3.001 3.001 0 0 0 0 6 3.001 3.001 0 0 0 0-6Zm0 1.5a1.5 1.5 0 1 1-.001 3.001A1.5 1.5 0 0 1 18.75 9.5ZM18.75 15.75a3.001 3.001 0 0 0 0 6 3.001 3.001 0 0 0 0-6Zm0 1.5a1.5 1.5 0 1 1-.001 3.001 1.5 1.5 0 0 1 .001-3.001Z"/></g></svg>