<svg xmlns="http://www.w3.org/2000/svg" width="44" height="44" fill="none"><g fill="#F4B616" fill-rule="evenodd" clip-rule="evenodd"><path d="m11.37 20.18 9.674-5.642a1.501 1.501 0 0 1 2.206.906l4.658 17.388c.122.45.024.932-.26 1.304-.286.37-.728.586-1.196.584l-11.2-.05-7.534 2.018a4.498 4.498 0 0 1-5.51-3.182L.654 27.71a4.498 4.498 0 0 1 3.182-5.51l7.534-2.02Zm.97 2.846-7.728 2.072a1.499 1.499 0 0 0-1.06 1.836l1.552 5.796a1.502 1.502 0 0 0 1.838 1.06l7.728-2.07c.128-.034.26-.052.394-.052l9.438.042-3.642-13.592-8.152 4.756c-.116.066-.24.118-.368.152Z"/><path d="M20.092 15.256a1.5 1.5 0 0 1 2.898-.778c1.364 5.08 3.8 14.134 5.164 19.216a1.502 1.502 0 0 1-2.898.778 53855.34 53855.34 0 0 0-5.164-19.216ZM26.858 22.37a1.502 1.502 0 0 1 .2-2.112 1.502 1.502 0 0 1 2.112.2 8.714 8.714 0 0 1 1.876 7.002 1.5 1.5 0 1 1-2.958-.5 5.71 5.71 0 0 0-1.23-4.59Z"/><path d="M29.9 18.45a1.5 1.5 0 0 1 2.312-1.912 15.93 15.93 0 0 1 3.428 12.798 1.5 1.5 0 0 1-2.958-.5c.626-3.7-.392-7.496-2.782-10.386ZM15.54 33.04l1.554 5.794a3.501 3.501 0 0 1-2.476 4.288l-.966.258a3.5 3.5 0 0 1-4.286-2.474L7.814 35.11a1.5 1.5 0 0 1 1.06-1.838l4.83-1.294a1.5 1.5 0 0 1 1.836 1.062Zm-2.51 2.224-1.93.518 1.164 4.348a.5.5 0 0 0 .612.352l.966-.258a.5.5 0 0 0 .354-.612l-1.166-4.348ZM43.5 4v4c0 1.932-1.568 3.5-3.5 3.5h-4A3.501 3.501 0 0 1 32.5 8V4c0-1.932 1.568-3.5 3.5-3.5h4c1.932 0 3.5 1.568 3.5 3.5Zm-3 0a.5.5 0 0 0-.5-.5h-4a.5.5 0 0 0-.5.5v4a.5.5 0 0 0 .5.5h4a.5.5 0 0 0 .5-.5V4ZM14.5 4v7c0 1.932-1.568 3.5-3.5 3.5H4A3.501 3.501 0 0 1 .5 11V4C.5 2.068 2.068.5 4 .5h7c1.932 0 3.5 1.568 3.5 3.5Zm-3 0a.5.5 0 0 0-.5-.5H4a.5.5 0 0 0-.5.5v7a.5.5 0 0 0 .5.5h7a.5.5 0 0 0 .5-.5V4ZM43.5 37v4c0 .664-.264 1.298-.732 1.768A2.504 2.504 0 0 1 41 43.5h-4a2.504 2.504 0 0 1-1.768-.732A2.504 2.504 0 0 1 34.5 41v-4c0-.664.264-1.298.732-1.768A2.504 2.504 0 0 1 37 34.5h4c.664 0 1.298.264 1.768.732.468.47.732 1.104.732 1.768Zm-6 .5v3h3v-3h-3Z"/></g></svg>
