<svg xmlns="http://www.w3.org/2000/svg" width="33" height="32" fill="none"><g clip-path="url(#a)"><path fill="#2D2D2D" fill-rule="evenodd" d="M24.5 32h-16a8 8 0 0 1-8-8V8a8 8 0 0 1 8-8h16a8 8 0 0 1 8 8v16a8 8 0 0 1-8 8Z" clip-rule="evenodd"/><path fill="#464646" fill-rule="evenodd" d="M15.5 9h9a4.5 4.5 0 0 0 .46-8.977C24.807.015 24.655 0 24.5 0h-16a8 8 0 0 0-8 8v16a15 15 0 0 1 15-15Z" clip-rule="evenodd"/><path fill="#141414" fill-rule="evenodd" d="M24.5 16a8 8 0 1 0 8 8V8a8 8 0 0 1-8 8Z" clip-rule="evenodd"/><path fill="#fff" d="M20.035 6.106a3.896 3.896 0 0 1-.999 2.555 3.567 3.567 0 0 1-2.482 1.4.352.352 0 0 1-.36-.351h-.004a4.003 4.003 0 0 1 1.059-2.582c.361-.406.8-.735 1.29-.969a4.214 4.214 0 0 1 1.116-.377.329.329 0 0 1 .378.324h.002Zm3.523 13.864a9.92 9.92 0 0 1-.982 1.765 8.977 8.977 0 0 1-1.264 1.529 2.455 2.455 0 0 1-1.625.716 4.077 4.077 0 0 1-1.501-.359 4.306 4.306 0 0 0-1.617-.357 4.452 4.452 0 0 0-1.662.357c-.454.205-.94.333-1.436.378a2.311 2.311 0 0 1-1.662-.735 9.4 9.4 0 0 1-1.322-1.583 10.94 10.94 0 0 1-1.4-2.778 10.173 10.173 0 0 1-.587-3.311 6.047 6.047 0 0 1 .794-3.164c.4-.694.974-1.274 1.663-1.682a4.473 4.473 0 0 1 2.249-.634 5.289 5.289 0 0 1 1.739.405c.44.194.904.33 1.379.405a8.244 8.244 0 0 0 1.53-.478 5.058 5.058 0 0 1 2.078-.369 4.784 4.784 0 0 1 2.633.946.965.965 0 0 1 .03 1.46 3.724 3.724 0 0 0-1.245 2.91 3.853 3.853 0 0 0 1.266 2.903c.177.17.369.322.572.459a.993.993 0 0 1 .365 1.211c.006.004.006.005.005.006Z"/></g><defs><clipPath id="a"><path fill="#fff" d="M.5 0h32v32H.5z"/></clipPath></defs></svg>
