<svg xmlns="http://www.w3.org/2000/svg" width="22" height="22" fill="none"><path fill="#D01E50" fill-rule="evenodd" d="M11 .25C16.933.25 21.75 5.067 21.75 11S16.933 21.75 11 21.75.25 16.933.25 11 5.067.25 11 .25Zm0 1.5c-5.105 0-9.25 4.145-9.25 9.25s4.145 9.25 9.25 9.25 9.25-4.145 9.25-9.25S16.105 1.75 11 1.75Z" clip-rule="evenodd"/><path fill="#D01E50" fill-rule="evenodd" d="M5.97 11.53a.749.749 0 1 1 1.06-1.06l2.47 2.469 5.47-5.47a.749.749 0 1 1 1.06 1.06l-6 6a.749.749 0 0 1-1.06 0l-3-3Z" clip-rule="evenodd"/></svg>
