<svg xmlns="http://www.w3.org/2000/svg" width="24" height="24" fill="none"><g clip-path="url(#a)"><path fill="#75828A" d="M21.75 13.124h-18V4.687a2.403 2.403 0 0 1 .708-1.71l.02-.02a2.423 2.423 0 0 1 2.746-.476 3.708 3.708 0 0 0 .552 4.53l.513.513-.944.945 1.06 1.06.945-.944 5.236-5.236.944-.944-1.06-1.061-.945.945-.514-.514a3.707 3.707 0 0 0-4.73-.42 3.92 3.92 0 0 0-4.864.542l-.02.019a3.893 3.893 0 0 0-1.147 2.77v8.438H.75v1.5h1.5v1.44c0 .12.02.24.058.355l1.395 4.186a1.123 1.123 0 0 0 1.067.77h.605l-.547 1.874h1.563l.546-1.875h9.755l.563 1.875h1.565l-.562-1.875h.972a1.124 1.124 0 0 0 1.067-.769l1.395-4.186c.038-.115.058-.235.058-.356v-1.439h1.5v-1.5h-1.5ZM8.837 2.836a2.204 2.204 0 0 1 3.114 0l.513.513L9.35 6.463l-.513-.513a2.204 2.204 0 0 1 0-3.114ZM20.25 16.002l-1.29 3.872H5.04l-1.29-3.872v-1.378h16.5v1.378Z"/></g><defs><clipPath id="a"><path fill="#fff" d="M0 0h24v24H0z"/></clipPath></defs></svg>
