<svg xmlns="http://www.w3.org/2000/svg" width="24" height="24" fill="none"><path fill="#5E686E" fill-rule="evenodd" d="M13.937 10.073c-1.452-1.452-3.906-1.397-5.48.177l-3.889 3.89c-1.573 1.572-1.629 4.026-.177 5.48 1.453 1.451 3.907 1.395 5.48-.178.6-.598 1.945-1.945 1.945-1.945a.749.749 0 1 0-1.06-1.06L8.81 18.381c-.965.966-2.468 1.068-3.359.177-.89-.89-.788-2.393.177-3.359l3.89-3.889c.964-.965 2.467-1.067 3.358-.176a.75.75 0 0 0 1.06-1.06Z" clip-rule="evenodd"/><path fill="#5E686E" fill-rule="evenodd" d="M10.048 13.962a3.752 3.752 0 0 0 5.304 0l4.242-4.243a3.75 3.75 0 1 0-5.303-5.303L12.17 6.538A.75.75 0 1 0 13.23 7.6l2.122-2.122a2.248 2.248 0 0 1 3.182 0 2.254 2.254 0 0 1 0 3.182l-4.243 4.242a2.25 2.25 0 0 1-3.182 0 .752.752 0 0 0-1.06 0 .752.752 0 0 0 0 1.061ZM8.28 7.21 7.22 6.15a.75.75 0 1 0-1.061 1.06L7.22 8.27a.749.749 0 1 0 1.06-1.06ZM15.705 16.757l1.061 1.06a.749.749 0 1 0 1.06-1.06l-1.06-1.06a.75.75 0 1 0-1.06 1.06ZM10.445 6.191v-1.5a.75.75 0 0 0-1.5 0v1.5a.75.75 0 0 0 1.5 0ZM17.784 15.031h1.5a.75.75 0 0 0 0-1.5h-1.5a.75.75 0 0 0 0 1.5ZM6.202 8.934h-1.5a.75.75 0 0 0 0 1.5h1.5a.75.75 0 0 0 0-1.5ZM13.541 17.773v1.5a.75.75 0 0 0 1.5 0v-1.5a.75.75 0 0 0-1.5 0Z" clip-rule="evenodd"/></svg>