<svg xmlns="http://www.w3.org/2000/svg" width="24" height="24" fill="none"><g fill="#464E53"><path fill-rule="evenodd" d="M17.5 12.25a5.252 5.252 0 0 1 5.25 5.25 5.252 5.252 0 0 1-5.25 5.25 5.252 5.252 0 0 1-5.25-5.25 5.252 5.252 0 0 1 5.25-5.25Zm0 1.5c-2.07 0-3.75 1.68-3.75 3.75 0 2.07 1.68 3.75 3.75 3.75 2.07 0 3.75-1.68 3.75-3.75 0-2.07-1.68-3.75-3.75-3.75Z" clip-rule="evenodd"/><path fill-rule="evenodd" d="M16.25 16a.75.75 0 0 1 1.5 0v1.25h.75a.75.75 0 0 1 0 1.5H17a.75.75 0 0 1-.75-.75v-2Z" clip-rule="evenodd"/><path fill-rule="evenodd" d="M22.75 12a.75.75 0 0 1-1.5 0V7A2.25 2.25 0 0 0 19 4.75H5A2.25 2.25 0 0 0 2.75 7v12A2.25 2.25 0 0 0 5 21.25h7a.75.75 0 0 1 0 1.5H5A3.75 3.75 0 0 1 1.25 19V7A3.75 3.75 0 0 1 5 3.25h14A3.75 3.75 0 0 1 22.75 7v5Z" clip-rule="evenodd"/><path fill-rule="evenodd" d="M12.75 4a.75.75 0 0 1-1.5 0V2a.75.75 0 0 1 1.5 0v2ZM18.25 4a.75.75 0 0 1-1.5 0V2a.75.75 0 0 1 1.5 0v2ZM7.25 4a.75.75 0 0 1-1.5 0V2a.75.75 0 0 1 1.5 0v2Z" clip-rule="evenodd"/><path d="M6 9.5a1 1 0 1 0 0-2 1 1 0 0 0 0 2ZM10 9.5a1 1 0 1 0 0-2 1 1 0 0 0 0 2ZM14 9.5a1 1 0 1 0 0-2 1 1 0 0 0 0 2ZM18 9.5a1 1 0 1 0 0-2 1 1 0 0 0 0 2ZM6 14a1 1 0 1 0 0-2 1 1 0 0 0 0 2ZM10 14a1 1 0 1 0 0-2 1 1 0 0 0 0 2ZM6 18.5a1 1 0 1 0 0-2 1 1 0 0 0 0 2ZM10 18.5a1 1 0 1 0 0-2 1 1 0 0 0 0 2Z"/></g></svg>