<svg width="22" height="22" fill="none" xmlns="http://www.w3.org/2000/svg"><g fill-rule="evenodd" clip-rule="evenodd" fill=""><path d="M8.03 15.03a.749.749 0 1 1-1.06-1.06l7-7a.749.749 0 1 1 1.06 1.06l-7 7Z"/><path d="M15.03 13.97a.749.749 0 1 1-1.06 1.06l-7-7a.749.749 0 1 1 1.06-1.06l7 7Z"/><path d="M11 .25C16.933.25 21.75 5.067 21.75 11S16.933 21.75 11 21.75.25 16.933.25 11 5.067.25 11 .25Zm0 1.5c-5.105 0-9.25 4.145-9.25 9.25s4.145 9.25 9.25 9.25 9.25-4.145 9.25-9.25S16.105 1.75 11 1.75Z"/></g></svg>