<svg width="20" height="20" fill="none" xmlns="http://www.w3.org/2000/svg"><path d="M5 9.166a.833.833 0 1 0 0 1.667.833.833 0 0 0 0-1.667Zm10 0a.833.833 0 1 0 0 1.666.833.833 0 0 0 0-1.666Zm1.667-5H3.334a2.5 2.5 0 0 0-2.5 2.5v6.667a2.5 2.5 0 0 0 2.5 2.5h13.333a2.5 2.5 0 0 0 2.5-2.5V6.666a2.5 2.5 0 0 0-2.5-2.5Zm.834 9.167a.833.833 0 0 1-.834.833H3.334a.833.833 0 0 1-.833-.833V6.666a.833.833 0 0 1 .833-.833h13.333a.833.833 0 0 1 .834.833v6.667ZM10 7.499a2.5 2.5 0 1 0 0 5 2.5 2.5 0 0 0 0-5Zm0 3.334a.833.833 0 1 1 0-1.667.833.833 0 0 1 0 1.667Z" fill="#4A4A4A"/></svg>