<svg xmlns="http://www.w3.org/2000/svg" width="40" height="40" fill="none"><path fill="url(#a)" fill-rule="evenodd" d="M28.75 4.999a2.917 2.917 0 0 0-3.89-2.748c-3.057.976-6.638.99-9.733.033a2.897 2.897 0 0 0-2.624.363 2.892 2.892 0 0 0-1.223 2.337c-.03 1.105-.03 2.382-.03 3.382 0 1.641.878 3.16 2.303 3.976l.014.009c4.035 2.246 8.848 2.253 12.863-.034l.005-.003a4.549 4.549 0 0 0 2.282-3.928c.033-.999.033-2.28.033-3.387ZM26.25 5c0 1.086 0 2.343-.033 3.328v.042c0 .733-.392 1.41-1.027 1.775-3.247 1.848-7.137 1.838-10.398.025a2.082 2.082 0 0 1-1.042-1.805c0-.984 0-2.24.03-3.325v-.035a.387.387 0 0 1 .517-.364l.046.017c3.585 1.118 7.742 1.105 11.315-.038l.037-.014A.419.419 0 0 1 26.25 5Z" clip-rule="evenodd"/><path fill="url(#b)" fill-rule="evenodd" d="M8.777 19.803c-.025.425-.027.865-.027 1.285a4.583 4.583 0 0 0 2.928 4.277c.042.017.085.03.13.042 4.582 1.218 11.829 1.224 16.387-.052.04-.012.08-.025.118-.04a4.531 4.531 0 0 0 2.884-4.143c.05-.422.053-.88.053-1.324a2.918 2.918 0 0 0-3.868-2.755c-4.139 1.102-10.602 1.117-14.76.034a2.891 2.891 0 0 0-3.845 2.677Zm19.973.047c0 .356.003.728-.043 1.085-.007.053-.01.107-.01.16a2.03 2.03 0 0 1-1.232 1.867c-4.18 1.151-10.74 1.145-14.935.05a2.084 2.084 0 0 1-1.28-1.922c0-.377-.002-.773.023-1.154.002-.026.004-.053.004-.081a.39.39 0 0 1 .526-.365.976.976 0 0 0 .119.037c4.531 1.2 11.636 1.184 16.158-.034a2.11 2.11 0 0 0 .108-.033.417.417 0 0 1 .562.39Z" clip-rule="evenodd"/><path fill="url(#c)" fill-rule="evenodd" d="m22.095 12.748.833 5.834a1.25 1.25 0 1 0 2.474-.354l-.834-5.833a1.249 1.249 0 1 0-2.473.353Z" clip-rule="evenodd"/><path fill="url(#d)" fill-rule="evenodd" d="M23.824 25.494 27.99 37.16a1.25 1.25 0 0 0 2.354-.841l-4.167-11.667a1.25 1.25 0 1 0-2.353.841Z" clip-rule="evenodd"/><path fill="url(#e)" fill-rule="evenodd" d="m15.428 12.395-.833 5.834a1.25 1.25 0 1 0 2.473.353l.834-5.834a1.249 1.249 0 1 0-2.474-.353Z" clip-rule="evenodd"/><path fill="url(#f)" fill-rule="evenodd" d="M13.822 24.652 9.656 36.318a1.25 1.25 0 0 0 2.353.842l4.167-11.666a1.25 1.25 0 1 0-2.354-.842Z" clip-rule="evenodd"/><path fill="url(#g)" fill-rule="evenodd" d="M26.875 29.656h-13.75a1.25 1.25 0 0 0 0 2.5h13.75a1.25 1.25 0 0 0 0-2.5Z" clip-rule="evenodd"/><defs><linearGradient id="a" x1="15.888" x2="30.365" y1="17.367" y2="7.373" gradientUnits="userSpaceOnUse"><stop stop-color="#CF00AD"/><stop offset=".349" stop-color="#E1004C"/><stop offset="1" stop-color="#F8479E"/></linearGradient><linearGradient id="b" x1="14.713" x2="26.779" y1="28.933" y2="15.294" gradientUnits="userSpaceOnUse"><stop stop-color="#CF00AD"/><stop offset=".349" stop-color="#E1004C"/><stop offset="1" stop-color="#F8479E"/></linearGradient><linearGradient id="c" x1="22.965" x2="26.896" y1="21.98" y2="21.239" gradientUnits="userSpaceOnUse"><stop stop-color="#CF00AD"/><stop offset=".349" stop-color="#E1004C"/><stop offset="1" stop-color="#F8479E"/></linearGradient><linearGradient id="d" x1="25.517" x2="33.279" y1="41.941" y2="40.219" gradientUnits="userSpaceOnUse"><stop stop-color="#CF00AD"/><stop offset=".349" stop-color="#E1004C"/><stop offset="1" stop-color="#F8479E"/></linearGradient><linearGradient id="e" x1="15.465" x2="19.396" y1="21.98" y2="21.239" gradientUnits="userSpaceOnUse"><stop stop-color="#CF00AD"/><stop offset=".349" stop-color="#E1004C"/><stop offset="1" stop-color="#F8479E"/></linearGradient><linearGradient id="f" x1="11.349" x2="19.111" y1="41.941" y2="40.219" gradientUnits="userSpaceOnUse"><stop stop-color="#CF00AD"/><stop offset=".349" stop-color="#E1004C"/><stop offset="1" stop-color="#F8479E"/></linearGradient><linearGradient id="g" x1="16.181" x2="18.092" y1="32.854" y2="26.999" gradientUnits="userSpaceOnUse"><stop stop-color="#CF00AD"/><stop offset=".349" stop-color="#E1004C"/><stop offset="1" stop-color="#F8479E"/></linearGradient></defs></svg>