<svg width="16" height="16" viewBox="0 0 16 16" fill="none" xmlns="http://www.w3.org/2000/svg">
<g id="038-expand">
<g id="Icon">
<path id="Vector" fill-rule="evenodd" clip-rule="evenodd" d="M3.02975 14.0297L14.0297 3.02975C14.3228 2.73775 14.3228 2.26175 14.0297 1.96975C13.7378 1.67675 13.2618 1.67675 12.9698 1.96975L1.96975 12.9698C1.67675 13.2618 1.67675 13.7378 1.96975 14.0297C2.26175 14.3228 2.73775 14.3228 3.02975 14.0297Z" fill="#919BA1"/>
<path id="Vector_2" fill-rule="evenodd" clip-rule="evenodd" d="M14.0297 12.9698L3.02975 1.96975C2.73775 1.67675 2.26175 1.67675 1.96975 1.96975C1.67675 2.26175 1.67675 2.73775 1.96975 3.02975L12.9698 14.0297C13.2618 14.3228 13.7378 14.3228 14.0297 14.0297C14.3228 13.7378 14.3228 13.2618 14.0297 12.9698Z" fill="#919BA1"/>
</g>
</g>
</svg>
