<svg xmlns="http://www.w3.org/2000/svg" width="24" height="24" fill="none"><path fill="#5E686E" fill-rule="evenodd" d="M12 1.25C6.067 1.25 1.25 6.067 1.25 12S6.067 22.75 12 22.75 22.75 17.933 22.75 12 17.933 1.25 12 1.25Zm0 1.5c5.105 0 9.25 4.145 9.25 9.25s-4.145 9.25-9.25 9.25S2.75 17.105 2.75 12 6.895 2.75 12 2.75Z" clip-rule="evenodd"/><path fill="#5E686E" fill-rule="evenodd" d="M11.25 5v7c0 .199.079.39.22.53l3.5 3.5a.749.749 0 1 0 1.06-1.06l-3.28-3.281V5a.75.75 0 0 0-1.5 0Z" clip-rule="evenodd"/></svg>