<svg width="18" height="18" fill="none" xmlns="http://www.w3.org/2000/svg"><g fill=""><path fill-rule="evenodd" clip-rule="evenodd" d="M17.363 3.047v8.928a3.004 3.004 0 0 1-3.005 3.007H7.645a.564.564 0 0 0-.362.13l-3.24 2.7a.625.625 0 0 1-1.025-.48v-2.416a3.007 3.007 0 0 1-2.381-2.94v-8.93A3.004 3.004 0 0 1 3.643.04h10.715a3.004 3.004 0 0 1 3.005 3.007Zm-1.25 0a1.756 1.756 0 0 0-1.755-1.756H3.643a1.759 1.759 0 0 0-1.756 1.756v8.928a1.756 1.756 0 0 0 1.756 1.757c.345 0 .625.279.625.625v1.642l2.215-1.846a1.81 1.81 0 0 1 1.162-.421h6.713a1.756 1.756 0 0 0 1.755-1.757V3.047Z"/><path fill-rule="evenodd" clip-rule="evenodd" d="M9 2.541a4.793 4.793 0 0 1 4.792 4.792 4.793 4.793 0 0 1-4.791 4.791 4.793 4.793 0 0 1-4.792-4.791A4.793 4.793 0 0 1 9.001 2.54Zm0 1.25A3.543 3.543 0 0 0 5.46 7.333 3.543 3.543 0 1 0 9.001 3.79Z"/><path d="M7.541 7.125a.625.625 0 1 0 0-1.25.625.625 0 0 0 0 1.25ZM10.459 7.125a.625.625 0 1 0 0-1.25.625.625 0 0 0 0 1.25Z"/><path fill-rule="evenodd" clip-rule="evenodd" d="M7.374 8.873a.626.626 0 0 1 .752-1c.243.184.546.292.874.292.328 0 .63-.108.874-.292a.626.626 0 0 1 .752 1A2.695 2.695 0 0 1 9 9.415c-.61 0-1.172-.202-1.626-.542Z"/></g></svg>