<svg width="18" height="19" fill="none" xmlns="http://www.w3.org/2000/svg"><g fill-rule="evenodd" clip-rule="evenodd" fill=""><path d="M16.708 11.667v-1.25c0-.608-.242-1.191-.671-1.621a2.296 2.296 0 0 0-1.621-.671H3.583c-.608 0-1.191.242-1.621.67-.43.43-.671 1.014-.671 1.622v1.25a.625.625 0 0 0 1.25 0v-1.25a1.043 1.043 0 0 1 1.042-1.042h10.833a1.043 1.043 0 0 1 1.042 1.042v1.25a.625.625 0 0 0 1.25 0Z"/><path d="M16.5 11.043h-1.25c-.806 0-1.459.653-1.459 1.458v2.084a.208.208 0 0 1-.208.208H4.416a.208.208 0 0 1-.208-.208V12.5c0-.805-.653-1.458-1.459-1.458H1.5c-.805 0-1.458.653-1.458 1.458v3.334c0 .607.242 1.19.67 1.62.43.43 1.014.671 1.622.671h13.333c.607 0 1.19-.241 1.62-.67.43-.43.672-1.014.672-1.621V12.5c0-.805-.653-1.458-1.459-1.458Zm-1.25 1.25h1.25c.114 0 .208.093.208.208v3.334a1.043 1.043 0 0 1-1.042 1.041H2.333a1.043 1.043 0 0 1-1.042-1.041V12.5c0-.115.093-.208.208-.208h1.25c.115 0 .209.093.209.208v2.084c0 .805.653 1.458 1.458 1.458h9.167c.806 0 1.458-.652 1.458-1.458V12.5c0-.115.093-.208.208-.208Z"/><path d="m14.273 17.78.417.833a.625.625 0 1 0 1.118-.559l-.417-.833a.625.625 0 1 0-1.118.558ZM2.608 17.221l-.417.833a.625.625 0 1 0 1.118.559l.417-.834a.625.625 0 1 0-1.118-.558ZM9.624 1.459A.625.625 0 0 0 9 .834H.666a.625.625 0 0 0-.625.625v5.417c0 .345.28.625.625.625h8.333c.345 0 .625-.28.625-.625V1.459Zm-1.25.625v4.167H1.291V2.084h7.083Z"/><path d="m1.05 5.405 1.77-1.379a.21.21 0 0 1 .259.003l1.777 1.44a.625.625 0 1 0 .787-.97l-1.777-1.44a1.458 1.458 0 0 0-1.815-.018L.281 4.419a.626.626 0 0 0 .77.986Z"/><path d="M2.945 7.384 5.961 5.23a.208.208 0 0 1 .242 0l2.432 1.737a.624.624 0 1 0 .727-1.016L6.93 4.213a1.457 1.457 0 0 0-1.695 0L2.219 6.367a.624.624 0 1 0 .726 1.017ZM16.293 1.475a.626.626 0 0 0-.595-.432h-2.564c-.27 0-.51.174-.595.432l-1.217 3.75a.626.626 0 0 0 .594.818h5a.626.626 0 0 0 .594-.818l-1.218-3.75Zm-1.05.818.813 2.5h-3.28l.812-2.5h1.655Z"/><path d="M13.791 5.418v3.333a.625.625 0 0 0 1.25 0V5.418a.625.625 0 0 0-1.25 0Z"/></g></svg>