<svg xmlns="http://www.w3.org/2000/svg" width="186" height="113" fill="none"><path fill="url(#a)" d="M275 94.453a18.71 18.71 0 0 0-3.823-11.35l-.142-.144-62.71-75.995-.071-.072C204.891 2.722 199.723 0 194.041 0c-5.841 0-11.08 2.793-14.443 7.107l.071-.143-23.204 28.089L133.26 6.964l-.071-.072C129.826 2.722 124.658 0 118.976 0c-5.84 0-11.08 2.793-14.443 7.107l.071-.143-62.71 75.995-.07.072C39.433 86.218 38 90.138 38 94.381 38 104.675 46.23 113 56.408 113h-.142 200.432c10.072.071 18.302-8.253 18.302-18.547Z"/><g filter="url(#b)"><path fill="#fff" fill-opacity=".6" d="M116 82.194c0-1.94-.574-3.74-1.549-5.188l-.057-.065-25.402-34.736-.028-.033c-1.362-1.907-3.456-3.15-5.757-3.15-2.366 0-4.489 1.276-5.85 3.248l.028-.065-9.4 12.838-9.399-12.838-.028-.033c-1.362-1.907-3.456-3.15-5.757-3.15-2.366 0-4.489 1.276-5.85 3.248l.028-.065L21.577 76.94l-.028.032A9.364 9.364 0 0 0 20 82.161c0 4.705 3.334 8.51 7.456 8.51H27.4h81.188c4.079.033 7.413-3.772 7.413-8.477Z"/></g><defs><linearGradient id="a" x1="100.806" x2="247.204" y1="144.519" y2="-.223" gradientUnits="userSpaceOnUse"><stop stop-color="#CF00AD"/><stop offset=".349" stop-color="#E1004C"/><stop offset="1" stop-color="#F8479E"/></linearGradient><filter id="b" width="136" height="91.65" x="0" y="21.021" color-interpolation-filters="sRGB" filterUnits="userSpaceOnUse"><feFlood flood-opacity="0" result="BackgroundImageFix"/><feColorMatrix in="SourceAlpha" result="hardAlpha" values="0 0 0 0 0 0 0 0 0 0 0 0 0 0 0 0 0 0 127 0"/><feOffset dy="2"/><feGaussianBlur stdDeviation="10"/><feComposite in2="hardAlpha" operator="out"/><feColorMatrix values="0 0 0 0 0.811765 0 0 0 0 0.117647 0 0 0 0 0.317647 0 0 0 0.1 0"/><feBlend in2="BackgroundImageFix" result="effect1_dropShadow_5995_134601"/><feBlend in="SourceGraphic" in2="effect1_dropShadow_5995_134601" result="shape"/></filter></defs></svg>
