<svg width="37" height="36" fill="none" xmlns="http://www.w3.org/2000/svg"><g fill="#919BA1"><path fill-rule="evenodd" clip-rule="evenodd" d="M26.833 35.916c.69 0 1.25-.56 1.25-1.25V3A2.918 2.918 0 0 0 25.167.083H11.833A2.918 2.918 0 0 0 8.917 3v31.666c0 .69.56 1.25 1.25 1.25h16.666Zm-1.25-2.5H11.417V3c0-.23.186-.417.416-.417h13.334c.23 0 .416.187.416.417v30.416Z"/><path fill-rule="evenodd" clip-rule="evenodd" d="M33.5 35.917c.69 0 1.25-.56 1.25-1.25v-25a2.918 2.918 0 0 0-2.917-2.917h-5c-.69 0-1.25.56-1.25 1.25v26.667c0 .69.56 1.25 1.25 1.25H33.5Zm-1.25-2.5h-4.167V9.25h3.75c.23 0 .417.187.417.417v23.75ZM10.167 35.917c.69 0 1.25-.56 1.25-1.25V8c0-.69-.56-1.25-1.25-1.25h-5A2.918 2.918 0 0 0 2.25 9.667v25c0 .69.56 1.25 1.25 1.25h6.667Zm-1.25-2.5H4.75V9.667c0-.23.187-.417.417-.417h3.75v24.167Z"/><path fill-rule="evenodd" clip-rule="evenodd" d="M2.048 35.916h33.119a1.25 1.25 0 0 0 0-2.5H2.048a1.25 1.25 0 0 0 0 2.5Z"/><path fill-rule="evenodd" clip-rule="evenodd" d="M13.917 23.833v10.834c0 .69.56 1.25 1.25 1.25h6.666c.69 0 1.25-.56 1.25-1.25V23.833A2.087 2.087 0 0 0 21 21.75h-5a2.087 2.087 0 0 0-2.083 2.083Zm6.666.417v9.167h-4.166V24.25h4.166Z"/><path d="M15.583 18.833h-.833a.834.834 0 0 1-.833-.833v-.834c0-.46.373-.833.833-.833h.833c.46 0 .834.373.834.833V18c0 .46-.374.833-.834.833ZM22.25 18.833h-.833a.834.834 0 0 1-.834-.833v-.834c0-.46.374-.833.834-.833h.833c.46 0 .834.373.834.833V18c0 .46-.374.833-.834.833ZM15.583 13.833h-.833a.834.834 0 0 1-.833-.833v-.834c0-.46.373-.833.833-.833h.833c.46 0 .834.373.834.833V13c0 .46-.374.833-.834.833ZM22.25 13.833h-.833a.834.834 0 0 1-.834-.833v-.834c0-.46.374-.833.834-.833h.833c.46 0 .834.373.834.833V13c0 .46-.374.833-.834.833ZM15.583 8.833h-.833A.834.834 0 0 1 13.917 8v-.834c0-.46.373-.833.833-.833h.833c.46 0 .834.373.834.833V8c0 .46-.374.833-.834.833ZM22.25 8.833h-.833A.834.834 0 0 1 20.583 8v-.834c0-.46.374-.833.834-.833h.833c.46 0 .834.373.834.833V8c0 .46-.374.833-.834.833Z"/></g></svg>