<svg xmlns="http://www.w3.org/2000/svg" width="41" height="40" fill="none"><path fill="" fill-rule="evenodd" d="M30.83 17.083A7.92 7.92 0 0 0 22.915 25a7.92 7.92 0 0 0 7.917 7.916A7.92 7.92 0 0 0 38.747 25a7.92 7.92 0 0 0-7.916-7.917Zm0 2.5A5.419 5.419 0 0 1 36.248 25a5.419 5.419 0 0 1-5.416 5.416A5.419 5.419 0 0 1 25.414 25a5.419 5.419 0 0 1 5.417-5.417Z" clip-rule="evenodd"/><path fill="" fill-rule="evenodd" d="m27.59 26.716 1.666 1.667a1.25 1.25 0 0 0 1.864-.107l3.191-4.023a1.25 1.25 0 0 0-1.96-1.553l-2.318 2.924-.675-.675a1.25 1.25 0 0 0-1.768 1.767Z" clip-rule="evenodd"/><path fill="" fill-rule="evenodd" d="M35.414 19.226v-7.56a4.591 4.591 0 0 0-1.342-3.241 4.591 4.591 0 0 0-3.241-1.342H7.497a4.591 4.591 0 0 0-3.241 1.342 4.591 4.591 0 0 0-1.342 3.241v15c0 1.215.483 2.382 1.342 3.242a4.591 4.591 0 0 0 3.241 1.342h18.925a1.25 1.25 0 0 0 0-2.5H7.497a2.087 2.087 0 0 1-2.083-2.084v-15a2.087 2.087 0 0 1 2.083-2.083h23.334a2.087 2.087 0 0 1 2.083 2.083v7.56a1.25 1.25 0 0 0 2.5 0Z" clip-rule="evenodd"/><path fill="" fill-rule="evenodd" d="M34.164 13.75h-30a1.25 1.25 0 0 0 0 2.5h30a1.25 1.25 0 0 0 0-2.5ZM14.166 23.75H9.164a1.25 1.25 0 0 0 0 2.5h5.002a1.25 1.25 0 0 0 0-2.5Z" clip-rule="evenodd"/></svg>
