<svg width="80" height="80" viewBox="0 0 80 80" fill="none" xmlns="http://www.w3.org/2000/svg">
<g id="Flags">
<g clip-path="url(#clip0_6411_155197)">
<path id="Vector" d="M-20 70.8549C-20 75.9051 -15.8647 79.9997 -10.7632 79.9997H94.0968C99.1952 79.9997 103.329 75.9101 103.333 70.864V53.333H-20V70.8549Z" fill="#41479B"/>
<path id="Vector_2" d="M94.0968 0H-10.7632C-15.8647 0 -20 4.09435 -20 9.14479V26.6667H103.333V9.13572C103.329 4.08981 99.1952 0 94.0968 0Z" fill="#FF4B55"/>
<path id="Vector_3" d="M102.963 26.8945H-20V53.1H102.963V26.8945Z" fill="#F5F5F5"/>
<g id="Group 25">
<g id="Group">
<path id="Vector_4" d="M32.1138 30.3096H26.1777V36.9307H32.1138V30.3096Z" fill="#FF4B55"/>
<path id="Vector_5" d="M43.982 30.3096H38.0459V36.9307H43.982V30.3096Z" fill="#FF4B55"/>
<path id="Vector_6" d="M38.0582 36.9307H32.1221V43.5518H38.0582V36.9307Z" fill="#FF4B55"/>
<path id="Vector_7" d="M55.8511 30.3096H49.915V36.9307H55.8511V30.3096Z" fill="#FF4B55"/>
<path id="Vector_8" d="M49.9263 36.9307H43.9902V43.5518H49.9263V36.9307Z" fill="#FF4B55"/>
</g>
<g id="Group_2">
<path id="Vector_9" d="M38.0582 30.3096H32.1221V36.9307H38.0582V30.3096Z" fill="#F5F5F5"/>
<path id="Vector_10" d="M49.9263 30.3096H43.9902V36.9307H49.9263V30.3096Z" fill="#F5F5F5"/>
<path id="Vector_11" d="M32.1138 36.9307H26.1777V43.5518H32.1138V36.9307Z" fill="#F5F5F5"/>
<path id="Vector_12" d="M43.982 36.9307H38.0459V43.5518H43.982V36.9307Z" fill="#F5F5F5"/>
<path id="Vector_13" d="M55.8511 36.9307H49.915V43.5518H55.8511V36.9307Z" fill="#F5F5F5"/>
</g>
<g id="Group_3">
<path id="Vector_14" d="M43.983 43.5518H38.0469V50.1729H43.983V43.5518Z" fill="#FF4B55"/>
<path id="Vector_15" d="M38.0386 50.1729H32.1025V56.7939H38.0386V50.1729Z" fill="#FF4B55"/>
<path id="Vector_16" d="M49.9068 50.1729H43.9707V56.7939H49.9068V50.1729Z" fill="#FF4B55"/>
</g>
<g id="Group_4">
<path id="Vector_17" d="M38.0386 43.5518H32.1025V50.1729H38.0386V43.5518Z" fill="#F5F5F5"/>
<path id="Vector_18" d="M49.9068 43.5518H43.9707V50.1729H49.9068V43.5518Z" fill="#F5F5F5"/>
<path id="Vector_19" d="M43.983 50.1729H38.0469V56.7939H43.983V50.1729Z" fill="#F5F5F5"/>
</g>
<g id="Group_5">
<path id="Vector_20" d="M55.8582 30.3092V48.9298C55.8582 56.9286 49.2138 63.4125 41.0178 63.4125C32.8218 63.4125 26.1775 56.9283 26.1775 48.9298V30.3092H55.8582ZM56.918 29.2744H55.8579H26.1773H25.1172V30.3089V48.9296C25.1172 57.4859 32.25 64.4468 41.0176 64.4468C49.7852 64.4468 56.918 57.4857 56.918 48.9296V30.3089V29.2744Z" fill="#FF4B55"/>
<path id="Vector_21" d="M32.1138 50.1726V43.5518H26.1777V48.9314C26.1777 49.3507 26.2061 49.7625 26.2419 50.1729L32.1138 50.1726Z" fill="#FF4B55"/>
</g>
<g id="Group_6">
<path id="Vector_22" d="M55.787 50.1729H49.915V56.7935H53.4632C54.7507 54.8554 55.5752 52.6012 55.787 50.1729Z" fill="#F5F5F5"/>
<path id="Vector_23" d="M28.5601 56.7935H32.1083V50.1729H26.2363C26.4482 52.601 27.2726 54.8552 28.5601 56.7935Z" fill="#F5F5F5"/>
</g>
<g id="Group_7">
<path id="Vector_24" d="M49.9092 50.1726H55.7811C55.8169 49.7627 55.8453 49.3504 55.8453 48.9311V43.5518H49.9092V50.1726Z" fill="#FF4B55"/>
<path id="Vector_25" d="M32.1028 60.4982V56.7939H28.5547C29.505 58.2248 30.7094 59.475 32.1028 60.4982Z" fill="#FF4B55"/>
<path id="Vector_26" d="M53.4573 56.7939H49.9092V60.4985C51.3024 59.475 52.5065 58.2248 53.4573 56.7939Z" fill="#FF4B55"/>
</g>
<g id="Group_8">
<path id="Vector_27" d="M32.1025 60.4982C33.8305 61.7674 35.8411 62.6885 38.0386 63.1237V56.7939H32.1025V60.4982Z" fill="#F5F5F5"/>
<path id="Vector_28" d="M43.9707 63.1237C46.1682 62.6885 48.1791 61.7671 49.9068 60.4982V56.7939H43.9707V63.1237Z" fill="#F5F5F5"/>
</g>
<path id="Vector_29" d="M43.983 56.7939H38.0469V63.1239C39.0058 63.314 39.9984 63.4148 41.015 63.4148C42.0316 63.4148 43.024 63.314 43.9832 63.1239V56.7939H43.983Z" fill="#FF4B55"/>
<g id="Group_9">
<path id="Vector_30" d="M30.2706 19.3496C28.979 19.1546 27.6576 19.0139 26.3105 18.9326C25.2687 19.7696 24.2756 20.6421 23.333 21.5459C24.2797 23.776 25.2262 26.0061 26.1724 28.2361C28.0728 27.4681 30.0201 26.8533 31.9957 26.3923C31.4207 24.045 30.8455 21.6973 30.2706 19.3496Z" fill="#4173CD"/>
<path id="Vector_31" d="M44.6087 18.2525C43.4479 17.6795 42.2462 17.1496 41.0055 16.667C39.7651 17.1498 38.563 17.6797 37.4023 18.2525C37.5952 20.6589 37.7883 23.0652 37.9811 25.472C39.9942 25.318 42.0168 25.318 44.0299 25.472C44.2227 23.0654 44.4158 20.6591 44.6087 18.2525Z" fill="#4173CD"/>
<path id="Vector_32" d="M58.6951 21.5459C57.7525 20.6424 56.7592 19.7698 55.7176 18.9326C54.3705 19.0137 53.0491 19.1546 51.7575 19.3496C51.1824 21.6973 50.6074 24.0448 50.0322 26.3923C52.0078 26.8533 53.955 27.4679 55.8554 28.2361C56.8022 26.0058 57.7489 23.7757 58.6951 21.5459Z" fill="#4173CD"/>
</g>
<g id="Group_10">
<path id="Vector_33" d="M37.3988 18.252C36.161 17.8622 34.8877 17.5212 33.5817 17.2334C32.4294 17.8993 31.3215 18.6064 30.2598 19.3505C30.8347 21.6982 31.4099 24.0457 31.9848 26.3932C33.9604 25.9322 35.9641 25.6252 37.9774 25.4714C37.7845 23.0649 37.5917 20.6586 37.3988 18.252Z" fill="#41479B"/>
<path id="Vector_34" d="M51.7472 19.3505C50.6852 18.6064 49.5773 17.899 48.4252 17.2334C47.1192 17.5212 45.8456 17.8627 44.6081 18.252C44.4152 20.6583 44.2221 23.0646 44.0293 25.4714C46.0426 25.625 48.0463 25.9322 50.0218 26.3932C50.597 24.046 51.172 21.6982 51.7472 19.3505Z" fill="#41479B"/>
</g>
<g id="Group_11">
<path id="Vector_35" d="M37.6243 21.1383C35.38 21.3094 33.1463 21.6518 30.9437 22.1661C30.8287 21.6966 30.7137 21.2269 30.5986 20.7572C32.8766 20.2261 35.1869 19.8718 37.5083 19.6943C37.5472 20.1757 37.5857 20.6569 37.6243 21.1383Z" fill="#FF4B55"/>
<path id="Vector_36" d="M37.8492 24.0285C35.7591 24.1881 33.6786 24.5071 31.6273 24.9857C31.5121 24.5162 31.3973 24.0465 31.2822 23.5773C33.4089 23.0809 35.5662 22.7502 37.7335 22.585C37.7716 23.0657 37.8106 23.5475 37.8492 24.0285Z" fill="#FF4B55"/>
</g>
<path id="Vector_37" d="M48.0523 24.5195C47.5347 24.4297 47.0158 24.3498 46.4956 24.28C45.6401 24.1647 45.003 23.4559 45.0772 22.6593C45.1511 21.8629 45.9689 21.2851 46.9 21.4107C47.4584 21.4857 48.0158 21.5713 48.5713 21.6679C49.4981 21.8277 50.098 22.6246 49.9172 23.4036C49.737 24.1846 48.9042 24.666 48.0523 24.5195Z" fill="#FFE15A"/>
<path id="Vector_38" d="M56.4172 26.9038C54.4442 26.1064 52.4218 25.4682 50.3711 24.9894C50.4864 24.52 50.6012 24.0503 50.7162 23.5811C52.8428 24.077 54.9395 24.7389 56.9852 25.5657C56.7959 26.0115 56.6064 26.4578 56.4172 26.9038Z" fill="#FF4B55"/>
<g id="Group_12">
<path id="Vector_39" d="M55.8831 22.5527C55.6734 23.1168 54.9664 23.3852 54.2983 23.1731C53.6304 22.9607 53.2216 22.3411 53.3907 21.764C53.5598 21.187 54.2759 20.8816 54.9844 21.1064C55.6936 21.3307 56.093 21.9886 55.8831 22.5527Z" fill="#FFE15A"/>
<path id="Vector_40" d="M28.6225 21.7637C28.7913 22.3412 28.3823 22.9611 27.7149 23.1728C27.047 23.3837 26.34 23.1153 26.1301 22.5524C25.9202 21.988 26.3198 21.3303 27.0288 21.106C27.7372 20.882 28.4539 21.1871 28.6225 21.7637Z" fill="#FFE15A"/>
<path id="Vector_41" d="M40.6776 20.8166C40.6791 21.2963 40.2372 21.687 39.6896 21.7034C39.1423 21.7205 38.6756 21.3563 38.6468 20.8784C38.6182 20.4003 39.0597 19.9864 39.6341 19.9684C40.2088 19.9508 40.6755 20.3368 40.6776 20.8166Z" fill="#FFE15A"/>
<path id="Vector_42" d="M43.3785 20.8785C43.3494 21.3575 42.8825 21.7206 42.3357 21.7035C41.7884 21.6871 41.3465 21.2964 41.3477 20.8166C41.3498 20.3373 41.8167 19.9501 42.3909 19.9684C42.9656 19.9855 43.4066 20.4001 43.3785 20.8785Z" fill="#FFE15A"/>
<path id="Vector_43" d="M41.9713 23.0537C41.9577 23.5335 41.527 23.9108 41.0088 23.9108C40.491 23.9106 40.0604 23.5337 40.0462 23.0537C40.0328 22.5754 40.4634 22.1736 41.0088 22.1748C41.5542 22.1736 41.9848 22.5749 41.9713 23.0537Z" fill="#FFE15A"/>
</g>
</g>
</g>
</g>
<defs>
<clipPath id="clip0_6411_155197">
<rect width="80" height="80" rx="40" fill="white"/>
</clipPath>
</defs>
</svg>
