<svg xmlns="http://www.w3.org/2000/svg" width="25" height="24" fill="none"><path fill="#D01E50" fill-rule="evenodd" d="M7.018 13.271a13.325 13.325 0 0 0 4.212 4.211l1.623-1.353a1.55 1.55 0 0 1 1.55-.254c1.091.418 2.182.626 3.273.618a1.543 1.543 0 0 1 1.569 1.541c.005.885.005 2.268.005 3.121a1.55 1.55 0 0 1-1.465 1.547l-.844.047-.041.001c-8.362 0-15.15-6.788-15.15-15.15l.001-.041.047-.844A1.55 1.55 0 0 1 3.345 5.25h3.146c.85.001 1.541.686 1.548 1.529.021 1.119.236 2.237.618 3.353a1.55 1.55 0 0 1-.273 1.497l-1.366 1.642Zm3.649 5.626a14.834 14.834 0 0 1-5.064-5.063l-.002-.003a1.15 1.15 0 0 1 .103-1.328c.347-.415 1.108-1.329 1.526-1.833a.047.047 0 0 0 .009-.047l-.001-.003c-.434-1.271-.675-2.542-.698-3.813V6.8a.05.05 0 0 0-.05-.05H3.345a.051.051 0 0 0-.05.047l-.045.829c.014 7.515 6.115 13.613 13.63 13.624l.823-.045a.051.051 0 0 0 .047-.05c0-.851 0-2.23-.005-3.113v-.004a.046.046 0 0 0-.013-.032.046.046 0 0 0-.033-.013h-.01c-1.275.01-2.549-.229-3.823-.718l-.003-.001a.05.05 0 0 0-.05.008l-1.817 1.513a1.148 1.148 0 0 1-1.327.103l-.002-.001Z" clip-rule="evenodd"/><path fill="#D01E50" fill-rule="evenodd" d="M7.633 4.592a.752.752 0 0 1-1.053-.131.752.752 0 0 1 .13-1.053A10.206 10.206 0 0 1 13 1.25c5.658 0 10.25 4.593 10.25 10.25 0 2.37-.805 4.553-2.157 6.29a.752.752 0 0 1-1.053.131.752.752 0 0 1-.131-1.053A8.71 8.71 0 0 0 21.75 11.5c0-4.829-3.921-8.75-8.75-8.75a8.71 8.71 0 0 0-5.368 1.842Z" clip-rule="evenodd"/><path fill="#D01E50" fill-rule="evenodd" d="M12.75 8a.75.75 0 0 1 1.5 0v2.689l1.28 1.281a.749.749 0 1 1-1.06 1.06l-1.5-1.5a.747.747 0 0 1-.22-.53V8Z" clip-rule="evenodd"/></svg>
