<svg xmlns="http://www.w3.org/2000/svg" width="41" height="40" fill="none"><path fill="" fill-rule="evenodd" d="m20.33 23.77-2.292 1.41a1.516 1.516 0 0 1-2.281-1.588l.548-2.745-1.78-1.782a1.518 1.518 0 0 1 .963-2.585l2.392-.171 1.057-2.462a1.516 1.516 0 0 1 2.786 0l1.057 2.462 2.392.171a1.518 1.518 0 0 1 .963 2.585l-1.78 1.782.548 2.745a1.516 1.516 0 0 1-2.281 1.588l-2.292-1.41Zm-2.515-4.95.732.732c.295.295.423.72.341 1.13l-.238 1.187 1.025-.63a1.252 1.252 0 0 1 1.31 0l1.025.63-.238-1.187c-.082-.41.046-.835.341-1.13l.732-.732-1.003-.071a1.25 1.25 0 0 1-1.06-.755l-.452-1.054-.452 1.054a1.25 1.25 0 0 1-1.06.755l-1.003.071Z" clip-rule="evenodd"/><path fill="" fill-rule="evenodd" d="M17.825 2.805a4.71 4.71 0 0 1 5.01 0l3.347 2.102c.21.133.442.228.683.283l3.854.88a4.713 4.713 0 0 1 3.541 3.542l.88 3.853c.055.242.15.474.284.684l2.101 3.346a4.71 4.71 0 0 1 0 5.01l-2.101 3.347c-.134.21-.229.442-.284.683l-.88 3.854a4.713 4.713 0 0 1-3.541 3.541l-3.854.88c-.241.055-.473.15-.683.284l-3.347 2.101a4.71 4.71 0 0 1-5.01 0l-3.346-2.101a2.173 2.173 0 0 0-.684-.284l-3.853-.88A4.713 4.713 0 0 1 6.4 30.39l-.88-3.854a2.175 2.175 0 0 0-.283-.683l-2.102-3.347a4.71 4.71 0 0 1 0-5.01l2.102-3.346c.133-.21.228-.442.283-.684l.88-3.853A4.713 4.713 0 0 1 9.942 6.07l3.853-.88c.242-.055.474-.15.684-.283l3.346-2.102Zm1.33 2.117L15.81 7.025c-.449.28-.94.485-1.457.604l-3.853.878a2.213 2.213 0 0 0-1.662 1.662l-.878 3.853a4.755 4.755 0 0 1-.604 1.457l-2.103 3.346a2.207 2.207 0 0 0 0 2.35l2.103 3.347c.28.448.485.94.604 1.457l.878 3.853c.19.827.835 1.472 1.662 1.662l3.853.878a4.753 4.753 0 0 1 1.457.603l3.346 2.104a2.207 2.207 0 0 0 2.35 0l3.347-2.104c.448-.28.94-.485 1.457-.603l3.853-.878a2.213 2.213 0 0 0 1.662-1.662l.878-3.853a4.753 4.753 0 0 1 .603-1.457l2.104-3.347a2.207 2.207 0 0 0 0-2.35l-2.104-3.346a4.754 4.754 0 0 1-.603-1.457l-.878-3.853a2.213 2.213 0 0 0-1.662-1.662l-3.853-.878a4.754 4.754 0 0 1-1.457-.604l-3.347-2.103a2.207 2.207 0 0 0-2.35 0Z" clip-rule="evenodd"/><path fill="" fill-rule="evenodd" d="M20.33 7.917c6.668 0 12.083 5.415 12.083 12.083 0 6.669-5.415 12.084-12.084 12.084-6.668 0-12.083-5.415-12.083-12.084 0-6.668 5.415-12.083 12.083-12.083Zm0 2.5c-5.29 0-9.584 4.293-9.584 9.583s4.293 9.584 9.583 9.584S29.913 25.29 29.913 20s-4.294-9.583-9.584-9.583Z" clip-rule="evenodd"/></svg>
