<svg width="80" height="80" viewBox="0 0 80 80" fill="none" xmlns="http://www.w3.org/2000/svg">
<g clip-path="url(#clip0_6411_155217)">
<rect width="80" height="80" rx="20" fill="#F5F5F5"/>
<path d="M102.963 8.96484H-20V17.2406H102.963V8.96484Z" fill="#FF4B55"/>
<path d="M102.963 62.7539H-20V71.0297H102.963V62.7539Z" fill="#FF4B55"/>
<path d="M55.8622 32.2586L58.8467 36.0686L63.5066 34.5464C63.7671 34.4613 63.9888 34.7489 63.8327 34.9694L61.042 38.9168L63.9655 42.7715C64.1291 42.9869 63.9172 43.2815 63.6538 43.2049L58.9447 41.8345L56.0916 45.7392C55.9321 45.9574 55.5795 45.8519 55.573 45.584L55.4534 40.7897L50.7664 39.348C50.5044 39.2674 50.4982 38.9076 50.7573 38.8186L55.3924 37.226L55.349 32.4304C55.3466 32.1623 55.6953 32.0456 55.8622 32.2586Z" fill="#FF4B55"/>
<path d="M40.5097 53.5255C32.0812 53.5255 25.244 46.8531 25.244 38.6202C25.244 30.4026 32.0812 23.7151 40.5097 23.7151C43.6455 23.7151 46.5375 24.6562 48.9475 26.2494C49.3167 26.4934 49.7377 26.02 49.4288 25.7066C45.8271 22.052 40.7292 19.8226 35.0772 20.0111C25.3665 20.3343 17.3278 27.9325 16.7072 37.3951C15.9966 48.2338 24.7906 57.2415 35.7401 57.2415C41.1334 57.2415 45.9808 55.041 49.4423 51.5226C49.748 51.2118 49.326 50.7456 48.9605 50.9875C46.5476 52.5831 43.651 53.5255 40.5097 53.5255Z" fill="#FF4B55"/>
</g>
<defs>
<clipPath id="clip0_6411_155217">
<rect width="80" height="80" rx="20" fill="white"/>
</clipPath>
</defs>
</svg>
