<svg xmlns="http://www.w3.org/2000/svg" width="24" height="24" fill="none"><path fill="#5E686E" fill-rule="evenodd" d="M9.03 16.03a.749.749 0 1 1-1.06-1.06l7-7a.749.749 0 1 1 1.06 1.06l-7 7Z" clip-rule="evenodd"/><path fill="#5E686E" fill-rule="evenodd" d="M16.03 14.97a.749.749 0 1 1-1.06 1.06l-7-7a.749.749 0 1 1 1.06-1.06l7 7Z" clip-rule="evenodd"/><path fill="#5E686E" fill-rule="evenodd" d="M12 1.25c5.933 0 10.75 4.817 10.75 10.75S17.933 22.75 12 22.75 1.25 17.933 1.25 12 6.067 1.25 12 1.25Zm0 1.5c-5.105 0-9.25 4.145-9.25 9.25s4.145 9.25 9.25 9.25 9.25-4.145 9.25-9.25S17.105 2.75 12 2.75Z" clip-rule="evenodd"/></svg>