<svg xmlns="http://www.w3.org/2000/svg" width="32" height="32" fill="none"><path fill="#D01E50" fill-rule="evenodd" d="M4.332 5.333c0-.972.387-1.906 1.073-2.594A3.673 3.673 0 0 1 8 1.666h12.229a3.67 3.67 0 0 1 2.592 1.073l3.772 3.772a3.67 3.67 0 0 1 1.073 2.592v17.563A3.666 3.666 0 0 1 24 30.333h-16a3.673 3.673 0 0 1-2.594-1.074 3.673 3.673 0 0 1-1.073-2.593V5.333Zm2 0v21.333a1.67 1.67 0 0 0 1.667 1.667h16c.92 0 1.666-.747 1.666-1.667V9.103c0-.441-.176-.865-.488-1.177l-3.772-3.772a1.666 1.666 0 0 0-1.177-.488H7.998a1.67 1.67 0 0 0-1.666 1.667Z" clip-rule="evenodd"/><path fill="#D01E50" fill-rule="evenodd" d="M11 10.666a1 1 0 0 1 0-2h5.333a1 1 0 0 1 0 2H11ZM11 16a1 1 0 0 1 0-2h10a1 1 0 0 1 0 2H11ZM11 20a1 1 0 0 1 0-2h10a1 1 0 0 1 0 2H11ZM11 24a1 1 0 0 1 0-2h10a1 1 0 0 1 0 2H11Z" clip-rule="evenodd"/></svg>