<svg xmlns="http://www.w3.org/2000/svg" width="24" height="24" fill="none"><path fill="#5E686E" fill-rule="evenodd" d="M3.25 16.5v2c0 .967.783 1.75 1.75 1.75h1.254c.496 0 .969-.211 1.301-.579l1.204-1.338a.25.25 0 0 1 .186-.083h6.109c.071 0 .139.03.186.083l1.204 1.338c.332.368.805.579 1.301.579H19a1.75 1.75 0 0 0 1.75-1.75v-2a.75.75 0 0 0-1.5 0v2a.25.25 0 0 1-.25.25h-1.255a.25.25 0 0 1-.186-.083l-1.204-1.338a1.753 1.753 0 0 0-1.301-.579H8.945c-.496 0-.969.211-1.301.579L6.44 18.667a.249.249 0 0 1-.186.083H5a.25.25 0 0 1-.25-.25v-2a.75.75 0 0 0-1.5 0Z" clip-rule="evenodd"/><path fill="#5E686E" fill-rule="evenodd" d="m17.671 15.25 1.238 1.341a2.251 2.251 0 0 0 3.182-3.182l-2-2a2.251 2.251 0 0 0-1.591-.659h-13a2.25 2.25 0 0 0-1.591.659l-2 2a2.251 2.251 0 0 0 3.182 3.182l1.237-1.341h11.343Zm.88-1.258A.75.75 0 0 0 18 13.75H6a.75.75 0 0 0-.552.242l-1.426 1.547a.752.752 0 0 1-1.053-.008.752.752 0 0 1 0-1.061l2-2a.75.75 0 0 1 .531-.22h13c.199 0 .389.079.53.22l2 2a.75.75 0 0 1-1.041 1.08 2406.67 2406.67 0 0 1-1.438-1.558Z" clip-rule="evenodd"/><path fill="#5E686E" fill-rule="evenodd" d="M19.75 6.5A2.75 2.75 0 0 0 17 3.75H7A2.75 2.75 0 0 0 4.25 6.5v5c0 .414.335.75.75.75h14a.75.75 0 0 0 .75-.75v-5Zm-1.5 0v4.25H5.75V6.5c0-.69.559-1.25 1.25-1.25h10c.69 0 1.25.56 1.25 1.25Z" clip-rule="evenodd"/><path fill="#5E686E" fill-rule="evenodd" d="M17.75 11.5v-2A1.75 1.75 0 0 0 16 7.75h-3a1.75 1.75 0 0 0-1.75 1.75v2c0 .414.336.75.75.75h5a.75.75 0 0 0 .75-.75Zm-1.5-2v1.25h-3.5V9.5a.25.25 0 0 1 .25-.25h3a.25.25 0 0 1 .25.25Z" clip-rule="evenodd"/><path fill="#5E686E" fill-rule="evenodd" d="M12.75 11.5v-2A1.75 1.75 0 0 0 11 7.75H8A1.75 1.75 0 0 0 6.25 9.5v2c0 .414.336.75.75.75h5a.75.75 0 0 0 .75-.75Zm-1.5-2v1.25h-3.5V9.5A.25.25 0 0 1 8 9.25h3a.25.25 0 0 1 .25.25Z" clip-rule="evenodd"/></svg>
