<svg xmlns="http://www.w3.org/2000/svg" width="20" height="20" viewBox="0 0 20 20" fill="none">
<path fill-rule="evenodd" clip-rule="evenodd" d="M18.4154 5.35742C16.6437 7.12908 12.4854 11.2866 11.4712 12.2974C11.2521 12.5157 10.9912 12.6882 10.7112 12.8007C9.89789 13.1382 7.91372 13.9166 7.33039 13.9557C6.98289 13.9791 6.64206 13.8507 6.39539 13.6041C6.14872 13.3574 6.02039 13.0166 6.04372 12.6691C6.08289 12.0857 6.86122 10.1032 7.19289 9.29325C7.30872 9.00575 7.48122 8.74492 7.70039 8.52658L14.6421 1.58408C14.9779 1.24825 15.4346 1.05908 15.9096 1.05908C16.3846 1.05908 16.8412 1.24825 17.1771 1.58408L18.4154 2.82242C18.7512 3.15825 18.9404 3.61492 18.9404 4.08992C18.9404 4.56492 18.7512 5.02158 18.4154 5.35742ZM7.29622 12.7032C7.86622 12.6316 9.53206 11.9366 10.2321 11.6457C10.2346 11.6449 10.2371 11.6441 10.2387 11.6432C10.3696 11.5907 10.4879 11.5124 10.5871 11.4132L10.5879 11.4124C11.6037 10.4016 15.7604 6.24492 17.5312 4.47325C17.6329 4.37158 17.6904 4.23408 17.6904 4.08992C17.6904 3.94575 17.6329 3.80825 17.5312 3.70658L16.2929 2.46825C16.1912 2.36658 16.0537 2.30908 15.9096 2.30908C15.7654 2.30908 15.6279 2.36658 15.5262 2.46825L8.58372 9.41075C8.48372 9.50992 8.40539 9.62908 8.35289 9.75992L8.35122 9.76325C8.06372 10.4649 7.36789 12.1324 7.29622 12.7032Z" fill="#75828A"/>
<path fill-rule="evenodd" clip-rule="evenodd" d="M16.7651 6.12391C17.0084 6.36808 17.0084 6.76391 16.7651 7.00808C16.5209 7.25225 16.1251 7.25225 15.8809 7.00808L12.9917 4.11891C12.7476 3.87475 12.7476 3.47891 12.9917 3.23475C13.2359 2.99141 13.6317 2.99141 13.8759 3.23475L16.7651 6.12391Z" fill="#75828A"/>
<path fill-rule="evenodd" clip-rule="evenodd" d="M11.6627 11.2251C11.9068 11.4685 11.9068 11.8651 11.6627 12.1085C11.4193 12.3526 11.0227 12.3526 10.7793 12.1085L7.89016 9.21929C7.64599 8.97596 7.64599 8.57929 7.89016 8.33596C8.13349 8.09179 8.53016 8.09179 8.77349 8.33596L11.6627 11.2251Z" fill="#75828A"/>
<path fill-rule="evenodd" clip-rule="evenodd" d="M7.08268 2.70801C7.42768 2.70801 7.70768 2.98801 7.70768 3.33301C7.70768 3.67801 7.42768 3.95801 7.08268 3.95801H4.16602C3.13018 3.95801 2.29102 4.79717 2.29102 5.83301V15.833C2.29102 16.3305 2.48852 16.8072 2.84018 17.1588C3.19185 17.5105 3.66852 17.708 4.16602 17.708H14.9993C15.4969 17.708 15.9735 17.5105 16.3252 17.1588C16.6768 16.8072 16.8743 16.3305 16.8743 15.833V12.9163C16.8743 12.5713 17.1544 12.2913 17.4993 12.2913C17.8443 12.2913 18.1243 12.5713 18.1243 12.9163V15.833C18.1243 16.6622 17.7952 17.4563 17.2094 18.043C16.6227 18.6288 15.8285 18.958 14.9993 18.958H4.16602C3.33685 18.958 2.54268 18.6288 1.95602 18.043C1.37018 17.4563 1.04102 16.6622 1.04102 15.833V5.83301C1.04102 4.10717 2.44018 2.70801 4.16602 2.70801H7.08268Z" fill="#75828A"/>
</svg>