<svg width="45" height="47" fill="none" xmlns="http://www.w3.org/2000/svg"><g fill-rule="evenodd" clip-rule="evenodd" fill="#FAE9EE"><path d="M44.085 7.167a6.428 6.428 0 0 0-1.879-4.539A6.428 6.428 0 0 0 37.668.75H7.335a6.428 6.428 0 0 0-4.539 1.878A6.428 6.428 0 0 0 .918 7.167v32.666c0 1.701.677 3.335 1.878 4.539a6.428 6.428 0 0 0 4.539 1.878h30.333a6.428 6.428 0 0 0 4.538-1.878 6.428 6.428 0 0 0 1.879-4.539V7.167Zm-3.5 0v32.666c0 .775-.308 1.515-.854 2.063a2.921 2.921 0 0 1-2.063.854H7.335a2.922 2.922 0 0 1-2.063-.854 2.922 2.922 0 0 1-.854-2.063V7.167c0-.775.308-1.515.854-2.063a2.922 2.922 0 0 1 2.063-.854h30.333c.775 0 1.514.308 2.063.854.546.548.854 1.288.854 2.063Z"/><path d="M2.668 32.25h7.646c.164 0 .32.07.432.191l2.86 3.141a4.09 4.09 0 0 0 3.02 1.335h11.75a4.09 4.09 0 0 0 3.02-1.335l2.86-3.14a.59.59 0 0 1 .432-.192h7.647a1.75 1.75 0 0 0 0-3.5h-7.647a4.089 4.089 0 0 0-3.019 1.335l-2.86 3.14a.589.589 0 0 1-.432.192H16.626a.589.589 0 0 1-.432-.192l-2.86-3.14a4.089 4.089 0 0 0-3.02-1.335H2.668a1.75 1.75 0 0 0 0 3.5Z"/></g></svg>