<svg xmlns="http://www.w3.org/2000/svg" width="148" height="148" fill="none"><path fill="#FAE9EE" fill-rule="evenodd" d="M140.29 61.667V30.833c0-12.77-10.353-23.124-23.125-23.124H30.832c-12.771 0-23.125 10.353-23.125 23.125v86.333c0 12.771 10.354 23.125 23.125 23.125h30.833a4.627 4.627 0 0 0 4.625-4.625 4.627 4.627 0 0 0-4.625-4.625H30.832c-7.665 0-13.875-6.21-13.875-13.875V30.833c0-7.665 6.21-13.874 13.875-13.874h86.333c7.666 0 13.875 6.21 13.875 13.875v30.833a4.627 4.627 0 0 0 4.625 4.625 4.627 4.627 0 0 0 4.625-4.625Z" clip-rule="evenodd"/><path fill="#FAE9EE" fill-rule="evenodd" d="M135.665 38.542H12.332a4.627 4.627 0 0 0-4.625 4.625 4.627 4.627 0 0 0 4.625 4.625h123.333a4.627 4.627 0 0 0 4.625-4.625 4.627 4.627 0 0 0-4.625-4.625Z" clip-rule="evenodd"/><path fill="#FAE9EE" d="M78.625 32.375a4.625 4.625 0 1 0 0-9.25 4.625 4.625 0 0 0 0 9.25ZM95.582 32.375a4.625 4.625 0 1 0 0-9.25 4.625 4.625 0 0 0 0 9.25ZM112.539 32.375a4.625 4.625 0 1 0 0-9.25 4.625 4.625 0 0 0 0 9.25ZM98.664 120.25a4.625 4.625 0 1 0 0-9.25 4.625 4.625 0 0 0 0 9.25Z"/><path fill="#FAE9EE" fill-rule="evenodd" d="M98.664 57.042c-22.97 0-41.625 18.654-41.625 41.625s18.654 41.625 41.625 41.625 41.625-18.654 41.625-41.625c0-22.97-18.654-41.625-41.625-41.625Zm0 9.25c17.871 0 32.375 14.504 32.375 32.375 0 17.871-14.504 32.375-32.375 32.375-17.87 0-32.375-14.504-32.375-32.375 0-17.871 14.504-32.375 32.375-32.375Z" clip-rule="evenodd"/><path fill="#FAE9EE" fill-rule="evenodd" d="M94.04 80.167v21.583a4.627 4.627 0 0 0 4.624 4.625 4.627 4.627 0 0 0 4.625-4.625V80.167a4.627 4.627 0 0 0-4.625-4.625 4.627 4.627 0 0 0-4.625 4.625Z" clip-rule="evenodd"/></svg>