<svg xmlns="http://www.w3.org/2000/svg" width="12" height="44" fill="none"><g fill="#E44646" fill-rule="evenodd" clip-rule="evenodd"><path d="M.5 5.352c0 .022 0 .044.002.066L1.5 28.186C1.52 30.89 3.576 33 6 33c2.428 0 4.486-2.118 4.5-4.826l.998-22.756c.002-.022.002-.044.002-.066 0-1.128-.524-2.194-1.372-3.04C9.01 1.196 7.332.5 6 .5c-1.332 0-3.01.696-4.128 1.812C1.024 3.158.5 4.224.5 5.352Zm3-.024c.014-.468.388-.846.79-1.154C4.812 3.776 5.456 3.5 6 3.5s1.188.276 1.71.674c.398.304.766.676.788 1.134.002.02-.996 22.774-.996 22.774-.002.022-.002.044-.002.066C7.5 29.128 6.878 30 6 30s-1.5-.872-1.5-1.852c0-.022 0-.044-.002-.066L3.5 5.328ZM6 34.5A4.502 4.502 0 0 0 1.5 39c0 2.484 2.016 4.5 4.5 4.5s4.5-2.016 4.5-4.5-2.016-4.5-4.5-4.5Zm0 3a1.5 1.5 0 1 1-.001 3.001A1.5 1.5 0 0 1 6 37.5Z"/></g></svg>
