<svg width="16" height="18" fill="none" xmlns="http://www.w3.org/2000/svg"><g fill-rule="evenodd" clip-rule="evenodd" fill=""><path d="M4.667 1.707a.625.625 0 0 1 0 1.25h-1.25c-.806 0-1.458.653-1.458 1.458V15.25a1.455 1.455 0 0 0 1.458 1.458h9.167c.387 0 .758-.153 1.03-.428.275-.273.428-.644.428-1.03V4.415c0-.805-.652-1.458-1.458-1.458h-1.25a.625.625 0 0 1 0-1.25h1.25a2.708 2.708 0 0 1 2.708 2.708V15.25a2.706 2.706 0 0 1-2.708 2.708H3.417A2.706 2.706 0 0 1 .71 15.249V4.415a2.708 2.708 0 0 1 2.708-2.708h1.25Z"/><path d="M11.96 1.5v1.666c0 .806-.654 1.458-1.459 1.458h-5a1.458 1.458 0 0 1-1.458-1.458V1.499c0-.805.653-1.458 1.458-1.458h5c.805 0 1.459.653 1.459 1.458Zm-1.25 0a.208.208 0 0 0-.209-.209h-5a.208.208 0 0 0-.208.208v1.667c0 .115.093.208.208.208h5a.208.208 0 0 0 .209-.208V1.499ZM4.668 7.957a.625.625 0 0 1 0-1.25h5.833a.625.625 0 0 1 0 1.25H4.668ZM4.668 11.291a.625.625 0 0 1 0-1.25h5.833a.625.625 0 0 1 0 1.25H4.668ZM4.668 14.625a.625.625 0 0 1 0-1.25h3.75a.625.625 0 0 1 0 1.25h-3.75Z"/></g></svg>