<svg width="20" height="20" fill="none" xmlns="http://www.w3.org/2000/svg"><path d="M15.833 1.666H4.166a2.5 2.5 0 0 0-2.5 2.5v.975c0 .344.07.685.208 1v.05c.118.267.285.51.492.717l5.133 5.1v5.491a.834.834 0 0 0 .834.834c.13-.001.259-.032.375-.092l3.333-1.667a.833.833 0 0 0 .458-.741v-3.825l5.1-5.1a2.34 2.34 0 0 0 .492-.717v-.05c.149-.313.231-.654.242-1v-.975a2.5 2.5 0 0 0-2.5-2.5Zm-4.759 9.408a.835.835 0 0 0-.241.592v3.65l-1.667.833v-4.483a.833.833 0 0 0-.242-.592L4.508 6.666H15.49l-4.417 4.408ZM16.666 5H3.333v-.833a.833.833 0 0 1 .833-.833h11.667a.833.833 0 0 1 .833.833v.833Z" fill="#4A4A4A"/></svg>