<svg xmlns="http://www.w3.org/2000/svg" width="33" height="32" fill="none"><g clip-path="url(#a)"><path fill="#DEEBF5" fill-rule="evenodd" d="M24.5 32h-16a8 8 0 0 1-8-8V8a8 8 0 0 1 8-8h16a8 8 0 0 1 8 8v16a8 8 0 0 1-8 8Z" clip-rule="evenodd"/><path fill="#F0FAFF" fill-rule="evenodd" d="M15.5 9h9a4.5 4.5 0 0 0 .46-8.977C24.807.015 24.655 0 24.5 0h-16a8 8 0 0 0-8 8v16a15 15 0 0 1 15-15Z" clip-rule="evenodd"/><path fill="#CDDCEB" fill-rule="evenodd" d="M24.5 16a8 8 0 1 0 8 8V8a8 8 0 0 1-8 8Z" clip-rule="evenodd"/><path fill="#1E78FF" d="M26.5 16.235c0-.39-.018-.78-.055-1.17a.998.998 0 0 0-.994-.901c-1.787-.002-5.859-.002-7.75-.002a1 1 0 0 0-1 1v1.928a1 1 0 0 0 1 1h4.51a4.72 4.72 0 0 1-2.039 3.1v.001a2.547 2.547 0 0 0 2.548 2.548h.74c1.93-1.776 3.04-4.4 3.04-7.504Z"/><path fill="#00B450" d="M16.702 26.202a9.764 9.764 0 0 0 6.762-2.463l-3.287-2.549a6.188 6.188 0 0 1-9.199-3.235h-.765a2.627 2.627 0 0 0-2.627 2.627v.001a10.205 10.205 0 0 0 9.116 5.62Z"/><path fill="#FFB400" d="M10.974 17.955a6.107 6.107 0 0 1 0-3.906 2.628 2.628 0 0 0-2.627-2.628h-.762a10.213 10.213 0 0 0 0 9.162l3.389-2.628Z"/><path fill="#E60014" d="M16.702 9.836a5.553 5.553 0 0 1 3.255.99.982.982 0 0 0 1.274-.1 91.143 91.143 0 0 0 1.533-1.509 1 1 0 0 0-.096-1.499 9.897 9.897 0 0 0-5.966-1.92 10.2 10.2 0 0 0-9.116 5.623l3.389 2.628a6.101 6.101 0 0 1 5.727-4.213Z"/></g><defs><clipPath id="a"><path fill="#fff" d="M.5 0h32v32H.5z"/></clipPath></defs></svg>
