<svg xmlns="http://www.w3.org/2000/svg" width="24" height="24" fill="none"><g fill="" fill-rule="evenodd" clip-rule="evenodd"><path d="M17.75 15.75v3.5A1.75 1.75 0 0 1 16 21H8a1.75 1.75 0 0 1-1.75-1.75v-3.5A4.75 4.75 0 0 1 11 11h2a4.75 4.75 0 0 1 4.75 4.75Zm-1.5 0A3.247 3.247 0 0 0 13 12.5h-2a3.247 3.247 0 0 0-3.25 3.25v3.5c0 .138.112.25.25.25h8a.25.25 0 0 0 .25-.25v-3.5Z"/><path d="M22.75 13.75v4c0 .464-.184.909-.513 1.237A1.746 1.746 0 0 1 21 19.5h-3c-.464 0-.909-.184-1.237-.513a1.746 1.746 0 0 1-.513-1.237v-4c0-.729.29-1.429.805-1.945A2.755 2.755 0 0 1 19 11h1c.729 0 1.429.29 1.945.805.515.516.805 1.216.805 1.945Zm-1.5 0A1.252 1.252 0 0 0 20 12.5h-1a1.252 1.252 0 0 0-1.25 1.25v4A.25.25 0 0 0 18 18h3a.25.25 0 0 0 .25-.25v-4ZM7.75 13.75v4c0 .464-.184.909-.513 1.237A1.746 1.746 0 0 1 6 19.5H3c-.464 0-.909-.184-1.237-.513a1.746 1.746 0 0 1-.513-1.237v-4c0-.729.29-1.429.805-1.945A2.755 2.755 0 0 1 4 11h1c.729 0 1.429.29 1.945.805.515.516.805 1.216.805 1.945Zm-1.5 0A1.252 1.252 0 0 0 5 12.5H4a1.252 1.252 0 0 0-1.25 1.25v4A.25.25 0 0 0 3 18h3a.25.25 0 0 0 .25-.25v-4ZM12 3c2.07 0 3.75 1.68 3.75 3.75 0 2.07-1.68 3.75-3.75 3.75-2.07 0-3.75-1.68-3.75-3.75C8.25 4.68 9.93 3 12 3Zm0 1.5a2.25 2.25 0 1 0 .002 4.502A2.25 2.25 0 0 0 12 4.5ZM19.5 5.5a2.5 2.5 0 0 1 0 5 2.5 2.5 0 0 1 0-5Zm0 1.5a1 1 0 1 0 0 2 1 1 0 0 0 0-2ZM4.5 5.5a2.5 2.5 0 0 1 0 5 2.5 2.5 0 0 1 0-5Zm0 1.5a1 1 0 1 0 0 2 1 1 0 0 0 0-2Z"/></g></svg>