<svg width="32" height="32" fill="none" xmlns="http://www.w3.org/2000/svg"><g filter="url(#b)" clip-path="url(#a)"><path d="M22.503 4c-2 0-3.9.8-5.3 2.2l-1.2 1.2-1.1-1.1c-2.9-3-7.7-3-10.6-.1l-.1.1c-3 3-3 7.8 0 10.8l11.8 11.9 11.8-11.9c3-3 3-7.8 0-10.8-1.4-1.5-3.3-2.3-5.3-2.3Z" fill="url(#c)"/><path d="m16.358 29.352 11.799-11.898v-.001a8.105 8.105 0 0 0 .006-11.5 7.693 7.693 0 0 0-5.66-2.453c-2.134 0-4.16.854-5.653 2.346l-.847.847-.743-.744C12.164 2.75 7.045 2.751 3.95 5.846l-.1.1a8.105 8.105 0 0 0 0 11.508l11.798 11.898.355.358.355-.358Z" stroke="#fff"/></g><defs><linearGradient id="c" x1="9.4" y1="35.973" x2="36.2" y2="21.773" gradientUnits="userSpaceOnUse"><stop stop-color="#CF00AD"/><stop offset=".349" stop-color="#E1004C"/><stop offset="1" stop-color="#F8479E"/></linearGradient><clipPath id="a"><path fill="#fff" d="M0 0h32v32H0z"/></clipPath><filter id="b" x="-7.047" y="-1" width="46.1" height="43.42" filterUnits="userSpaceOnUse" color-interpolation-filters="sRGB"><feFlood flood-opacity="0" result="BackgroundImageFix"/><feColorMatrix in="SourceAlpha" values="0 0 0 0 0 0 0 0 0 0 0 0 0 0 0 0 0 0 127 0" result="hardAlpha"/><feOffset dy="4"/><feGaussianBlur stdDeviation="4"/><feComposite in2="hardAlpha" operator="out"/><feColorMatrix values="0 0 0 0 1 0 0 0 0 1 0 0 0 0 1 0 0 0 0.2 0"/><feBlend in2="BackgroundImageFix" result="effect1_dropShadow_4373_53186"/><feBlend in="SourceGraphic" in2="effect1_dropShadow_4373_53186" result="shape"/><feColorMatrix in="SourceAlpha" values="0 0 0 0 0 0 0 0 0 0 0 0 0 0 0 0 0 0 127 0" result="hardAlpha"/><feOffset dy="1"/><feGaussianBlur stdDeviation="2"/><feComposite in2="hardAlpha" operator="arithmetic" k2="-1" k3="1"/><feColorMatrix values="0 0 0 0 1 0 0 0 0 1 0 0 0 0 1 0 0 0 0.57 0"/><feBlend in2="shape" result="effect2_innerShadow_4373_53186"/><feColorMatrix in="SourceAlpha" values="0 0 0 0 0 0 0 0 0 0 0 0 0 0 0 0 0 0 127 0" result="hardAlpha"/><feOffset dy="-1"/><feGaussianBlur stdDeviation="1"/><feComposite in2="hardAlpha" operator="arithmetic" k2="-1" k3="1"/><feColorMatrix values="0 0 0 0 0.55 0 0 0 0 0.0504167 0 0 0 0 0.194364 0 0 0 0.47 0"/><feBlend in2="effect2_innerShadow_4373_53186" result="effect3_innerShadow_4373_53186"/></filter></defs></svg>