<svg width="18" height="16" fill="none" xmlns="http://www.w3.org/2000/svg"><path fill-rule="evenodd" clip-rule="evenodd" d="M9 2.09c2.104-2.625 5.604-2.457 7.426-.882 1.936 1.67 2.07 5.011.14 8.349-1.275 2.355-4.527 4.731-7.254 6.301a.626.626 0 0 1-.623 0C5.964 14.29 2.714 11.915 1.44 9.567c-1.935-3.344-1.802-6.688.134-8.36C3.397-.366 6.896-.534 9 2.09Zm-.54 1.418C6.94.884 3.91.841 2.39 2.153c-.746.645-1.1 1.62-1.1 2.747 0 1.232.418 2.636 1.233 4.043l.009.016C3.668 11.06 6.53 13.14 9 14.593c2.47-1.454 5.333-3.534 6.468-5.634l.009-.016c.815-1.407 1.232-2.811 1.232-4.043 0-1.127-.354-2.102-1.1-2.747C14.09.841 11.06.884 9.541 3.508a.624.624 0 0 1-1.082 0Z" fill=""/></svg>