<svg width="18" height="16" fill="none" xmlns="http://www.w3.org/2000/svg"><path fill-rule="evenodd" clip-rule="evenodd" d="M9 2.09c2.103-2.625 5.603-2.457 7.425-.882 1.936 1.67 2.07 5.011.14 8.349-1.275 2.355-4.527 4.731-7.254 6.301a.626.626 0 0 1-.623 0c-2.725-1.569-5.975-3.943-7.249-6.291-1.935-3.344-1.802-6.688.134-8.36C3.396-.366 6.895-.534 9 2.09Zm-.542 1.418C6.94.884 3.91.841 2.39 2.153c-.746.645-1.1 1.62-1.1 2.747 0 1.232.418 2.636 1.233 4.043l.009.016c1.135 2.1 3.998 4.18 6.467 5.634 2.47-1.454 5.333-3.534 6.468-5.634l.009-.016c.815-1.407 1.232-2.811 1.232-4.043 0-1.127-.354-2.102-1.1-2.747C14.09.841 11.06.884 9.54 3.508a.624.624 0 0 1-1.082 0Z" fill=""/></svg>