<svg xmlns="http://www.w3.org/2000/svg" width="20" height="20" fill="none"><path stroke="#75828A" stroke-linecap="round" stroke-linejoin="round" stroke-width="1.5" d="M10 6.668v3.333l2.083 2.084"/><path fill="#75828A" d="m3.615 5.726-.625.003a.625.625 0 0 0 .622.622l.003-.625Zm2.118.635a.625.625 0 1 0 .006-1.25l-.006 1.25ZM4.23 3.601a.625.625 0 0 0-1.25.007l1.25-.007Zm-1.104 6.4a.625.625 0 0 0-1.25 0h1.25Zm10.938 7.037a.624.624 0 0 0-.143-1.158.623.623 0 0 0-.482.076l.624 1.082Zm1.893-3.6a.626.626 0 1 0 1.082.625l-1.082-.625ZM4.283 4.226a.625.625 0 1 0 .88.888l-.88-.888Zm11.435.055c-3.183-3.183-8.327-3.215-11.49-.052l.884.882c2.666-2.665 7.019-2.65 9.723.055l.883-.885ZM4.228 4.23 3.173 5.284l.884.883 1.055-1.054-.884-.884Zm-.616 2.122 2.121.01.006-1.25-2.12-.01-.007 1.25Zm.628-.628-.01-2.122-1.25.007.01 2.121 1.25-.006ZM10 3.126A6.875 6.875 0 0 1 16.875 10h1.25A8.125 8.125 0 0 0 10 1.876v1.25Zm0 13.75A6.875 6.875 0 0 1 3.125 10h-1.25A8.125 8.125 0 0 0 10 18.126v-1.25Zm3.438-.92a6.841 6.841 0 0 1-3.438.92v1.25c1.48 0 2.867-.396 4.063-1.088l-.626-1.082Zm3.437-5.955a6.84 6.84 0 0 1-.92 3.437l1.083.625a8.09 8.09 0 0 0 1.087-4.062h-1.25ZM5.163 5.114A6.85 6.85 0 0 1 10 3.126v-1.25a8.1 8.1 0 0 0-5.717 2.35l.88.888Z"/></svg>