<svg xmlns="http://www.w3.org/2000/svg" width="20" height="21" fill="none"><path fill="" stroke="" stroke-width=".1" d="m10.575 2.263 7.313 6.216a.887.887 0 0 1 .312.676v9.72a.325.325 0 0 1-.325.325H13.75a.325.325 0 0 1-.325-.325v-5.25A1.926 1.926 0 0 0 11.5 11.7H8.125A1.925 1.925 0 0 0 6.2 13.625v5.25a.325.325 0 0 1-.325.325h-3.75a.325.325 0 0 1-.325-.325v-9.72a.887.887 0 0 1 .312-.676l7.313-6.216a.887.887 0 0 1 1.15 0Zm8.349 4.997-.033.038.033-.038-7.313-6.215a2.487 2.487 0 0 0-3.222 0L1.076 7.26A2.487 2.487 0 0 0 .2 9.155v9.72A1.925 1.925 0 0 0 2.125 20.8h3.75A1.925 1.925 0 0 0 7.8 18.875v-5.25a.325.325 0 0 1 .325-.325H11.5a.325.325 0 0 1 .325.325v5.25A1.925 1.925 0 0 0 13.75 20.8h4.125a1.925 1.925 0 0 0 1.925-1.925v-9.72a2.487 2.487 0 0 0-.876-1.895Z"/></svg>
