<svg xmlns="http://www.w3.org/2000/svg" width="44" height="45" fill="none"><g filter="url(#a)"><rect width="44" height="44" y=".25" fill="url(#b)" rx="22"/><g clip-path="url(#c)"><path fill="#fff" d="m33.353 20.689-.002-.002-9.79-9.79A2.194 2.194 0 0 0 22 10.25c-.59 0-1.145.23-1.563.647l-9.784 9.785-.01.01a2.212 2.212 0 0 0 .004 3.12 2.197 2.197 0 0 0 1.534.648h.39v7.204a2.589 2.589 0 0 0 2.586 2.586h3.83a.703.703 0 0 0 .704-.703v-5.649c0-.65.529-1.18 1.18-1.18h2.258c.651 0 1.18.53 1.18 1.18v5.649c0 .388.315.703.703.703h3.83a2.589 2.589 0 0 0 2.587-2.586V24.46h.361c.59 0 1.145-.23 1.563-.648.86-.86.86-2.262 0-3.123Z"/></g></g><defs><linearGradient id="b" x1="11.66" x2="55.635" y1="56.523" y2="35.793" gradientUnits="userSpaceOnUse"><stop stop-color="#CF00AD"/><stop offset=".349" stop-color="#E1004C"/><stop offset="1" stop-color="#F8479E"/></linearGradient><clipPath id="c"><path fill="#fff" d="M10 10.25h24v24H10z"/></clipPath><filter id="a" width="44" height="48" x="0" y="-1.75" color-interpolation-filters="sRGB" filterUnits="userSpaceOnUse"><feFlood flood-opacity="0" result="BackgroundImageFix"/><feBlend in="SourceGraphic" in2="BackgroundImageFix" result="shape"/><feColorMatrix in="SourceAlpha" result="hardAlpha" values="0 0 0 0 0 0 0 0 0 0 0 0 0 0 0 0 0 0 127 0"/><feOffset dy="-2"/><feGaussianBlur stdDeviation="3"/><feComposite in2="hardAlpha" k2="-1" k3="1" operator="arithmetic"/><feColorMatrix values="0 0 0 0 0 0 0 0 0 0 0 0 0 0 0 0 0 0 0.2 0"/><feBlend in2="shape" result="effect1_innerShadow_2641_127982"/><feColorMatrix in="SourceAlpha" result="hardAlpha" values="0 0 0 0 0 0 0 0 0 0 0 0 0 0 0 0 0 0 127 0"/><feOffset dy="2"/><feGaussianBlur stdDeviation="3"/><feComposite in2="hardAlpha" k2="-1" k3="1" operator="arithmetic"/><feColorMatrix values="0 0 0 0 1 0 0 0 0 1 0 0 0 0 1 0 0 0 0.2 0"/><feBlend in2="effect1_innerShadow_2641_127982" result="effect2_innerShadow_2641_127982"/></filter></defs></svg>
