<svg width="33" height="34" fill="none" xmlns="http://www.w3.org/2000/svg"><g fill-rule="evenodd" clip-rule="evenodd"><path d="M16.5 8.84a5.836 5.836 0 0 0-5.833 5.834 5.835 5.835 0 0 0 5.833 5.834 5.835 5.835 0 0 0 5.833-5.834A5.835 5.835 0 0 0 16.5 8.841Zm0 2.5a3.335 3.335 0 0 1 0 6.668 3.335 3.335 0 0 1 0-6.667Z" fill=""/><path d="m8.217 27.247 2.461-2.462c.39-.39.92-.61 1.474-.61h8.696c.554 0 1.084.22 1.474.61l2.461 2.462a1.25 1.25 0 0 0 1.767-1.768l-2.46-2.46a4.586 4.586 0 0 0-3.242-1.344h-8.696a4.586 4.586 0 0 0-3.242 1.343l-2.46 2.46a1.25 1.25 0 0 0 1.767 1.768Z" fill=""/><path d="M32.75 14.616a7.92 7.92 0 0 0-3.122-6.3l-8.333-6.343a7.916 7.916 0 0 0-9.59 0L3.372 8.316a7.92 7.92 0 0 0-3.122 6.3v11.11a7.916 7.916 0 0 0 7.917 7.917h16.666a7.916 7.916 0 0 0 7.917-7.917v-11.11Zm-2.5 0v11.11a5.417 5.417 0 0 1-5.417 5.417H8.167a5.417 5.417 0 0 1-5.417-5.417v-11.11c0-1.691.79-3.285 2.135-4.31l8.333-6.343a5.416 5.416 0 0 1 6.564 0l8.333 6.343a5.418 5.418 0 0 1 2.135 4.31Z" fill=""/></g><defs><linearGradient id="a" x1="13.758" y1="23.762" x2="25.419" y2="18.265" gradientUnits="userSpaceOnUse"><stop stop-color="#CF00AD"/><stop offset=".349" stop-color="#E1004C"/><stop offset="1" stop-color="#F8479E"/></linearGradient><linearGradient id="b" x1="11.604" y1="29.269" x2="18.417" y2="18.002" gradientUnits="userSpaceOnUse"><stop stop-color="#CF00AD"/><stop offset=".349" stop-color="#E1004C"/><stop offset="1" stop-color="#F8479E"/></linearGradient><linearGradient id="c" x1="8.863" y1="42.928" x2="41.623" y2="27.85" gradientUnits="userSpaceOnUse"><stop stop-color="#CF00AD"/><stop offset=".349" stop-color="#E1004C"/><stop offset="1" stop-color="#F8479E"/></linearGradient></defs></svg>