<svg xmlns="http://www.w3.org/2000/svg" width="22" height="22" fill="none"><path fill="#5E686E" d="M10.973 4.75a1 1 0 1 0 0 2 1 1 0 0 0 0-2Z"/><path fill="#5E686E" fill-rule="evenodd" d="M11 21.75C5.067 21.75.25 16.933.25 11S5.067.25 11 .25 21.75 5.067 21.75 11 16.933 21.75 11 21.75Zm0-1.5c5.105 0 9.25-4.145 9.25-9.25S16.105 1.75 11 1.75 1.75 5.895 1.75 11s4.145 9.25 9.25 9.25Z" clip-rule="evenodd"/><path fill="#5E686E" fill-rule="evenodd" d="M10.25 9.25a.75.75 0 0 1 1.5 0v8a.75.75 0 0 1-1.5 0v-8Z" clip-rule="evenodd"/></svg>
