<svg xmlns="http://www.w3.org/2000/svg" width="24" height="24" fill="none"><path fill="#5E686E" fill-rule="evenodd" d="M9.484 17.422a2.055 2.055 0 0 0 2.905-2.905l1.063-1.064a5.533 5.533 0 1 0-1.732-8.997 5.535 5.535 0 0 0-1.173 6.092l-6.205 6.205a2.054 2.054 0 0 0 1.802 3.477l.35.35a2.056 2.056 0 0 0 2.905-2.906l-.085-.083.17-.17Zm.53-1.591a.75.75 0 0 0-1.061 0l-1.23 1.229a.752.752 0 0 0 0 1.06l.615.616a.553.553 0 1 1-.784.784l-.667-.667a.75.75 0 0 0-.853-.147.555.555 0 0 1-.632-.892l6.584-6.584a.751.751 0 0 0 .125-.896 4.034 4.034 0 0 1 6.373-4.818 4.034 4.034 0 0 1-4.818 6.373.751.751 0 0 0-.896.125l-1.972 1.972a.75.75 0 0 0 0 1.06l.516.517a.553.553 0 1 1-.784.784l-.516-.516ZM13.565 6.3a2.925 2.925 0 0 0 0 4.135 2.925 2.925 0 0 0 4.135 0 2.925 2.925 0 0 0 0-4.135 2.925 2.925 0 0 0-4.135 0Zm1.06 1.06a1.424 1.424 0 1 1 2.014 2.016 1.424 1.424 0 0 1-2.014-2.015Z" clip-rule="evenodd"/></svg>