<svg width="16" height="12" fill="none" xmlns="http://www.w3.org/2000/svg"><g fill-rule="evenodd" clip-rule="evenodd" fill="#D94B73"><path d="M15.917 2.063V9.5a1.684 1.684 0 0 1-1.688 1.688H2.188A1.691 1.691 0 0 1 .5 9.5V2.063A1.684 1.684 0 0 1 2.188.376L14.229.375a1.692 1.692 0 0 1 1.688 1.688Zm-1.25 0a.437.437 0 0 0-.438-.438H2.188a.438.438 0 0 0-.438.438V9.5a.437.437 0 0 0 .438.438h12.041a.437.437 0 0 0 .438-.438V2.063Z"/><path d="M14.562.765a.626.626 0 0 1 .75 1L9.007 6.494a1.333 1.333 0 0 1-1.6 0L1.103 1.765a.626.626 0 0 1 .75-1l6.304 4.729c.03.022.07.022.1 0L14.562.765Z"/><path d="M15.433 9.798a.625.625 0 0 1-.942.821L9.862 5.307a.626.626 0 0 1 .944-.821l4.627 5.312ZM1.926 10.62a.625.625 0 0 1-.942-.822L5.61 4.486a.626.626 0 0 1 .944.82L1.926 10.62Z"/></g></svg>