<svg xmlns="http://www.w3.org/2000/svg" width="33" height="32" fill="none"><path fill="#E37896" fill-rule="evenodd" d="M28.835 18.667v-2c0-.972-.387-1.906-1.074-2.594A3.673 3.673 0 0 0 25.168 13H7.835c-.972 0-1.906.387-2.594 1.073a3.673 3.673 0 0 0-1.073 2.594v2a1 1 0 0 0 2 0v-2A1.67 1.67 0 0 1 7.835 15h17.333a1.67 1.67 0 0 1 1.667 1.667v2a1 1 0 0 0 2 0Z" clip-rule="evenodd"/><path fill="#E37896" fill-rule="evenodd" d="M28.501 17.668h-2a2.333 2.333 0 0 0-2.333 2.333v3.334c0 .184-.15.333-.333.333H9.168a.334.334 0 0 1-.333-.333V20A2.333 2.333 0 0 0 6.5 17.668h-2a2.333 2.333 0 0 0-2.333 2.333v5.334c0 .972.387 1.905 1.073 2.593a3.673 3.673 0 0 0 2.594 1.073h21.333c.972 0 1.905-.386 2.593-1.073a3.673 3.673 0 0 0 1.074-2.593V20a2.333 2.333 0 0 0-2.334-2.333Zm-2 2h2c.184 0 .334.15.334.333v5.334A1.67 1.67 0 0 1 27.168 27H5.835a1.67 1.67 0 0 1-1.667-1.666V20c0-.184.15-.333.333-.333h2c.184 0 .334.15.334.333v3.334a2.334 2.334 0 0 0 2.333 2.333h14.667a2.333 2.333 0 0 0 2.333-2.333V20c0-.184.15-.333.333-.333Z" clip-rule="evenodd"/><path fill="#E37896" fill-rule="evenodd" d="m24.942 28.447.666 1.333a1 1 0 1 0 1.79-.893l-.667-1.333a1 1 0 1 0-1.79.893ZM6.272 27.554l-.666 1.333a1 1 0 1 0 1.789.893l.667-1.333a1 1 0 1 0-1.79-.893ZM17.501 2.334a1 1 0 0 0-1-1H3.168a1 1 0 0 0-1 1v8.667a1 1 0 0 0 1 1h13.333a1 1 0 0 0 1-1V2.334Zm-2 1v6.667H4.168V3.334h11.333Z" clip-rule="evenodd"/><path fill="#E37896" fill-rule="evenodd" d="m3.783 8.647 2.83-2.205a.335.335 0 0 1 .415.004L9.872 8.75a1 1 0 1 0 1.259-1.553L8.288 4.892a2.333 2.333 0 0 0-2.904-.028L2.554 7.07a1.001 1.001 0 0 0 1.229 1.577Z" clip-rule="evenodd"/><path fill="#E37896" fill-rule="evenodd" d="m6.816 11.813 4.825-3.447a.333.333 0 0 1 .387 0l3.892 2.78a1 1 0 1 0 1.162-1.626L13.19 6.74a2.331 2.331 0 0 0-2.712 0l-4.825 3.446a1 1 0 1 0 1.163 1.627ZM28.17 2.359a1.002 1.002 0 0 0-.952-.691h-4.101c-.433 0-.817.279-.952.69l-1.948 6a1.001 1.001 0 0 0 .95 1.31h8a1.001 1.001 0 0 0 .951-1.31l-1.948-6Zm-1.678 1.309 1.3 4h-5.248l1.3-4h2.648Z" clip-rule="evenodd"/><path fill="#E37896" fill-rule="evenodd" d="M24.168 8.668v5.333a1 1 0 0 0 2 0V8.668a1 1 0 0 0-2 0Z" clip-rule="evenodd"/></svg>