<svg xmlns="http://www.w3.org/2000/svg" width="69" height="68" fill="none"><rect width="68" height="68" x=".5" fill="#FAE9EE" rx="34"/><path fill="#D01E50" fill-rule="evenodd" d="M34.131 44.688c-5.9 0-10.688-4.788-10.688-10.688s4.788-10.688 10.688-10.688c5.897 0 10.688 4.788 10.688 10.688 0 3.258-1.46 6.176-3.763 8.136a1.688 1.688 0 0 0 2.19 2.57A14.038 14.038 0 0 0 48.193 34c0-7.76-6.302-14.063-14.062-14.063-7.762 0-14.063 6.303-14.063 14.063 0 7.76 6.3 14.063 14.063 14.063a1.688 1.688 0 0 0 0-3.376Z" clip-rule="evenodd"/><path fill="#D01E50" fill-rule="evenodd" d="M47.244 42.437h-4.675v-4.675a1.688 1.688 0 0 0-3.376 0v6.363c0 .931.757 1.687 1.688 1.687h6.363a1.688 1.688 0 0 0 0-3.375Z" clip-rule="evenodd"/></svg>
