<svg xmlns="http://www.w3.org/2000/svg" width="20" height="20" fill="none"><g fill="#75828A" fill-rule="evenodd" clip-rule="evenodd"><path d="M10 1.041a6.462 6.462 0 0 1 6.458 6.458c0 1.76-.96 3.95-2.142 5.934-1.71 2.869-3.847 5.311-3.847 5.311a.623.623 0 0 1-.94 0s-2.137-2.442-3.846-5.311C4.5 11.448 3.54 9.259 3.54 7.499a6.462 6.462 0 0 1 6.458-6.458Zm0 1.25A5.211 5.211 0 0 0 4.79 7.499c0 1.575.908 3.518 1.965 5.294 1.167 1.957 2.538 3.709 3.243 4.568.705-.86 2.077-2.61 3.244-4.568 1.057-1.776 1.965-3.72 1.965-5.294a5.211 5.211 0 0 0-5.209-5.208Z"/><path d="M10 4.375a3.126 3.126 0 0 1 0 6.25 3.126 3.126 0 0 1 0-6.25Zm0 1.25a1.876 1.876 0 1 0 .001 3.751A1.876 1.876 0 0 0 10 5.625Z"/></g></svg>