<svg width="16" height="18" fill="none" xmlns="http://www.w3.org/2000/svg"><g fill-rule="evenodd" clip-rule="evenodd" fill=""><path d="M15.292 8.583c0-.608-.241-1.191-.67-1.621A2.296 2.296 0 0 0 13 6.29H3c-.608 0-1.191.242-1.621.67-.43.43-.671 1.014-.671 1.622v7.083c0 .607.242 1.19.67 1.62.43.43 1.014.672 1.622.672h10c.607 0 1.19-.242 1.62-.671.43-.43.671-1.014.671-1.621V8.583Zm-1.25 0v7.083a1.043 1.043 0 0 1-1.041 1.042H3a1.043 1.043 0 0 1-1.042-1.042V8.583A1.043 1.043 0 0 1 3.001 7.54h10a1.043 1.043 0 0 1 1.041 1.042Z"/><path d="M8.001.041c-1.374 0-2.69.5-3.661 1.383-.994.904-1.547 2.131-1.547 3.409v2.083c0 .345.28.625.625.625h9.167c.345 0 .625-.28.625-.625V4.833c0-1.278-.554-2.505-1.547-3.409C10.691.541 9.375.041 8.001.041Zm0 1.25c1.058 0 2.073.378 2.821 1.058.725.66 1.138 1.551 1.138 2.484V6.29H4.043V4.833c0-.933.412-1.824 1.137-2.484.749-.68 1.764-1.058 2.821-1.058ZM8 9.207a1.876 1.876 0 1 0 .001 3.751A1.876 1.876 0 0 0 8 9.207Zm0 1.25a.625.625 0 1 1 0 1.25.625.625 0 0 1 0-1.25Z"/><path d="M7.375 12.332v2.083a.625.625 0 0 0 1.25 0v-2.083a.625.625 0 0 0-1.25 0Z"/></g></svg>