<svg xmlns="http://www.w3.org/2000/svg" width="859" height="575" fill="none"><g filter="url(#a)"><path fill="#fff" fill-opacity=".6" d="M839 465.188c0-20.088-6.662-38.735-17.987-53.738l-.666-.677L525.318 50.971l-.333-.339C509.163 30.883 484.848 18 458.118 18c-27.48 0-52.128 13.222-67.949 33.65l.333-.679-109.169 132.987L172.165 50.971l-.333-.339C156.01 30.883 131.695 18 104.965 18c-27.48 0-52.128 13.222-67.949 33.65l.333-.679-295.029 359.802-.333.339C-269.255 426.199-276 444.761-276 464.849c0 48.736 38.721 88.149 86.602 88.149h-.666 942.962c47.381.339 86.102-39.074 86.102-87.81Z"/></g><defs><filter id="a" width="1155" height="575" x="-296" y="0" color-interpolation-filters="sRGB" filterUnits="userSpaceOnUse"><feFlood flood-opacity="0" result="BackgroundImageFix"/><feColorMatrix in="SourceAlpha" result="hardAlpha" values="0 0 0 0 0 0 0 0 0 0 0 0 0 0 0 0 0 0 127 0"/><feOffset dy="2"/><feGaussianBlur stdDeviation="10"/><feComposite in2="hardAlpha" operator="out"/><feColorMatrix values="0 0 0 0 0.811765 0 0 0 0 0.117647 0 0 0 0 0.317647 0 0 0 0.1 0"/><feBlend in2="BackgroundImageFix" result="effect1_dropShadow_1721_84082"/><feBlend in="SourceGraphic" in2="effect1_dropShadow_1721_84082" result="shape"/></filter></defs></svg>
