<svg xmlns="http://www.w3.org/2000/svg" width="204" height="38" fill="none"><path fill="#565656" d="M114.53 9.674c-1.413 0-2.194.801-2.194 2.258 0 1.321.86 2.18 2.194 2.18 1.33 0 2.194-.855 2.194-2.18-.004-1.457-.782-2.258-2.194-2.258Zm0 6.938c-1.094 0-1.95.85-1.95 1.937v16.375c0 1.087.856 1.938 1.95 1.938 1.093 0 1.95-.851 1.95-1.938V18.55a1.926 1.926 0 0 0-1.95-1.938ZM126.867 16.408c-4.23 0-6.861 2.116-6.861 5.524 0 4.153 3.717 5.403 6.704 6.407 2.473.83 3.975 1.428 3.975 2.71 0 1.93-2.291 2.219-3.653 2.219-1.975 0-3.47-.566-4.696-1.788-.491-.488-1.007-.591-1.351-.591a1.826 1.826 0 0 0-1.829 1.816c0 .51.194.848.405 1.14l.008.01.01.011c1.244 1.567 4.03 3.149 7.453 3.149 2.14 0 3.961-.485 5.27-1.404 1.491-1.047 2.28-2.624 2.28-4.565 0-4.025-3.667-5.282-6.614-6.29-2.527-.865-4.062-1.489-4.062-2.824 0-1.467 1.613-1.774 2.965-1.774 1.982 0 3.022.602 3.972 1.51.369.364.806.549 1.308.549a1.826 1.826 0 0 0 1.829-1.816c0-.606-.301-1.005-.413-1.154-1.401-1.83-3.778-2.839-6.7-2.839ZM144.082 16.408c-4.23 0-6.861 2.116-6.861 5.524 0 4.153 3.717 5.403 6.703 6.407 2.474.83 3.976 1.428 3.976 2.71 0 1.93-2.291 2.219-3.653 2.219-1.975 0-3.47-.566-4.696-1.788-.491-.488-1.007-.591-1.352-.591a1.825 1.825 0 0 0-1.828 1.816c0 .51.194.848.405 1.14l.007.01.011.011c1.244 1.567 4.029 3.149 7.453 3.149 2.14 0 3.961-.485 5.27-1.404 1.491-1.047 2.28-2.624 2.28-4.565 0-4.025-3.668-5.282-6.614-6.29-2.528-.865-4.062-1.489-4.062-2.824 0-1.467 1.613-1.774 2.965-1.774 1.982 0 3.022.602 3.972 1.51.369.364.806.549 1.308.549a1.825 1.825 0 0 0 1.828-1.816c0-.606-.301-1.005-.412-1.154-1.405-1.83-3.782-2.839-6.7-2.839ZM162.308 16.37c-4.399 0-6.453 2.182-7.288 3.486l-.004.007-.004.007a1.897 1.897 0 0 0-.294 1.019c0 1 .821 1.816 1.829 1.816.588 0 1.032-.224 1.538-.776l.003-.004.004-.004c1.193-1.342 2.341-1.837 4.223-1.837 2.592 0 4.14 1.417 4.14 3.79v.444h-5.076c-4.782 0-7.754 2.426-7.754 6.332 0 2.002.738 3.654 2.14 4.776 1.334 1.069 3.244 1.635 5.535 1.635 2.065 0 3.915-.648 5.187-1.763a1.91 1.91 0 0 0 3.786-.335v-11.09c-.007-4.63-3.058-7.504-7.965-7.504Zm-.771 17.058c-2.639 0-3.979-.936-3.979-2.781 0-2.3 2.075-2.782 3.814-2.782h5.076v1.048c0 3.12-2.466 4.515-4.911 4.515ZM182.325 7.615c-2.481 0-4.506.805-5.858 2.326-1.19 1.339-1.817 3.155-1.817 5.256v1.735h-.732a1.842 1.842 0 0 0-1.867 1.855c0 1.04.821 1.856 1.867 1.856h.732V34.92c0 1.086.857 1.937 1.95 1.937s1.95-.851 1.95-1.937V20.643h3.044a1.842 1.842 0 0 0 1.867-1.856c0-1.04-.821-1.855-1.867-1.855h-3.044v-1.734c0-2.568 1.269-3.872 3.775-3.872a1.843 1.843 0 0 0 1.868-1.855c0-1.04-.821-1.856-1.868-1.856ZM187.272 9.674c-1.412 0-2.194.801-2.194 2.258 0 1.321.86 2.18 2.194 2.18 1.33 0 2.194-.855 2.194-2.18 0-1.457-.778-2.258-2.194-2.258Zm0 6.938c-1.093 0-1.95.85-1.95 1.937v16.375c0 1.087.857 1.938 1.95 1.938s1.95-.851 1.95-1.938V18.55a1.923 1.923 0 0 0-1.95-1.938ZM202.093 16.447c-2.014 0-3.789.68-5.008 1.856-.118-.969-.925-1.692-1.936-1.692-1.093 0-1.95.851-1.95 1.938v16.375c0 1.086.857 1.937 1.95 1.937a1.924 1.924 0 0 0 1.951-1.937v-9.039c0-3.59 1.821-5.645 4.993-5.645A1.904 1.904 0 0 0 204 18.346a1.907 1.907 0 0 0-1.907-1.899ZM107.406 18.883c-1.398-1.67-3.646-2.514-6.678-2.514-2.585 0-4.575.801-5.926 2.383-1.344-1.525-3.74-2.383-6.553-2.383v-.01c-3.033 0-5.252.847-6.65 2.514-1.09 1.3-1.642 3.073-1.642 5.267v10.77c0 1.086.857 1.937 1.95 1.937 1.094 0 1.95-.85 1.95-1.937V24.667c0-3.351 1.252-4.719 4.395-4.719v.011c3.126 0 4.159 1.325 4.159 4.719V34.92c0 1.086.857 1.937 1.95 1.937s1.95-.851 1.95-1.937V24.15c0-1.354.351-2.39 1.04-3.084.731-.738 1.871-1.108 3.384-1.108 3.144 0 4.424 1.368 4.424 4.719V34.92c0 1.086.856 1.937 1.95 1.937 1.093 0 1.95-.851 1.95-1.937V24.15c-.011-2.194-.563-3.968-1.653-5.268Z"/><path fill="#CF1E51" d="M73.092 31.156c0-1.292-.43-2.482-1.169-3.433l-.036-.043L52.54 4.645l-.029-.028a5.655 5.655 0 0 0-4.395-2.084 5.66 5.66 0 0 0-4.445 2.148l.025-.036-7.148 8.52-7.16-8.52-.02-.028a5.655 5.655 0 0 0-4.396-2.084 5.66 5.66 0 0 0-4.445 2.148l.029-.036L1.208 27.68l-.021.029A5.594 5.594 0 0 0 0 31.156c0 3.113 2.542 5.638 5.675 5.638l-.047.004h61.8l-.011-.004c3.137-.003 5.675-2.525 5.675-5.638Zm-52.956.99H5.647h.024-.046.021a.996.996 0 0 1-.975-.99c0-.192.057-.373.15-.527l-.014.018L24.241 7.473l.003-.004a1.007 1.007 0 0 1 1.47.029l.007.01 7.783 9.274-12.597 14.994.036-.04a.998.998 0 0 1-.807.41Zm24.13 0H28.829h.004a1.016 1.016 0 0 1-1.014-1 .99.99 0 0 1 .172-.556l7.782-9.263a.998.998 0 0 1 .775-.356c.3 0 .573.128.756.338l7.83 9.349c.128.174.128.363.128.48 0 .55-.448 1.009-.996 1.009Zm23.154 0H52.948a.989.989 0 0 1-.727-.32l.01.014-.025-.028c.004.003.008.01.015.014L39.59 16.779l7.797-9.292.015-.018a.999.999 0 0 1 1.466.029l.018.021L68.28 30.658l.014.018c.111.156.126.306.126.484a.998.998 0 0 1-1 .987Z"/></svg>