<svg xmlns="http://www.w3.org/2000/svg" width="95" height="12" fill="none"><g fill="#3955A4"><path d="M72.461 3.522a.49.49 0 0 1 .478-.478c.263 0 .479.223.479.478v1.554h.964c.255 0 .446.191.446.446a.436.436 0 0 1-.446.446h-.965v4.088c0 .637.36.98.861.98a.45.45 0 0 1 .462.446.45.45 0 0 1-.462.446c-1.171 0-1.809-.788-1.809-1.864V5.976h-.581a.436.436 0 0 1-.447-.446c0-.255.192-.446.447-.446h.581V3.522h-.008ZM78.564 4.868c2.374 0 2.828 1.88 2.828 2.893 0 .43 0 .948-.59.948h-4.326c0 1.466.844 2.414 2.239 2.414.86 0 1.362-.327 1.777-.637a.434.434 0 0 1 .263-.088c.239 0 .43.191.43.43 0 .16-.072.255-.16.343-.223.223-.995.829-2.31.829-1.968 0-3.203-1.084-3.203-3.57 0-2.287 1.123-3.562 3.052-3.562Zm0 .86c-1.291 0-2 .83-2.088 2.152h3.984c0-1.068-.367-2.151-1.896-2.151ZM85.212 4.868c1.323 0 2.048.693 2.279 1.02.072.104.104.175.104.279 0 .255-.192.43-.43.43-.152 0-.256-.056-.36-.175-.222-.255-.62-.693-1.6-.693-1.363 0-2.088.876-2.088 2.7 0 1.857.725 2.71 2.087 2.71.86 0 1.379-.382 1.721-.637.104-.072.175-.104.28-.104.238 0 .43.191.43.43 0 .136-.048.24-.192.367a3.401 3.401 0 0 1-2.239.797c-1.912 0-3.052-1.14-3.052-3.57 0-2.43 1.148-3.554 3.06-3.554ZM94.364 7.49v3.96a.474.474 0 0 1-.478.478.47.47 0 0 1-.478-.478V7.69c0-1.172-.342-1.969-1.777-1.969-1.466 0-1.968.893-1.968 2.072v3.657a.474.474 0 0 1-.478.478.47.47 0 0 1-.478-.478V1.73c0-.264.207-.479.478-.479a.47.47 0 0 1 .478.478v4.183c.28-.565 1.004-1.036 1.968-1.036 2.287-.008 2.733 1.355 2.733 2.614Z"/></g><path fill="#555" d="M39.53 2.485c-.486 0-.757.28-.757.781 0 .462.295.757.757.757.463 0 .757-.295.757-.757 0-.502-.27-.78-.757-.78Zm0 2.407a.663.663 0 0 0-.669.669v5.69c0 .374.295.669.67.669.374 0 .669-.295.669-.67V5.561a.663.663 0 0 0-.67-.67ZM43.794 4.82c-1.458 0-2.366.733-2.366 1.92 0 1.443 1.283 1.873 2.31 2.224.853.287 1.37.494 1.37.94 0 .67-.788.773-1.258.773-.685 0-1.195-.2-1.618-.622a.666.666 0 0 0-.47-.207.626.626 0 0 0-.486 1.028v.016c.43.542 1.395 1.092 2.574 1.092.741 0 1.37-.168 1.817-.486.518-.367.788-.909.788-1.586 0-1.394-1.266-1.833-2.278-2.183-.869-.303-1.403-.518-1.403-.98 0-.51.558-.614 1.02-.614.685 0 1.044.207 1.37.526a.62.62 0 0 0 .455.191.626.626 0 0 0 .486-1.028c-.486-.653-1.307-1.004-2.31-1.004ZM49.728 4.82c-1.458 0-2.367.733-2.367 1.92 0 1.443 1.283 1.873 2.311 2.224.853.287 1.37.494 1.37.94 0 .67-.788.773-1.259.773-.685 0-1.195-.2-1.617-.622a.666.666 0 0 0-.47-.207.626.626 0 0 0-.486 1.028v.016c.43.542 1.394 1.092 2.573 1.092.742 0 1.371-.168 1.817-.486.518-.367.79-.909.79-1.586 0-1.394-1.268-1.833-2.28-2.183-.868-.303-1.402-.518-1.402-.98 0-.51.558-.614 1.02-.614.685 0 1.044.207 1.37.526a.62.62 0 0 0 .455.191.626.626 0 0 0 .486-1.028c-.486-.653-1.307-1.004-2.311-1.004ZM56.016 4.813c-1.514 0-2.223.756-2.518 1.21a.654.654 0 0 0-.104.351c0 .35.28.63.63.63.199 0 .358-.08.533-.271.415-.462.805-.638 1.459-.638.892 0 1.426.494 1.426 1.315v.151h-1.753c-1.65 0-2.677.845-2.677 2.2 0 .693.255 1.267.74 1.657.463.375 1.124.566 1.913.566.71 0 1.355-.223 1.793-.614a.658.658 0 0 0 1.307-.12V7.403c0-1.593-1.052-2.59-2.75-2.59Zm-.263 5.92c-.909 0-1.37-.327-1.37-.964 0-.797.716-.964 1.314-.964h1.753v.366c0 1.076-.853 1.562-1.697 1.562ZM62.925 1.769c-.853 0-1.554.278-2.024.804-.406.462-.63 1.1-.63 1.825v.606h-.255a.643.643 0 0 0-.645.645c0 .359.287.645.645.645h.256v4.957c0 .374.294.669.669.669.374 0 .67-.295.67-.67V6.295h1.05a.643.643 0 0 0 .646-.645.643.643 0 0 0-.645-.645H61.61v-.598c0-.892.438-1.347 1.307-1.347a.643.643 0 0 0 .645-.645.631.631 0 0 0-.637-.645ZM64.64 2.485c-.486 0-.757.28-.757.781 0 .462.295.757.757.757s.757-.295.757-.757c0-.502-.271-.78-.757-.78Zm0 2.407a.663.663 0 0 0-.67.669v5.69c0 .374.295.669.67.669.374 0 .67-.295.67-.67V5.561a.663.663 0 0 0-.67-.67ZM69.747 4.836c-.693 0-1.306.239-1.729.645a.666.666 0 0 0-.669-.59.663.663 0 0 0-.67.67v5.69c0 .374.296.669.67.669.374 0 .67-.295.67-.67V8.11c0-1.242.629-1.96 1.72-1.96a.66.66 0 0 0 .662-.66.646.646 0 0 0-.654-.654ZM37.076 5.681c-.486-.581-1.26-.876-2.303-.876-.893 0-1.578.279-2.048.828-.462-.526-1.29-.828-2.263-.828-1.044 0-1.809.295-2.295.876-.374.454-.565 1.068-.565 1.833v3.737c0 .374.294.67.669.67.374 0 .67-.296.67-.67V7.689c0-1.163.43-1.641 1.513-1.641 1.076 0 1.434.462 1.434 1.641v3.562c0 .374.295.67.67.67.374 0 .67-.296.67-.67V7.514c0-.47.119-.829.358-1.076.255-.255.645-.382 1.17-.382 1.085 0 1.53.478 1.53 1.641v3.562c0 .374.296.67.67.67.375 0 .67-.296.67-.67V7.514c.015-.765-.176-1.379-.55-1.833Z"/><path fill="#3955A4" d="M25.235 9.944c0-.446-.151-.86-.406-1.195l-.016-.016-6.678-8-.008-.008A1.965 1.965 0 0 0 16.614 0a1.96 1.96 0 0 0-1.537.749l.008-.016-2.47 2.956-2.47-2.956-.009-.008A1.965 1.965 0 0 0 8.621 0a1.96 1.96 0 0 0-1.537.749l.008-.016-6.678 8-.008.008a1.959 1.959 0 0 0 1.554 3.155h-.016 21.33a1.952 1.952 0 0 0 1.961-1.952Zm-18.279.343H1.952h.008-.016.008a.349.349 0 0 1-.334-.343.31.31 0 0 1 .055-.183l-.008.008 6.71-8.048a.338.338 0 0 1 .502.016l2.685 3.22-4.35 5.21.007-.016a.31.31 0 0 1-.263.136Zm8.327 0h-5.33a.354.354 0 0 1-.351-.35c0-.072.023-.136.055-.192l2.686-3.22a.34.34 0 0 1 .27-.127c.104 0 .2.048.264.12l2.7 3.25a.258.258 0 0 1 .049.168c0 .191-.152.35-.343.35Zm7.992 0h-4.996a.331.331 0 0 1-.255-.112v.008l-.008-.008.008.008-4.359-5.227L16.36 1.73l.007-.008a.338.338 0 0 1 .502.016l.009.008 6.693 8.04.008.008c.04.056.04.103.04.167a.337.337 0 0 1-.343.327Z"/></svg>