<svg xmlns="http://www.w3.org/2000/svg" width="173" height="32" fill="none"><g clip-path="url(#a)"><path fill="#fff" d="M96.736 8.146c-1.193 0-1.853.675-1.853 1.902 0 1.113.727 1.835 1.853 1.835 1.123 0 1.853-.72 1.853-1.835-.003-1.227-.66-1.902-1.853-1.902Zm0 5.843c-.924 0-1.647.716-1.647 1.631v13.79c0 .915.723 1.632 1.647 1.632.923 0 1.647-.717 1.647-1.632V15.62a1.624 1.624 0 0 0-1.647-1.631ZM107.158 13.816c-3.573 0-5.796 1.782-5.796 4.652 0 3.497 3.14 4.55 5.662 5.395 2.09.7 3.358 1.203 3.358 2.283 0 1.625-1.934 1.868-3.085 1.868-1.668 0-2.931-.477-3.967-1.505-.415-.411-.851-.498-1.141-.498a1.54 1.54 0 0 0-1.544 1.53c0 .428.163.713.342.959l.006.009.009.009c1.051 1.32 3.403 2.651 6.295 2.651 1.808 0 3.346-.408 4.451-1.181 1.26-.882 1.926-2.21 1.926-3.845 0-3.39-3.098-4.448-5.587-5.297-2.134-.729-3.43-1.253-3.43-2.378 0-1.236 1.362-1.494 2.504-1.494 1.674 0 2.552.507 3.355 1.272.311.306.681.462 1.105.462a1.54 1.54 0 0 0 1.544-1.53c0-.51-.254-.845-.348-.971-1.184-1.542-3.192-2.39-5.659-2.39ZM121.697 13.816c-3.573 0-5.796 1.782-5.796 4.652 0 3.497 3.14 4.55 5.662 5.395 2.09.7 3.358 1.203 3.358 2.283 0 1.625-1.934 1.868-3.085 1.868-1.668 0-2.931-.477-3.967-1.505-.414-.411-.85-.498-1.141-.498a1.54 1.54 0 0 0-1.544 1.53c0 .428.163.713.342.959l.006.009.009.009c1.051 1.32 3.403 2.651 6.295 2.651 1.808 0 3.346-.408 4.451-1.181 1.26-.882 1.926-2.21 1.926-3.845 0-3.39-3.098-4.448-5.587-5.297-2.134-.729-3.43-1.253-3.43-2.378 0-1.236 1.362-1.494 2.504-1.494 1.674 0 2.552.507 3.355 1.272a1.53 1.53 0 0 0 1.105.462 1.54 1.54 0 0 0 1.544-1.53c0-.51-.254-.845-.348-.971-1.187-1.542-3.195-2.39-5.659-2.39ZM137.091 13.783c-3.715 0-5.45 1.839-6.155 2.936l-.003.006-.003.006a1.592 1.592 0 0 0-.249.858c0 .843.694 1.53 1.545 1.53.496 0 .872-.19 1.299-.654l.003-.003.003-.003c1.008-1.13 1.977-1.548 3.567-1.548 2.189 0 3.497 1.194 3.497 3.191v.375h-4.288c-4.039 0-6.549 2.043-6.549 5.333 0 1.685.624 3.077 1.807 4.021 1.127.9 2.741 1.377 4.676 1.377 1.744 0 3.306-.546 4.381-1.485a1.61 1.61 0 0 0 1.587 1.314c.887 0 1.611-.717 1.611-1.595v-9.34c-.007-3.899-2.583-6.319-6.729-6.319Zm-.651 14.366c-2.228 0-3.361-.789-3.361-2.342 0-1.938 1.754-2.343 3.222-2.343h4.288v.882c0 2.627-2.083 3.803-4.149 3.803ZM153.998 6.412c-2.095 0-3.806.678-4.947 1.959-1.006 1.127-1.535 2.657-1.535 4.426v1.46h-.618c-.884 0-1.578.688-1.578 1.563 0 .876.694 1.563 1.578 1.563h.618v12.023c0 .915.723 1.632 1.647 1.632.923 0 1.647-.717 1.647-1.632V17.383h2.571c.884 0 1.577-.687 1.577-1.563 0-.876-.693-1.562-1.577-1.562h-2.571v-1.46c0-2.163 1.072-3.26 3.188-3.26.885 0 1.578-.688 1.578-1.563 0-.876-.693-1.563-1.578-1.563ZM158.177 8.146c-1.193 0-1.853.675-1.853 1.902 0 1.113.727 1.835 1.853 1.835 1.124 0 1.853-.72 1.853-1.835 0-1.227-.657-1.902-1.853-1.902Zm0 5.843c-.923 0-1.647.716-1.647 1.631v13.79c0 .915.724 1.632 1.647 1.632.924 0 1.648-.717 1.648-1.632V15.62c0-.914-.724-1.631-1.648-1.631ZM170.696 13.85c-1.702 0-3.201.572-4.23 1.562-.1-.816-.781-1.424-1.635-1.424-.924 0-1.647.716-1.647 1.631v13.79c0 .915.723 1.631 1.647 1.631.923 0 1.647-.716 1.647-1.631v-7.612c0-3.023 1.538-4.753 4.218-4.753.887 0 1.611-.717 1.611-1.596a1.61 1.61 0 0 0-1.611-1.598ZM90.72 15.902c-1.18-1.407-3.08-2.118-5.641-2.118-2.183 0-3.864.675-5.005 2.007-1.136-1.284-3.158-2.007-5.535-2.007v-.009c-2.562 0-4.436.714-5.617 2.118-.92 1.094-1.387 2.588-1.387 4.435v9.07c0 .914.724 1.631 1.647 1.631.924 0 1.648-.717 1.648-1.631v-8.626c0-2.822 1.056-3.973 3.712-3.973v.009c2.64 0 3.512 1.115 3.512 3.973v8.626c0 .914.724 1.631 1.647 1.631.924 0 1.648-.717 1.648-1.631v-9.07c0-1.14.296-2.012.878-2.597.617-.62 1.58-.932 2.858-.932 2.656 0 3.737 1.151 3.737 3.973v8.626c0 .914.723 1.631 1.647 1.631.923 0 1.647-.717 1.647-1.631v-9.07c-.01-1.847-.475-3.34-1.396-4.435Z"/><path fill="#BE3253" d="M61.737 26.237a4.68 4.68 0 0 0-.988-2.892l-.03-.036L44.377 3.911l-.024-.024a4.782 4.782 0 0 0-3.712-1.754c-1.523 0-2.88.708-3.755 1.808l.021-.03-6.037 7.174-6.047-7.174-.018-.024a4.782 4.782 0 0 0-3.712-1.754c-1.523 0-2.88.708-3.755 1.808l.024-.03L1.02 23.31l-.018.024A4.702 4.702 0 0 0 0 26.237c0 2.62 2.147 4.747 4.793 4.747l-.04.003h52.2l-.01-.003c2.65-.003 4.794-2.126 4.794-4.747Zm-44.73.833H4.77h.021-.04.019a.84.84 0 0 1-.824-.833c0-.162.049-.315.128-.444l-.013.015L20.475 6.293l.003-.003a.852.852 0 0 1 1.241.024l.006.009 6.574 7.81-10.64 12.625.03-.033a.844.844 0 0 1-.681.345Zm20.382 0H24.35h.003a.857.857 0 0 1-.857-.842c0-.174.054-.333.145-.468l6.574-7.801c.154-.186.39-.3.654-.3.254 0 .484.108.639.285l6.613 7.873a.638.638 0 0 1 .109.405.85.85 0 0 1-.842.848Zm19.557 0H44.723a.836.836 0 0 1-.615-.27l.009.012-.021-.024c.003.003.006.01.012.012L33.44 14.13l6.585-7.825.012-.015a.845.845 0 0 1 1.239.024l.015.018 16.381 19.485.012.015c.094.132.106.258.106.408a.842.842 0 0 1-.845.83Z"/></g><defs><clipPath id="a"><path fill="#fff" d="M0 0h172.308v32H0z"/></clipPath></defs></svg>