<svg width="80" height="80" viewBox="0 0 80 80" fill="none" xmlns="http://www.w3.org/2000/svg">
<g clip-path="url(#clip0_6411_155207)">
<path d="M98.727 5.14355H-15.7559V74.8551H98.727V5.14355Z" fill="#F5F5F5"/>
<path d="M93.754 1.04297H-10.791C-15.8771 1.04297 -20 5.03024 -20 9.94911V70.0496C-20 74.9683 -15.8771 78.9558 -10.791 78.9558H93.754C98.8399 78.9558 102.963 74.9685 102.963 70.0496V9.94911C102.963 5.03024 98.8401 1.04297 93.754 1.04297ZM98.7229 74.8547H-15.7599V5.14358H98.7229V74.8547Z" fill="#C8414B"/>
<path d="M58.8706 55.9783C60.6523 55.9783 62.0967 54.5814 62.0967 52.8583C62.0967 51.1351 60.6523 49.7383 58.8706 49.7383C57.0889 49.7383 55.6445 51.1351 55.6445 52.8583C55.6445 54.5814 57.0889 55.9783 58.8706 55.9783Z" fill="#F5F5F5"/>
<path d="M64.5389 34.9445C62.1647 36.8748 60.5678 36.9561 60.5678 36.9561C64.7913 35.2899 64.3499 32.1199 64.3499 32.1199C62.3539 34.66 60.3157 35.3712 60.3157 35.3712C64.56 32.5873 63.8876 28.8483 63.8876 28.8483C62.5009 31.8152 60.7465 32.9733 60.7465 32.9733C64.2764 28.4316 62.5429 25.5055 62.5429 25.5055C61.1562 29.7118 59.99 30.9312 59.99 30.9312C62.7005 23.9206 60.3788 21.8987 60.3788 21.8987C60.3788 25.6579 58.929 27.8119 58.929 27.8119C60.442 22.8538 58.0675 20.0088 58.0675 20.0088C58.0675 20.0088 58.0452 24.0511 57.2402 26.1684C57.0471 25.8846 56.9327 25.9222 56.9327 25.9222C56.5235 28.5187 55.0806 30.3466 54.4576 31.0343C54.3193 30.3873 53.9033 30.1891 53.9033 30.1891C53.9033 30.1891 53.8284 30.8244 53.239 31.7613C52.8529 32.3752 51.0286 33.8066 50.7344 35.0664C50.4986 36.0765 51.5329 36.9155 51.8689 37.1187C52.2052 37.3219 52.5623 37.6878 52.4151 38.2768C52.2681 38.866 51.1753 38.8049 50.3979 38.7847C49.6205 38.7645 49.5156 40.0039 48.6539 39.9635L48.5079 40.8879L48.1704 40.9592C48.1704 40.9592 44.6405 47.762 44.3401 50.0767L41.7408 50.4081L39.1415 50.0767C38.8411 47.762 35.3112 40.9592 35.3112 40.9592L34.9738 40.8879L34.8277 39.9635C33.9663 40.0041 33.8613 38.7645 33.0837 38.7847C32.306 38.8049 31.2135 38.866 31.0666 38.2768C30.9196 37.6875 31.2767 37.3215 31.6127 37.1187C31.9489 36.9155 32.9833 36.0763 32.7472 35.0664C32.453 33.8064 30.6288 32.3752 30.2426 31.7613C29.6532 30.8246 29.5783 30.1891 29.5783 30.1891C29.5783 30.1891 29.1623 30.3873 29.024 31.0343C28.4012 30.3461 26.9584 28.5187 26.5491 25.9222C26.5491 25.9222 26.4348 25.8848 26.2417 26.1684C25.4367 24.0509 25.4144 20.0088 25.4144 20.0088C25.4144 20.0088 23.0401 22.8536 24.5529 27.8119C24.5529 27.8119 23.103 25.6581 23.103 21.8987C23.103 21.8987 20.7814 23.9206 23.4919 30.9312C23.4919 30.9312 22.3259 29.7121 20.9389 25.5055C20.9389 25.5055 19.2054 28.4316 22.7353 32.9733C22.7353 32.9733 20.981 31.8152 19.5943 28.8483C19.5943 28.8483 18.9221 32.5873 23.1662 35.3712C23.1662 35.3712 21.1279 34.66 19.132 32.1199C19.132 32.1199 18.6908 35.2901 22.914 36.9561C22.914 36.9561 21.3172 36.8748 18.9429 34.9445C18.9429 34.9445 18.5227 37.7488 24.0277 39.1914C24.0277 39.1914 21.7793 39.1508 19.4891 37.6673C19.4891 37.6673 19.4259 40.4308 24.1326 40.9796C24.1326 40.9796 22.5778 41.2031 20.8337 40.5936C20.8337 40.5936 20.8969 42.8287 24.9941 43.1132C24.9941 43.1132 23.3761 43.2351 22.3256 42.9913C22.3256 42.9913 22.4306 45.2874 25.6665 44.9014C25.6665 44.9014 24.5738 45.2468 24.2167 45.3483C24.2167 45.3483 24.2798 47.2229 27.6519 46.5523C27.6519 46.5523 27.053 46.913 26.2335 47.035C26.2335 47.035 26.9269 48.5997 29.7426 47.9087L29.1647 48.5184C29.1647 48.5184 31.3394 49.7376 33.0097 48.0611L32.4108 49.0975C32.4108 49.0975 33.8292 49.6157 34.7115 48.2746C34.7115 48.2746 34.4699 50.2862 31.5282 50.6522C31.5282 50.6522 31.6331 51.0789 31.7592 51.2415C31.7592 51.2415 31.57 51.5869 29.8682 51.8714C29.8682 51.8714 30.2253 52.3996 30.6035 52.5624C30.6035 52.5624 29.8682 53.1721 29.469 53.2938C29.469 53.2938 30.0994 53.5985 30.4986 53.6596C30.4986 53.6596 29.6162 54.4927 28.5235 54.5129C27.4308 54.5331 25.477 54.4112 25.477 54.4112C25.477 54.4112 25.4561 53.3953 24.9518 52.5213C24.4475 51.6475 24.2796 51.5815 24.2796 51.5815C24.2796 51.5815 24.3898 50.8806 24.0747 50.5909C23.7596 50.3013 23.5862 50.1643 23.5862 50.1643C23.5862 50.1643 23.7544 48.7621 23.292 47.8883C22.83 47.0145 21.1909 45.1044 21.1068 43.682C21.0228 42.2596 21.0859 41.7312 21.0859 41.7312L20.5816 41.8532L20.2453 41.1826L20.8126 41.1215L20.5816 40.1056L19.8039 40.3901L19.6987 39.5164L18.7744 39.8822L19.2364 40.6747L18.417 40.8981L18.9004 41.8327L19.5309 41.4467L19.699 42.2594C19.699 42.2594 19.3207 42.3407 19.1106 42.6659C19.1106 42.6659 20.1502 43.3332 20.4553 44.1291C20.9387 45.3892 20.7915 48.2339 21.4848 49.0872C22.1782 49.9406 22.7245 50.5298 22.7245 50.5298C22.7245 50.5298 22.5303 51.1091 22.7507 51.4289C22.9714 51.749 23.2865 51.8405 23.2865 51.8405C23.2865 51.8405 23.0973 53.1361 23.586 53.9894C24.0745 54.8427 24.3581 55.0564 24.3581 55.0564C24.3581 55.0564 22.5773 56.1079 23.8382 57.3273C23.8382 57.3273 23.6701 58.4347 24.8677 58.699C24.8677 58.699 24.9309 59.5728 25.9605 59.4713C25.9605 59.4713 26.4648 59.3291 26.5909 59.573C26.717 59.8167 26.5909 61.2188 26.5909 61.2188C26.5909 61.2188 27.053 61.1782 27.3472 60.9752L28.2716 61.4221L28.2925 60.4264L29.4481 59.9795C29.4481 59.9795 28.9438 60.0608 27.9142 59.1261C27.9142 59.1261 28.0823 59.0244 28.2084 58.2319C28.2084 58.2319 29.0278 57.602 29.1962 57.0941C29.3643 56.5861 30.52 55.4685 31.8646 55.1026L32.0486 55.8951C32.0486 55.8951 33.9713 54.2493 34.7747 54.1578L35.4366 55.0009C35.4366 55.0009 37.916 51.445 39.0085 50.8148C38.9244 51.0994 39.5337 51.14 38.1785 52.603C36.8233 54.0663 37.6636 55.2243 37.6636 55.2243C36.8233 55.8949 36.9914 56.5046 36.8859 57.1956C36.781 57.8866 33.9862 59.6748 33.9862 59.6748C34.8686 60.7518 35.8564 60.5079 35.8564 60.5079C35.31 60.8533 35.4781 62.0116 35.4781 62.0116C36.2766 62.2148 37.0749 61.8694 37.0749 61.8694C36.8016 62.6008 37.2219 63.1088 37.2219 63.1088C37.7263 62.804 38.8819 62.621 38.8819 62.621C38.7349 63.881 39.5753 64.5514 39.5753 64.5514L40.3106 63.7791C40.4367 65.2015 41.7396 66.0144 41.7396 66.0144C41.7396 66.0144 43.0425 65.2015 43.1686 63.7791L43.904 64.5514C43.904 64.5514 44.7445 63.8808 44.5973 62.621C44.5973 62.621 45.753 62.804 46.2573 63.1088C46.2573 63.1088 46.6776 62.6008 46.4043 61.8694C46.4043 61.8694 47.2028 62.2148 48.0011 62.0116C48.0011 62.0116 48.1692 60.8533 47.6229 60.5079C47.6229 60.5079 48.6106 60.7515 49.493 59.6748C49.493 59.6748 46.6985 57.8866 46.5933 57.1956C46.4883 56.5046 46.6564 55.8951 45.8156 55.2243C45.8156 55.2243 46.656 54.0661 45.3007 52.603C43.9455 51.1398 44.5548 51.0991 44.4707 50.8148C45.5635 51.4447 48.0427 55.0009 48.0427 55.0009L48.7046 54.1578C49.5084 54.2493 51.4306 55.8951 51.4306 55.8951L51.6146 55.1026L51.6494 55.0659C52.6519 55.5881 54.3075 56.2942 54.9766 56.7889C55.6911 57.3173 56.2795 57.3579 58.0022 56.7889C59.7253 56.2198 62.9308 55.3449 62.4567 54.3097C62.4308 54.2533 62.4015 54.2154 62.3731 54.1713C62.4483 53.9039 62.4793 53.4373 61.9733 53.0295C61.9733 53.0295 61.9793 53.143 61.9752 53.2889L60.3327 52.6969C60.2784 52.5563 60.1973 52.4186 60.0404 52.2981C60.0404 52.2981 60.0428 52.42 60.0203 52.5844L59.599 52.4325L60.4398 50.145C60.3762 50.1106 60.3046 50.0913 60.2386 50.0611C60.2556 49.854 60.296 49.5676 60.3587 49.2682C60.564 49.3376 60.7516 49.4233 60.8875 49.5309L61.1248 48.6933C61.1248 48.6933 60.8695 48.6771 60.533 48.6162C60.618 48.3635 60.7189 48.1366 60.8387 47.99L59.7251 47.6649C59.7251 47.6649 59.7539 47.9912 59.7342 48.3984C59.5217 48.315 59.319 48.2091 59.1552 48.0734L58.8941 49.0029C58.9837 49.008 59.2878 49.0334 59.6401 49.0942C59.5764 49.3671 59.4643 49.6091 59.3036 49.7908C59.264 49.7857 59.2272 49.7717 59.1869 49.768L58.3703 51.9896L56.1561 51.1916C56.0612 51.336 55.9879 51.4935 55.9195 51.6528C55.9313 51.6296 55.9418 51.5934 55.9543 51.5787C55.9543 51.5787 55.0977 52.0121 55.1094 52.6488C54.9516 52.7066 54.8133 52.8211 54.7353 53.0197C54.4833 53.6598 56.0273 55.0924 55.6493 55.2752C55.278 55.4545 53.3382 53.9095 53.0272 53.6501C53.4271 53.5751 54.0104 53.294 54.0104 53.294C53.6111 53.1721 52.8759 52.5626 52.8759 52.5626C53.2542 52.4 53.6113 51.8716 53.6113 51.8716C51.9095 51.5871 51.7203 51.2417 51.7203 51.2417C51.8463 51.0791 51.9513 50.6525 51.9513 50.6525C49.0098 50.2867 48.768 48.2748 48.768 48.2748C49.6503 49.6159 51.0687 49.0977 51.0687 49.0977L50.4697 48.0613C52.1401 49.7378 54.3147 48.5187 54.3147 48.5187L53.7369 47.909C56.5523 48.6 57.2459 47.0352 57.2459 47.0352C56.4265 46.9133 55.8275 46.5526 55.8275 46.5526C59.1999 47.2231 59.2628 45.3485 59.2628 45.3485C58.9057 45.2468 57.8129 44.9016 57.8129 44.9016C61.0486 45.2879 61.1538 42.9915 61.1538 42.9915C60.1034 43.2351 58.4854 43.1134 58.4854 43.1134C62.5826 42.8289 62.6457 40.5938 62.6457 40.5938C60.9017 41.2035 59.3469 40.9799 59.3469 40.9799C64.0533 40.4313 63.9904 37.6676 63.9904 37.6676C61.7002 39.151 59.4518 39.1917 59.4518 39.1917C64.9592 37.7484 64.5389 34.9445 64.5389 34.9445ZM59.764 55.0462C59.5395 54.6936 60.0745 54.3782 60.3154 54.0426L61.2468 54.378C60.9305 54.7431 59.9955 55.4097 59.764 55.0462ZM59.1418 53.6199C58.8396 54.0726 58.6295 54.5803 57.6996 54.6044C56.5336 54.6349 56.3443 53.6289 56.0924 53.0803C56.0189 52.9203 55.8921 52.7995 55.7466 52.7166C55.7461 52.6181 55.7514 52.5101 55.7603 52.401L59.1418 53.6199Z" fill="#F5F5F5"/>
<path d="M41.3928 32.1527C41.3928 32.1527 39.8958 30.9182 39.4544 30.2477C39.4544 30.2477 39.9587 30.0496 40.2107 29.7448C40.2107 29.7448 38.8554 29.0439 38.1306 28.3276C38.1306 28.3276 38.6035 28.2514 38.9659 27.9617C38.9659 27.9617 37.7488 27.749 37.1316 26.7851C38.5387 26.3203 38.0677 25.0508 38.0677 25.0508C37.7841 25.4166 36.6179 25.8737 35.3572 25.3555C34.0966 24.8373 32.7099 25.2029 32.7099 25.8737C32.7099 25.8737 29.8734 25.0812 30.5826 27.7332C30.5826 27.7332 31.0394 26.7426 32.0481 27.1084C33.0567 27.4742 34.081 28.7238 34.081 28.7238C34.081 28.7238 33.4506 29.059 32.2846 28.6934C32.2846 28.6934 32.7575 30.4458 34.8848 29.562C34.8848 29.562 35.7252 29.9989 35.7672 31.2792C35.7672 31.2792 36.1243 31.0961 36.3556 30.6899C36.3556 30.6899 36.6918 31.9293 36.2506 32.9454C36.2506 32.9454 36.839 32.8439 37.0283 32.6609C37.0283 32.6609 37.1964 33.7379 36.461 34.6117C36.461 34.6117 39.6914 36.1003 41.7403 34.4695C41.7403 34.4695 40.9681 33.6162 40.716 32.8237C40.715 32.823 41.1403 32.6553 41.3928 32.1527Z" fill="#F5F5F5"/>
<path d="M50.7745 25.8737C50.7745 25.2031 49.3878 24.8373 48.1272 25.3555C46.8666 25.8737 45.7004 25.4166 45.4167 25.0508C45.4167 25.0508 44.9455 26.3203 46.3529 26.7851C45.7357 27.749 44.5185 27.9617 44.5185 27.9617C44.8812 28.2514 45.3538 28.3276 45.3538 28.3276C44.629 29.0439 43.2738 29.7448 43.2738 29.7448C43.5257 30.0496 44.03 30.2477 44.03 30.2477C43.5888 30.9182 42.0917 32.1527 42.0917 32.1527C42.3436 32.6556 42.7694 32.8232 42.7694 32.8232C42.5175 33.6157 41.7451 34.4691 41.7451 34.4691C43.7937 36.0998 47.0244 34.6112 47.0244 34.6112C46.289 33.7374 46.4571 32.6604 46.4571 32.6604C46.6463 32.8435 47.2347 32.945 47.2347 32.945C46.7936 31.929 47.1298 30.6894 47.1298 30.6894C47.3608 31.0959 47.7182 31.2787 47.7182 31.2787C47.7602 29.9985 48.6005 29.5616 48.6005 29.5616C50.7279 30.4456 51.2008 28.6929 51.2008 28.6929C50.0348 29.0587 49.4044 28.7233 49.4044 28.7233C49.4044 28.7233 50.4287 27.4738 51.4373 27.1079C52.446 26.7421 52.9028 27.7327 52.9028 27.7327C53.6108 25.0814 50.7745 25.8737 50.7745 25.8737Z" fill="#F5F5F5"/>
<path d="M49.4857 42.061C49.209 40.5034 48.9706 39.1582 49.6653 37.6169L49.795 37.3291L47.0435 34.2734L46.7183 34.3782C46.6902 34.3875 43.8143 35.2968 41.9705 34.4049L41.7405 34.2936L41.5104 34.4049C39.6753 35.2942 36.7917 34.3875 36.7619 34.3777L36.4367 34.2739L33.6857 37.3291L33.8154 37.6169C34.5102 39.1582 34.2717 40.5034 33.995 42.061C33.7344 43.5317 33.4388 45.1989 33.959 47.2319C34.5236 49.4388 36.425 50.2232 38.1018 50.9163C39.3946 51.4498 40.6153 51.9538 41.3055 53.0118L41.7402 53.6784L42.1749 53.0118C42.8652 51.9538 44.0859 51.45 45.3787 50.9163C47.056 50.2234 48.9569 49.4391 49.5215 47.2319C50.0419 45.1989 49.746 43.5315 49.4857 42.061ZM34.8822 37.5142L36.7706 35.4176C37.626 35.645 39.9383 36.1369 41.7402 35.3971C43.5419 36.1371 45.8542 35.6447 46.7099 35.4176L48.5983 37.5142C47.9352 39.2032 48.1963 40.6755 48.472 42.2292C48.6783 43.3933 48.8836 44.5924 48.7112 45.9735H34.7693C34.5971 44.5924 34.8024 43.3933 35.0085 42.2292C35.2842 40.6758 35.5453 39.203 34.8822 37.5142ZM44.9752 50.0016C43.8066 50.4843 42.6041 50.9804 41.7402 51.9222C40.8764 50.9804 39.6739 50.4843 38.5053 50.0016C36.8654 49.3246 35.4506 48.7328 34.984 47.0709H48.496C48.0298 48.733 46.615 49.3246 44.9752 50.0016Z" fill="#F5F5F5"/>
<path d="M34.8843 37.5136L36.7727 35.4169C37.6281 35.6443 39.9404 36.1362 41.7424 35.3965C43.544 36.1365 45.8563 35.6441 46.712 35.4169L48.6004 37.5136C47.9373 39.2026 48.1984 40.6749 48.4741 42.2285C48.6804 43.3926 48.8857 44.5918 48.7133 45.9728H34.7714C34.5992 44.5918 34.8046 43.3926 35.0106 42.2285C35.2863 40.6751 35.5474 39.2024 34.8843 37.5136Z" fill="#F5F5F5"/>
<path d="M34.915 46.7822C34.9311 46.8535 34.9415 46.922 34.9602 46.9945C35.4018 48.7205 36.8416 49.3148 38.5088 50.003C39.6775 50.4857 40.8799 50.9818 41.7438 51.9236C42.6077 50.9818 43.8102 50.4857 44.9788 50.003C46.646 49.3146 48.0858 48.7202 48.5274 46.9945C48.5459 46.9223 48.5562 46.8535 48.5726 46.7822H34.915Z" fill="#F5F5F5"/>
<path d="M47.9138 41.021C47.9138 40.1219 47.0303 39.9802 46.2272 39.9956C45.4238 40.0111 44.249 39.8692 44.2192 39.2653C44.2007 38.8888 44.8539 38.8537 45.2795 38.9857C45.5264 39.0623 47.0625 39.3276 47.5445 38.3332C47.5445 38.3332 46.9827 38.3507 46.3898 38.222C45.933 38.1228 44.0585 38.3486 43.7211 39.0477C43.3837 39.7468 44.4716 40.4445 45.7245 40.4445C46.9775 40.4445 47.1494 40.687 47.1396 40.9824C47.1266 41.3708 46.133 41.4806 45.5619 41.4755C44.663 41.1599 42.5654 41.407 42.5553 41.3687C42.5433 41.3218 42.0714 40.5383 42.0714 40.5383C42.0714 40.5383 42.9302 40.4798 43.039 40.3277C43.1478 40.1758 42.3875 39.5916 42.3875 39.5916C42.3875 39.5916 43.027 39.345 43.0513 39.1696C43.0777 38.9766 42.5321 38.5197 42.5321 38.5197C42.5321 38.5197 42.7429 38.3188 42.9014 37.9758C43.0148 37.7308 42.1144 37.6653 42.1144 37.6653C42.1627 37.479 42.1442 37.298 41.9055 37.2147C41.721 37.1503 41.038 37.4009 40.5723 37.4009C40.1067 37.4009 39.9297 37.7273 39.9297 37.7273C39.9297 37.7273 39.1105 37.8206 38.9978 37.9135C38.8854 38.0069 39.03 38.6127 39.03 38.6127C38.6124 38.5506 38.4198 38.1932 38.4198 38.1932C38.2108 39.1097 39.1909 39.2031 39.1909 39.2031L39.3516 39.7003C39.3516 39.7003 39.3516 39.7003 39.7531 39.747C40.1547 39.7937 39.9621 40.1665 39.3355 40.1665C38.7089 40.1665 38.4431 40.8893 38.4431 40.8893C38.0076 40.9011 37.7658 40.5618 37.669 40.1289C37.5624 39.6525 37.6253 38.9204 37.7053 38.4563C37.8021 37.8947 37.5117 37.731 37.5117 37.731L37.3181 38.199C37.3061 37.7194 36.8705 37.6727 36.8705 37.6727L36.7979 38.2575C36.5801 37.8715 36.2055 38.0469 36.2055 38.0469C36.2055 38.0469 36.5684 39.3101 36.5563 39.3803C36.5441 39.4504 36.4233 39.509 36.254 39.3334C36.0847 39.1578 35.9639 39.2748 35.9639 39.2748C36.1454 40.5381 36.8457 40.3528 36.8457 40.3528C36.8457 40.3528 36.877 40.7486 37.0885 41.552C37.3143 42.4097 38.2432 42.2483 38.2432 42.2483C38.2432 42.5279 38.4683 42.9318 38.5324 43.8639C38.5965 44.796 37.7132 45.4486 37.7132 45.4486C36.9099 45.4331 36.9903 46.1944 36.9903 46.1944H39.207C39.207 44.2121 40.0882 43.8723 40.0882 43.8723C41.3944 43.9308 42.6524 43.4043 42.6524 43.4043C42.4588 44.1647 42.7977 44.4803 42.7977 44.4803C43.3299 44.4102 43.0638 45.4277 42.9065 45.4277C42.7494 45.4277 42.4225 45.4277 42.2292 45.4277C42.0359 45.4277 41.4792 46.0126 41.4792 46.0126H43.7773C43.7773 46.0126 44.1282 45.5213 44.249 45.2758C44.3698 45.0301 43.9829 44.691 43.9589 44.4336C43.9348 44.1763 44.358 44.0125 44.358 44.0125C44.8057 44.6206 45.8336 44.6559 45.8336 44.6559L45.8095 44.1998C45.8095 44.1998 46.3417 44.3753 46.4628 44.5272C46.5836 44.6791 46.5596 45.3813 45.9186 45.463C45.2776 45.5448 45.2291 45.9893 45.2291 45.9893C45.2291 45.9893 46.6926 45.9893 46.983 45.9893C47.2733 45.9893 47.5029 45.463 47.5029 45.264C47.5029 45.0652 47.5029 43.7668 47.5029 43.4858C47.5029 43.2052 47.2611 43.2403 46.6926 43.1815C46.1763 43.1286 46.2257 42.582 46.013 41.9477C46.7594 41.9233 47.9138 41.7654 47.9138 41.021Z" fill="#F5F5F5"/>
<path d="M47.7712 19.7622C47.6274 18.5356 46.6163 16.9736 42.7653 16.2415C42.7526 15.8457 42.5009 15.5104 42.1409 15.3691V14.6856H42.7713V13.9542H42.1409V13.3447H41.3846V13.9544H40.7542V14.6858H41.3846V15.3694C41.0251 15.5106 40.7729 15.846 40.7602 16.2418C36.9092 16.9741 35.8981 18.5358 35.7542 19.7624C35.5748 21.2919 36.7074 22.7421 37.7286 23.2979V24.0739H45.7971V23.2979C46.818 22.7421 47.9504 21.2916 47.7712 19.7622ZM43.5472 22.1231H42.418V17.6244C43.3489 18.0311 43.9248 18.6547 44.0924 19.5113C44.3011 20.5779 43.8602 21.6653 43.5472 22.1231ZM39.4328 19.5106C39.6004 18.654 40.1761 18.0306 41.1072 17.6242V22.1229H39.9777C39.6643 21.6653 39.2236 20.5776 39.4328 19.5106ZM38.4993 18.2754C38.3139 18.6348 38.1955 18.9941 38.1352 19.3241C37.9527 20.3233 38.1619 21.3388 38.5077 22.1231H38.2428C37.677 21.7464 36.95 20.8197 37.0573 19.9052C37.132 19.2654 37.6337 18.7165 38.4993 18.2754ZM45.2827 22.1231H45.017C45.3629 21.3392 45.5723 20.3238 45.39 19.3246C45.3295 18.9945 45.2113 18.6348 45.0257 18.2752C45.8915 18.7163 46.3932 19.2656 46.4679 19.905C46.5752 20.8197 45.8482 21.7464 45.2827 22.1231Z" fill="#F5F5F5"/>
<path d="M98.728 5.14355H-15.7549V74.8551H98.728V5.14355Z" fill="#C8414B"/>
<path d="M58.8706 55.9822C60.6523 55.9822 62.0967 54.5853 62.0967 52.8622C62.0967 51.1391 60.6523 49.7422 58.8706 49.7422C57.0889 49.7422 55.6445 51.1391 55.6445 52.8622C55.6445 54.5853 57.0889 55.9822 58.8706 55.9822Z" fill="#41479B"/>
<path d="M64.5399 34.9484C62.1656 36.8787 60.5688 36.96 60.5688 36.96C64.7923 35.2938 64.3509 32.1238 64.3509 32.1238C62.3549 34.6639 60.3166 35.3751 60.3166 35.3751C64.561 32.5912 63.8886 28.8522 63.8886 28.8522C62.5019 31.8191 60.7475 32.9772 60.7475 32.9772C64.2774 28.4355 62.5439 25.5094 62.5439 25.5094C61.1572 29.7157 59.991 30.9351 59.991 30.9351C62.7015 23.9245 60.3798 21.9026 60.3798 21.9026C60.3798 25.6618 58.9299 27.8158 58.9299 27.8158C60.443 22.8577 58.0685 20.0127 58.0685 20.0127C58.0685 20.0127 58.0462 24.055 57.2411 26.1723C57.048 25.8885 56.9337 25.9261 56.9337 25.9261C56.5245 28.5226 55.0816 30.3505 54.4586 31.0382C54.3203 30.3912 53.9043 30.193 53.9043 30.193C53.9043 30.193 53.8294 30.8283 53.24 31.7652C52.8538 32.3791 51.0296 33.8105 50.7354 35.0703C50.4995 36.0805 51.5339 36.9194 51.8699 37.1226C52.2061 37.3258 52.5632 37.6917 52.416 38.2807C52.2691 38.8699 51.1763 38.8089 50.3989 38.7886C49.6215 38.7684 49.5166 40.0078 48.6548 39.9674L48.5088 40.8918L48.1714 40.9631C48.1714 40.9631 44.6415 47.7659 44.3411 50.0806L41.7418 50.412L39.1425 50.0806C38.8421 47.7659 35.3122 40.9631 35.3122 40.9631L34.9747 40.8918L34.8287 39.9674C33.9673 40.008 33.8623 38.7684 33.0847 38.7886C32.307 38.8089 31.2145 38.8699 31.0675 38.2807C30.9206 37.6914 31.2777 37.3254 31.6137 37.1226C31.9499 36.9194 32.9843 36.0802 32.7482 35.0703C32.454 33.8103 30.6297 32.3791 30.2435 31.7652C29.6542 30.8285 29.5793 30.193 29.5793 30.193C29.5793 30.193 29.1633 30.3912 29.025 31.0382C28.4022 30.35 26.9593 28.5226 26.5501 25.9261C26.5501 25.9261 26.4358 25.8887 26.2427 26.1723C25.4377 24.0548 25.4153 20.0127 25.4153 20.0127C25.4153 20.0127 23.0411 22.8575 24.5539 27.8158C24.5539 27.8158 23.104 25.662 23.104 21.9026C23.104 21.9026 20.7824 23.9245 23.4928 30.9351C23.4928 30.9351 22.3268 29.716 20.9399 25.5094C20.9399 25.5094 19.2064 28.4355 22.7363 32.9772C22.7363 32.9772 20.9819 31.8191 19.5952 28.8522C19.5952 28.8522 18.923 32.5912 23.1672 35.3751C23.1672 35.3751 21.1289 34.6639 19.1329 32.1238C19.1329 32.1238 18.6918 35.294 22.915 36.96C22.915 36.96 21.3182 36.8787 18.9439 34.9484C18.9439 34.9484 18.5236 37.7527 24.0286 39.1953C24.0286 39.1953 21.7802 39.1547 19.4901 37.6712C19.4901 37.6712 19.4269 40.4347 24.1336 40.9835C24.1336 40.9835 22.5788 41.207 20.8347 40.5975C20.8347 40.5975 20.8979 42.8326 24.995 43.1171C24.995 43.1171 23.3771 43.239 22.3266 42.9952C22.3266 42.9952 22.4316 45.2913 25.6675 44.9053C25.6675 44.9053 24.5748 45.2507 24.2176 45.3522C24.2176 45.3522 24.2808 47.2268 27.6529 46.5562C27.6529 46.5562 27.054 46.9169 26.2345 47.0389C26.2345 47.0389 26.9279 48.6036 29.7435 47.9127L29.1657 48.5223C29.1657 48.5223 31.3404 49.7415 33.0107 48.065L32.4117 49.1014C32.4117 49.1014 33.8301 49.6196 34.7125 48.2785C34.7125 48.2785 34.4709 50.2901 31.5291 50.6562C31.5291 50.6562 31.6341 51.0828 31.7602 51.2454C31.7602 51.2454 31.5709 51.5908 29.8691 51.8753C29.8691 51.8753 30.2263 52.4035 30.6045 52.5663C30.6045 52.5663 29.8691 53.176 29.47 53.2977C29.47 53.2977 30.1004 53.6024 30.4996 53.6635C30.4996 53.6635 29.6172 54.4966 28.5245 54.5168C27.4317 54.537 25.478 54.4151 25.478 54.4151C25.478 54.4151 25.4571 53.3992 24.9528 52.5252C24.4484 51.6514 24.2806 51.5854 24.2806 51.5854C24.2806 51.5854 24.3908 50.8845 24.0757 50.5948C23.7606 50.3052 23.5872 50.1682 23.5872 50.1682C23.5872 50.1682 23.7553 48.766 23.293 47.8922C22.8309 47.0184 21.1918 45.1083 21.1078 43.6859C21.0237 42.2635 21.0869 41.7351 21.0869 41.7351L20.5825 41.8571L20.2463 41.1865L20.8136 41.1255L20.5825 40.1095L19.8049 40.394L19.6997 39.5203L18.7753 39.8861L19.2374 40.6786L18.418 40.902L18.9014 41.8366L19.5318 41.4506L19.7 42.2633C19.7 42.2633 19.3217 42.3446 19.1116 42.6698C19.1116 42.6698 20.1512 43.3371 20.4562 44.133C20.9397 45.3931 20.7925 48.2378 21.4858 49.0912C22.1791 49.9445 22.7255 50.5337 22.7255 50.5337C22.7255 50.5337 22.5312 51.113 22.7517 51.4328C22.9724 51.7529 23.2875 51.8444 23.2875 51.8444C23.2875 51.8444 23.0982 53.14 23.587 53.9933C24.0755 54.8466 24.3591 55.0603 24.3591 55.0603C24.3591 55.0603 22.5783 56.1118 23.8391 57.3312C23.8391 57.3312 23.671 58.4386 24.8687 58.7029C24.8687 58.7029 24.9319 59.5767 25.9615 59.4752C25.9615 59.4752 26.4658 59.333 26.5919 59.5769C26.718 59.8206 26.5919 61.2227 26.5919 61.2227C26.5919 61.2227 27.054 61.1821 27.3482 60.9791L28.2725 61.426L28.2934 60.4303L29.4491 59.9834C29.4491 59.9834 28.9448 60.0647 27.9152 59.1301C27.9152 59.1301 28.0833 59.0283 28.2094 58.2358C28.2094 58.2358 29.0288 57.6059 29.1972 57.098C29.3653 56.59 30.5209 55.4724 31.8656 55.1066L32.0496 55.899C32.0496 55.899 33.9723 54.2532 34.7756 54.1617L35.4375 55.0048C35.4375 55.0048 37.917 51.4489 39.0095 50.8187C38.9254 51.1033 39.5347 51.1439 38.1795 52.6069C36.8242 54.0702 37.6646 55.2283 37.6646 55.2283C36.8242 55.8988 36.9923 56.5085 36.8869 57.1995C36.782 57.8905 33.9872 59.6787 33.9872 59.6787C34.8696 60.7557 35.8573 60.5118 35.8573 60.5118C35.311 60.8572 35.4791 62.0155 35.4791 62.0155C36.2776 62.2187 37.0759 61.8733 37.0759 61.8733C36.8026 62.6047 37.2229 63.1127 37.2229 63.1127C37.7272 62.8079 38.8829 62.6249 38.8829 62.6249C38.7359 63.885 39.5762 64.5553 39.5762 64.5553L40.3116 63.783C40.4377 65.2054 41.7406 66.0183 41.7406 66.0183C41.7406 66.0183 43.0435 65.2054 43.1695 63.783L43.9049 64.5553C43.9049 64.5553 44.7455 63.8847 44.5983 62.6249C44.5983 62.6249 45.7539 62.8079 46.2583 63.1127C46.2583 63.1127 46.6786 62.6047 46.4053 61.8733C46.4053 61.8733 47.2038 62.2187 48.0021 62.0155C48.0021 62.0155 48.1702 60.8572 47.6238 60.5118C47.6238 60.5118 48.6116 60.7554 49.494 59.6787C49.494 59.6787 46.6995 57.8905 46.5943 57.1995C46.4893 56.5085 46.6574 55.899 45.8166 55.2283C45.8166 55.2283 46.6569 54.07 45.3017 52.6069C43.9465 51.1437 44.5558 51.103 44.4717 50.8187C45.5644 51.4486 48.0436 55.0048 48.0436 55.0048L48.7055 54.1617C49.5094 54.2532 51.4316 55.899 51.4316 55.899L51.6156 55.1066L51.6504 55.0699C52.6528 55.592 54.3085 56.2981 54.9776 56.7928C55.6921 57.3212 56.2805 57.3618 58.0032 56.7928C59.7263 56.2237 62.9318 55.3488 62.4577 54.3136C62.4318 54.2572 62.4024 54.2193 62.3741 54.1752C62.4493 53.9078 62.4803 53.4412 61.9742 53.0334C61.9742 53.0334 61.9802 53.1469 61.9762 53.2928L60.3337 52.7008C60.2794 52.5602 60.1982 52.4225 60.0414 52.302C60.0414 52.302 60.0438 52.4239 60.0212 52.5883L59.6 52.4365L60.4408 50.1489C60.3772 50.1145 60.3056 50.0952 60.2395 50.065C60.2566 49.8579 60.2969 49.5715 60.3596 49.2721C60.565 49.3415 60.7525 49.4272 60.8885 49.5348L61.1257 48.6972C61.1257 48.6972 60.8705 48.681 60.534 48.6201C60.619 48.3674 60.7199 48.1405 60.8397 47.9939L59.7261 47.6688C59.7261 47.6688 59.7549 47.9951 59.7352 48.4023C59.5227 48.3189 59.32 48.213 59.1562 48.0773L58.8951 49.0068C58.9847 49.012 59.2887 49.0373 59.6411 49.0981C59.5774 49.371 59.4653 49.6131 59.3046 49.7947C59.265 49.7896 59.2282 49.7756 59.1879 49.7719L58.3713 51.9935L56.157 51.1955C56.0622 51.3399 55.9889 51.4974 55.9205 51.6567C55.9322 51.6335 55.9428 51.5973 55.9553 51.5826C55.9553 51.5826 55.0986 52.0161 55.1104 52.6527C54.9526 52.7105 54.8143 52.825 54.7362 53.0236C54.4843 53.6637 56.0283 55.0963 55.6503 55.2791C55.279 55.4584 53.3392 53.9134 53.0282 53.654C53.4281 53.579 54.0114 53.2979 54.0114 53.2979C53.612 53.176 52.8769 52.5665 52.8769 52.5665C53.2552 52.4039 53.6123 51.8755 53.6123 51.8755C51.9105 51.591 51.7212 51.2456 51.7212 51.2456C51.8473 51.083 51.9523 50.6564 51.9523 50.6564C49.0108 50.2906 48.7689 48.2787 48.7689 48.2787C49.6513 49.6198 51.0697 49.1016 51.0697 49.1016L50.4707 48.0653C52.141 49.7417 54.3157 48.5226 54.3157 48.5226L53.7379 47.9129C56.5533 48.6039 57.2469 47.0391 57.2469 47.0391C56.4275 46.9172 55.8285 46.5565 55.8285 46.5565C59.2009 47.227 59.2638 45.3524 59.2638 45.3524C58.9067 45.2507 57.8139 44.9055 57.8139 44.9055C61.0496 45.2918 61.1548 42.9954 61.1548 42.9954C60.1043 43.239 58.4864 43.1173 58.4864 43.1173C62.5835 42.8328 62.6467 40.5977 62.6467 40.5977C60.9026 41.2074 59.3478 40.9838 59.3478 40.9838C64.0543 40.4352 63.9914 37.6715 63.9914 37.6715C61.7012 39.1549 59.4528 39.1956 59.4528 39.1956C64.9602 37.7523 64.5399 34.9484 64.5399 34.9484ZM59.765 55.0501C59.5404 54.6975 60.0755 54.3821 60.3164 54.0465L61.2478 54.3819C60.9315 54.747 59.9965 55.4136 59.765 55.0501ZM59.1427 53.6238C58.8406 54.0765 58.6305 54.5842 57.7006 54.6083C56.5346 54.6388 56.3453 53.6328 56.0934 53.0842C56.0199 52.9242 55.8931 52.8034 55.7476 52.7205C55.7471 52.622 55.7524 52.514 55.7612 52.4049L59.1427 53.6238Z" fill="#E6B432"/>
<path d="M41.3928 32.1527C41.3928 32.1527 39.8958 30.9182 39.4544 30.2477C39.4544 30.2477 39.9587 30.0496 40.2107 29.7448C40.2107 29.7448 38.8554 29.0439 38.1306 28.3276C38.1306 28.3276 38.6035 28.2514 38.9659 27.9617C38.9659 27.9617 37.7488 27.749 37.1316 26.7851C38.5387 26.3203 38.0677 25.0508 38.0677 25.0508C37.7841 25.4166 36.6179 25.8737 35.3572 25.3555C34.0966 24.8373 32.7099 25.2029 32.7099 25.8737C32.7099 25.8737 29.8734 25.0812 30.5826 27.7332C30.5826 27.7332 31.0394 26.7426 32.0481 27.1084C33.0567 27.4742 34.081 28.7238 34.081 28.7238C34.081 28.7238 33.4506 29.059 32.2846 28.6934C32.2846 28.6934 32.7575 30.4458 34.8848 29.562C34.8848 29.562 35.7252 29.9989 35.7672 31.2792C35.7672 31.2792 36.1243 31.0961 36.3556 30.6899C36.3556 30.6899 36.6918 31.9293 36.2506 32.9454C36.2506 32.9454 36.839 32.8439 37.0283 32.6609C37.0283 32.6609 37.1964 33.7379 36.461 34.6117C36.461 34.6117 39.6914 36.1003 41.7403 34.4695C41.7403 34.4695 40.9681 33.6162 40.716 32.8237C40.715 32.823 41.1403 32.6553 41.3928 32.1527Z" fill="#E6B432"/>
<path d="M50.7735 25.8737C50.7735 25.2031 49.3868 24.8373 48.1262 25.3555C46.8656 25.8737 45.6994 25.4166 45.4157 25.0508C45.4157 25.0508 44.9445 26.3203 46.3519 26.7851C45.7347 27.749 44.5175 27.9617 44.5175 27.9617C44.8802 28.2514 45.3528 28.3276 45.3528 28.3276C44.628 29.0439 43.2728 29.7448 43.2728 29.7448C43.5247 30.0496 44.029 30.2477 44.029 30.2477C43.5879 30.9182 42.0907 32.1527 42.0907 32.1527C42.3426 32.6556 42.7684 32.8232 42.7684 32.8232C42.5165 33.6157 41.7441 34.4691 41.7441 34.4691C43.7927 36.0998 47.0234 34.6112 47.0234 34.6112C46.288 33.7374 46.4561 32.6604 46.4561 32.6604C46.6454 32.8435 47.2338 32.945 47.2338 32.945C46.7926 31.929 47.1288 30.6894 47.1288 30.6894C47.3599 31.0959 47.7172 31.2787 47.7172 31.2787C47.7592 29.9985 48.5996 29.5616 48.5996 29.5616C50.7269 30.4456 51.1998 28.6929 51.1998 28.6929C50.0338 29.0587 49.4034 28.7233 49.4034 28.7233C49.4034 28.7233 50.4277 27.4738 51.4364 27.1079C52.445 26.7421 52.9018 27.7327 52.9018 27.7327C53.6098 25.0814 50.7735 25.8737 50.7735 25.8737Z" fill="#E6B432"/>
<path d="M49.4857 42.0649C49.209 40.5073 48.9706 39.1621 49.6653 37.6208L49.795 37.333L47.0435 34.2773L46.7183 34.3821C46.6902 34.3914 43.8143 35.3007 41.9705 34.4088L41.7405 34.2975L41.5104 34.4088C39.6753 35.2981 36.7917 34.3914 36.7619 34.3816L36.4367 34.2778L33.6857 37.333L33.8154 37.6208C34.5102 39.1621 34.2717 40.5073 33.995 42.0649C33.7344 43.5356 33.4388 45.2028 33.959 47.2358C34.5236 49.4428 36.425 50.2271 38.1018 50.9202C39.3946 51.4537 40.6153 51.9577 41.3055 53.0157L41.7402 53.6823L42.1749 53.0157C42.8652 51.9577 44.0859 51.4539 45.3787 50.9202C47.056 50.2273 48.9569 49.443 49.5215 47.2358C50.0419 45.2028 49.746 43.5354 49.4857 42.0649ZM34.8822 37.5181L36.7706 35.4215C37.626 35.6489 39.9383 36.1408 41.7402 35.401C43.5419 36.141 45.8542 35.6486 46.7099 35.4215L48.5983 37.5181C47.9352 39.2071 48.1963 40.6795 48.472 42.2331C48.6783 43.3972 48.8836 44.5963 48.7112 45.9774H34.7693C34.5971 44.5963 34.8024 43.3972 35.0085 42.2331C35.2842 40.6797 35.5453 39.2069 34.8822 37.5181ZM44.9752 50.0055C43.8066 50.4882 42.6041 50.9843 41.7402 51.9261C40.8764 50.9843 39.6739 50.4882 38.5053 50.0055C36.8654 49.3285 35.4506 48.7367 34.984 47.0748H48.496C48.0298 48.7369 46.615 49.3285 44.9752 50.0055Z" fill="#E6B432"/>
<path d="M34.8843 37.5185L36.7727 35.4218C37.6281 35.6492 39.9404 36.1411 41.7424 35.4014C43.544 36.1414 45.8563 35.649 46.712 35.4218L48.6004 37.5185C47.9373 39.2075 48.1984 40.6798 48.4741 42.2334C48.6804 43.3975 48.8857 44.5967 48.7133 45.9777H34.7714C34.5992 44.5967 34.8046 43.3975 35.0106 42.2334C35.2863 40.68 35.5474 39.2072 34.8843 37.5185Z" fill="#41479B"/>
<path d="M34.915 46.7822C34.9311 46.8535 34.9415 46.922 34.9602 46.9945C35.4018 48.7205 36.8416 49.3148 38.5088 50.003C39.6775 50.4857 40.8799 50.9818 41.7438 51.9236C42.6077 50.9818 43.8102 50.4857 44.9788 50.003C46.646 49.3146 48.0858 48.7202 48.5274 46.9945C48.5459 46.9223 48.5562 46.8535 48.5726 46.7822H34.915Z" fill="#73AF00"/>
<path d="M47.907 41.0171C47.907 40.118 47.0235 39.9763 46.2204 39.9916C45.417 40.0072 44.2421 39.8653 44.2124 39.2614C44.1939 38.8849 44.8471 38.8498 45.2727 38.9818C45.5196 39.0584 47.0556 39.3237 47.5376 38.3293C47.5376 38.3293 46.9759 38.3468 46.3829 38.2181C45.9262 38.1189 44.0517 38.3447 43.7143 39.0438C43.3768 39.7429 44.4648 40.4406 45.7177 40.4406C46.9706 40.4406 47.1426 40.6831 47.1327 40.9785C47.1198 41.3669 46.1262 41.4767 45.5551 41.4716C44.6562 41.156 42.5586 41.4031 42.5485 41.3648C42.5365 41.3179 42.0646 40.5344 42.0646 40.5344C42.0646 40.5344 42.9234 40.4759 43.0322 40.3238C43.141 40.1719 42.3806 39.5877 42.3806 39.5877C42.3806 39.5877 43.0202 39.3411 43.0445 39.1657C43.0709 38.9727 42.5252 38.5158 42.5252 38.5158C42.5252 38.5158 42.7361 38.3149 42.8946 37.9719C43.0079 37.7268 42.1076 37.6613 42.1076 37.6613C42.1559 37.4751 42.1374 37.2941 41.8986 37.2108C41.7142 37.1464 41.0312 37.397 40.5655 37.397C40.0998 37.397 39.9228 37.7234 39.9228 37.7234C39.9228 37.7234 39.1036 37.8167 38.991 37.9096C38.8786 38.003 39.0232 38.6088 39.0232 38.6088C38.6055 38.5467 38.4129 38.1893 38.4129 38.1893C38.204 39.1058 39.1841 39.1992 39.1841 39.1992L39.3448 39.6964C39.3448 39.6964 39.3448 39.6964 39.7463 39.7431C40.1479 39.7898 39.9552 40.1626 39.3287 40.1626C38.7021 40.1626 38.4362 40.8854 38.4362 40.8854C38.0008 40.8972 37.759 40.5579 37.6622 40.125C37.5555 39.6486 37.6185 38.9165 37.6984 38.4524C37.7952 37.8908 37.5049 37.7271 37.5049 37.7271L37.3113 38.1951C37.2993 37.7155 36.8636 37.6688 36.8636 37.6688L36.7911 38.2536C36.5733 37.8676 36.1986 38.043 36.1986 38.043C36.1986 38.043 36.5615 39.3062 36.5495 39.3764C36.5373 39.4465 36.4165 39.5051 36.2471 39.3295C36.0778 39.1539 35.957 39.2709 35.957 39.2709C36.1386 40.5342 36.8389 40.3489 36.8389 40.3489C36.8389 40.3489 36.8701 40.7446 37.0817 41.548C37.3075 42.4058 38.2364 42.2444 38.2364 42.2444C38.2364 42.524 38.4614 42.9279 38.5256 43.86C38.5897 44.7921 37.7064 45.4447 37.7064 45.4447C36.903 45.4292 36.9835 46.1905 36.9835 46.1905H39.2002C39.2002 44.2082 40.0813 43.8684 40.0813 43.8684C41.3876 43.9269 42.6455 43.4004 42.6455 43.4004C42.452 44.1608 42.7908 44.4764 42.7908 44.4764C43.323 44.4063 43.0569 45.4238 42.8996 45.4238C42.7426 45.4238 42.4157 45.4238 42.2224 45.4238C42.029 45.4238 41.4724 46.0087 41.4724 46.0087H43.7705C43.7705 46.0087 44.1213 45.5174 44.2421 45.2719C44.3629 45.0262 43.976 44.6871 43.952 44.4297C43.928 44.1724 44.3512 44.0086 44.3512 44.0086C44.7988 44.6167 45.8267 44.652 45.8267 44.652L45.8027 44.1958C45.8027 44.1958 46.3349 44.3714 46.456 44.5233C46.5768 44.6752 46.5527 45.3774 45.9117 45.4591C45.2708 45.5409 45.2222 45.9854 45.2222 45.9854C45.2222 45.9854 46.6858 45.9854 46.9761 45.9854C47.2665 45.9854 47.4961 45.4591 47.4961 45.2601C47.4961 45.0613 47.4961 43.7629 47.4961 43.4819C47.4961 43.2013 47.2543 43.2364 46.6858 43.1776C46.1694 43.1247 46.2189 42.5781 46.0061 41.9438C46.7526 41.9194 47.907 41.7615 47.907 41.0171Z" fill="#E6B432"/>
<path d="M47.7712 19.7622C47.6274 18.5356 46.6163 16.9736 42.7653 16.2415C42.7526 15.8457 42.5009 15.5104 42.1409 15.3691V14.6856H42.7713V13.9542H42.1409V13.3447H41.3846V13.9544H40.7542V14.6858H41.3846V15.3694C41.0251 15.5106 40.7729 15.846 40.7602 16.2418C36.9092 16.9741 35.8981 18.5358 35.7542 19.7624C35.5748 21.2919 36.7074 22.7421 37.7286 23.2979V24.0739H45.7971V23.2979C46.818 22.7421 47.9504 21.2916 47.7712 19.7622ZM43.5473 22.1231H42.418V17.6244C43.3489 18.0311 43.9248 18.6547 44.0924 19.5113C44.3011 20.5779 43.8602 21.6653 43.5473 22.1231ZM39.4328 19.5106C39.6004 18.654 40.1761 18.0306 41.1072 17.6242V22.1229H39.9777C39.6643 21.6653 39.2236 20.5776 39.4328 19.5106ZM38.4993 18.2754C38.3139 18.6348 38.1955 18.9941 38.1352 19.3241C37.9527 20.3233 38.1619 21.3388 38.5077 22.1231H38.2428C37.677 21.7464 36.95 20.8197 37.0574 19.9052C37.132 19.2654 37.6337 18.7165 38.4993 18.2754ZM45.2827 22.1231H45.017C45.3629 21.3392 45.5723 20.3238 45.39 19.3246C45.3295 18.9945 45.2113 18.6348 45.0257 18.2752C45.8915 18.7163 46.3932 19.2656 46.4679 19.905C46.5752 20.8197 45.8482 21.7464 45.2827 22.1231Z" fill="#E6B432"/>
</g>
<rect x="1" y="1" width="78" height="78" rx="39" stroke="#E6B432" stroke-width="2"/>
<defs>
<clipPath id="clip0_6411_155207">
<rect width="80" height="80" rx="40" fill="white"/>
</clipPath>
</defs>
</svg>
