<svg width="80" height="64" viewBox="0 0 80 64" fill="none" xmlns="http://www.w3.org/2000/svg">
<g id="Group">
<path id="Vector" d="M102.963 0.964844H-20V9.24063H102.963V0.964844Z" fill="#FF4B55"/>
<path id="Vector_2" d="M102.963 54.7539H-20V63.0297H102.963V54.7539Z" fill="#FF4B55"/>
<path id="Vector_3" d="M55.8622 24.2586L58.8467 28.0686L63.5066 26.5464C63.7671 26.4613 63.9888 26.7489 63.8327 26.9694L61.042 30.9168L63.9655 34.7715C64.1291 34.9869 63.9172 35.2815 63.6538 35.2049L58.9447 33.8345L56.0916 37.7392C55.9321 37.9574 55.5795 37.8519 55.573 37.584L55.4534 32.7897L50.7664 31.348C50.5044 31.2674 50.4982 30.9076 50.7573 30.8186L55.3924 29.226L55.349 24.4304C55.3466 24.1623 55.6953 24.0456 55.8622 24.2586Z" fill="#FF4B55"/>
<path id="Vector_4" d="M40.5097 45.5255C32.0812 45.5255 25.244 38.8531 25.244 30.6202C25.244 22.4026 32.0812 15.7151 40.5097 15.7151C43.6455 15.7151 46.5375 16.6562 48.9475 18.2494C49.3167 18.4934 49.7377 18.02 49.4288 17.7066C45.8271 14.052 40.7292 11.8226 35.0772 12.0111C25.3665 12.3343 17.3278 19.9325 16.7072 29.3951C15.9966 40.2338 24.7906 49.2415 35.7401 49.2415C41.1334 49.2415 45.9808 47.041 49.4423 43.5226C49.748 43.2118 49.326 42.7456 48.9605 42.9875C46.5476 44.5831 43.651 45.5255 40.5097 45.5255Z" fill="#FF4B55"/>
</g>
</svg>
