<svg width="20" height="20" fill="none" xmlns="http://www.w3.org/2000/svg"><g fill-rule="evenodd" clip-rule="evenodd" fill="#4A4A4A"><path d="M6.905 16V3.294a.794.794 0 0 0-1.589 0V16a.794.794 0 0 0 1.589 0Z"/><path d="m2.05 13.75 3.573 3.575c.233.232.61.232.842 0l3.574-3.574a.595.595 0 1 0-.842-.842L6.044 16.06l-3.153-3.152a.595.595 0 1 0-.841.842ZM13.272 4v12.706c0 .438.316.794.706.794.39 0 .706-.356.706-.794V4c0-.438-.317-.794-.706-.794-.39 0-.706.356-.706.794Z"/><path d="m17.95 6.25-3.573-3.574a.595.595 0 0 0-.842 0L9.96 6.249a.595.595 0 1 0 .842.842l3.153-3.152 3.153 3.152a.595.595 0 1 0 .841-.842Z"/></g></svg>