<svg xmlns="http://www.w3.org/2000/svg" width="16" height="17" fill="none"><path fill="#5E686E" fill-rule="evenodd" d="M2.833 1.334a2 2 0 1 0 .002 4.001 2 2 0 0 0-.002-4.001Zm0 1a1 1 0 1 1 0 2 1 1 0 0 1 0-2ZM2.833 6.5a2 2 0 1 0 .002 4.001A2 2 0 0 0 2.833 6.5Zm0 1a1 1 0 1 1 0 2 1 1 0 0 1 0-2ZM2.833 11.668a2 2 0 1 0 .002 4.001 2 2 0 0 0-.002-4.001Zm0 1a1 1 0 1 1 0 2 1 1 0 0 1 0-2ZM8 1.334a2 2 0 1 0 .001 4.001A2 2 0 0 0 8 1.334Zm0 1a1 1 0 1 1 0 2 1 1 0 0 1 0-2ZM8 6.5a2 2 0 1 0 .001 4.001A2 2 0 0 0 8 6.5Zm0 1a1 1 0 1 1 0 2 1 1 0 0 1 0-2ZM8 11.668a2 2 0 1 0 .001 4.001A2 2 0 0 0 8 11.668Zm0 1a1 1 0 1 1 0 2 1 1 0 0 1 0-2ZM13.167 1.334a2 2 0 1 0 .001 4.001 2 2 0 0 0-.001-4.001Zm0 1a1 1 0 1 1 0 2 1 1 0 0 1 0-2ZM13.167 6.5a2 2 0 1 0 .001 4.001 2 2 0 0 0-.001-4.001Zm0 1a1 1 0 1 1 0 2 1 1 0 0 1 0-2ZM13.167 11.668a2 2 0 1 0 .001 4.001 2 2 0 0 0-.001-4.001Zm0 1a1 1 0 1 1 0 2 1 1 0 0 1 0-2Z" clip-rule="evenodd"/></svg>
