<svg xmlns="http://www.w3.org/2000/svg" width="32" height="32" fill="none"><rect width="32" height="32" fill="#fff" rx="16"/><g fill="#5E686E" fill-rule="evenodd" clip-path="url(#a)" clip-rule="evenodd"><path d="m22.602 13.392-9.251 9.251c-.2.2-.466.32-.748.339l-2.525.168a1.166 1.166 0 0 1-1.241-1.242l.168-2.525c.019-.282.139-.547.339-.747l9.251-9.251a1.832 1.832 0 0 1 2.593 0l1.414 1.414a1.832 1.832 0 0 1 0 2.593Zm-.707-.708a.83.83 0 0 0 0-1.178l-1.414-1.414a.833.833 0 0 0-1.179 0l-9.25 9.251a.167.167 0 0 0-.05.107l-.167 2.525a.167.167 0 0 0 .177.177l2.525-.168a.167.167 0 0 0 .107-.048l9.25-9.252Z"/><path d="M20.716 14.57a.501.501 0 0 1-.707.708l-3.3-3.3a.5.5 0 0 1 .707-.707l3.3 3.3Z"/></g><defs><clipPath id="a"><path fill="#fff" d="M8 8h16v16H8z"/></clipPath></defs></svg>
