<svg width="23" height="22" fill="none" xmlns="http://www.w3.org/2000/svg"><g fill-rule="evenodd" clip-rule="evenodd" fill=""><path d="m22.208 1.248-7 20a.752.752 0 0 1-1.277.24l-5.94-6.93L1.063 9.61a.751.751 0 0 1 .157-1.306l20-8a.75.75 0 0 1 .987.944Zm-1.96 1.061L3.051 9.187l5.884 4.203a.733.733 0 0 1 .133.122l5.153 6.011L20.247 2.31Z"/><path d="M7.75 14a.75.75 0 0 1 1.5 0v3.786l1.915-.957a.75.75 0 1 1 .67 1.342l-3 1.5A.748.748 0 0 1 7.75 19v-5Z"/><path d="M9.03 14.53a.749.749 0 1 1-1.06-1.06L20.47.97a.75.75 0 1 1 1.06 1.06l-12.5 12.5Z"/></g></svg>