<svg width="18" height="18" fill="none" xmlns="http://www.w3.org/2000/svg"><g fill=""><path d="M9 14.208a.833.833 0 1 0 0-1.667.833.833 0 0 0 0 1.667Z"/><path fill-rule="evenodd" clip-rule="evenodd" d="M9 .041c4.944 0 8.958 4.014 8.958 8.958S13.944 17.958 9 17.958.042 13.944.042 8.999C.042 4.055 4.056.041 9 .041Zm0 1.25a7.712 7.712 0 0 0-7.708 7.708A7.712 7.712 0 0 0 9 16.708a7.712 7.712 0 0 0 7.708-7.709A7.712 7.712 0 0 0 9 1.291Z"/><path fill-rule="evenodd" clip-rule="evenodd" d="M7.333 6.083a.625.625 0 0 1-1.25 0 2.918 2.918 0 0 1 5.833 0 2.92 2.92 0 0 1-2.13 2.809l-.033.008a.11.11 0 0 0-.087.109l-.001.042c-.04.595-.04 1.407-.04 1.407a.625.625 0 0 1-1.25 0s0-.844.041-1.462a1.362 1.362 0 0 1 1.059-1.315 1.667 1.667 0 1 0-2.142-1.598Z"/></g></svg>