<svg fill="none" viewBox="0 0 32 30" height="30" width="32" xmlns="http://www.w3.org/2000/svg">
<g id="Icon">
<path id="Vector" fill-rule="evenodd" clip-rule="evenodd" d="M7.14016 28.3512L15.4517 29.7372C16.0742 29.8407 16.7117 29.8002 17.3162 29.6187L29.0132 26.1102C31.0637 25.4952 32.2382 23.3457 31.6502 21.2877C31.0682 19.2522 28.9727 18.0492 26.9222 18.5742L20.7572 20.1522C20.1557 20.3067 19.7927 20.9202 19.9457 21.5217C20.1002 22.1232 20.7137 22.4862 21.3152 22.3317L27.4802 20.7537C28.3502 20.5302 29.2397 21.0417 29.4872 21.9042C29.7377 22.7787 29.2382 23.6937 28.3667 23.9547L16.6697 27.4647C16.3937 27.5472 16.1042 27.5652 15.8222 27.5172L7.50916 26.1327C6.89716 26.0307 6.31666 26.4447 6.21466 27.0567C6.11266 27.6702 6.52666 28.2492 7.14016 28.3512Z" fill="url(#paint0_linear_7539_6126)"/>
<path id="Vector_2" fill-rule="evenodd" clip-rule="evenodd" d="M7.58934 17.7923C7.58934 17.7923 10.7978 17.0138 12.5213 16.5938C12.9533 16.4888 13.4063 16.5413 13.8023 16.7393L19.0658 19.3703C19.4753 19.5758 19.7753 19.9448 19.8938 20.3873C20.0108 20.8283 19.9328 21.2993 19.6793 21.6788L19.6778 21.6818C19.2548 22.3163 18.4268 22.5353 17.7473 22.1948L13.8263 20.2358C13.2713 19.9583 12.5948 20.1833 12.3173 20.7383C12.0398 21.2933 12.2648 21.9698 12.8198 22.2473C12.8198 22.2473 15.0068 23.3408 16.7408 24.2078C18.4358 25.0553 20.4983 24.5078 21.5498 22.9298L21.5513 22.9268C22.1633 22.0103 22.3508 20.8748 22.0673 19.8098C21.7853 18.7433 21.0578 17.8523 20.0723 17.3588L14.8088 14.7263C13.9373 14.2898 12.9383 14.1773 11.9903 14.4083C10.2653 14.8268 7.05834 15.6053 7.05834 15.6053C6.45534 15.7523 6.08334 16.3613 6.23034 16.9643C6.37734 17.5688 6.98634 17.9393 7.58934 17.7923Z" fill="url(#paint1_linear_7539_6126)"/>
<path id="Vector_3" fill-rule="evenodd" clip-rule="evenodd" d="M8.44922 15.2422C8.44922 14.6212 7.94522 14.1172 7.32422 14.1172H1.32422C0.703219 14.1172 0.199219 14.6212 0.199219 15.2422V28.7422C0.199219 29.3647 0.703219 29.8672 1.32422 29.8672H7.32422C7.94522 29.8672 8.44922 29.3647 8.44922 28.7422V15.2422ZM6.19922 16.3687V27.6187L2.44922 27.6172V16.3672L6.19922 16.3687Z" fill="url(#paint2_linear_7539_6126)"/>
<path id="Vector_4" fill-rule="evenodd" clip-rule="evenodd" d="M23.0737 0.982253C21.0847 -0.336247 18.3742 -0.120247 16.6207 1.63325C14.6287 3.62525 14.6212 6.85475 16.5982 8.85725L22.2787 14.5378C22.4887 14.7478 22.7752 14.8663 23.0737 14.8663C23.3722 14.8663 23.6587 14.7478 23.8687 14.5378L29.5492 8.85725C31.5262 6.85475 31.5187 3.62525 29.5252 1.63325C27.7732 -0.120247 25.0627 -0.336247 23.0737 0.982253ZM22.2787 3.22325C21.1567 2.10125 19.3342 2.10125 18.2122 3.22325C17.0947 4.34075 17.0902 6.15275 18.1972 7.27475L23.0737 12.1513L27.9487 7.27475C29.0572 6.15275 29.0527 4.34075 27.9352 3.22325C26.8132 2.10125 24.9907 2.10125 23.8687 3.22325C23.6497 3.44375 23.3617 3.55325 23.0737 3.55325C22.9822 3.55325 22.8937 3.54275 22.8082 3.52175L22.7932 3.51725L22.7392 3.50225L22.6867 3.48425L22.6507 3.47075L22.6357 3.46475L22.5997 3.44825L22.5502 3.42425L22.5022 3.39725L22.4872 3.38825C22.4137 3.34325 22.3432 3.28775 22.2787 3.22325Z" fill="url(#paint3_linear_7539_6126)"/>
</g>
<defs>
<linearGradient id="paint0_linear_7539_6126" x1="12.984" y1="32.9567" x2="27.6508" y2="17.3498" gradientUnits="userSpaceOnUse">
<stop stop-color="#CF00AD"/>
<stop offset="0.3492" stop-color="#E1004C"/>
<stop offset="1" stop-color="#F8479E"/>
</linearGradient>
<linearGradient id="paint1_linear_7539_6126" x1="10.4379" y1="27.4816" x2="23.1718" y2="18.1704" gradientUnits="userSpaceOnUse">
<stop stop-color="#CF00AD"/>
<stop offset="0.3492" stop-color="#E1004C"/>
<stop offset="1" stop-color="#F8479E"/>
</linearGradient>
<linearGradient id="paint2_linear_7539_6126" x1="2.38551" y1="34.2603" x2="11.884" y2="31.9149" gradientUnits="userSpaceOnUse">
<stop stop-color="#CF00AD"/>
<stop offset="0.3492" stop-color="#E1004C"/>
<stop offset="1" stop-color="#F8479E"/>
</linearGradient>
<linearGradient id="paint3_linear_7539_6126" x1="19.336" y1="18.9758" x2="34.7681" y2="11.1226" gradientUnits="userSpaceOnUse">
<stop stop-color="#CF00AD"/>
<stop offset="0.3492" stop-color="#E1004C"/>
<stop offset="1" stop-color="#F8479E"/>
</linearGradient>
</defs>
</svg>