<svg xmlns="http://www.w3.org/2000/svg" width="18" height="18" fill="none"><path fill="#D01E50" fill-rule="evenodd" d="M.46 5.88a.627.627 0 0 0 .024 1.188L8.53 9.51l3.223 8.055a.624.624 0 0 0 1.178-.052l5-16.667a.627.627 0 0 0-.804-.77L.46 5.879Zm2.224.55 13.699-4.771-4.134 13.78-2.67-6.672a.623.623 0 0 0-.398-.366L2.684 6.429Z" clip-rule="evenodd"/><path fill="#D01E50" fill-rule="evenodd" d="m9.441 9.44 8.334-8.333a.624.624 0 1 0-.883-.883L8.558 8.557a.624.624 0 1 0 .883.884Z" clip-rule="evenodd"/></svg>
