<svg width="18" height="18" fill="none" xmlns="http://www.w3.org/2000/svg"><g fill=""><path fill-rule="evenodd" clip-rule="evenodd" d="M3.582 3.375a.625.625 0 0 1 0-1.25h1.25a.625.625 0 0 1 0 1.25h-1.25ZM6.916 3.375a.625.625 0 0 1 0-1.25h1.25a.625.625 0 0 1 0 1.25h-1.25Z"/><path fill-rule="evenodd" clip-rule="evenodd" d="M17.958 7.333a.625.625 0 0 1-1.25 0V2.749c0-.805-.653-1.458-1.459-1.458H2.75c-.805 0-1.458.653-1.458 1.458v12.5c0 .806.653 1.459 1.458 1.459h4.584a.625.625 0 0 1 0 1.25H2.749a2.708 2.708 0 0 1-2.708-2.709V2.75A2.708 2.708 0 0 1 2.749.041h12.5a2.708 2.708 0 0 1 2.709 2.708v4.584Z"/><path fill-rule="evenodd" clip-rule="evenodd" d="M17.333 4.207a.625.625 0 0 1 0 1.25H.666a.625.625 0 0 1 0-1.25h16.667Z"/><path d="M12.997 14.321a1.572 1.572 0 1 0 0-3.143 1.572 1.572 0 0 0 0 3.143Z"/><path fill-rule="evenodd" clip-rule="evenodd" d="m14.456 8.012.394.95c.173.085.34.182.499.288l1.02-.133a.623.623 0 0 1 .552.208c.444.51.784 1.099 1.003 1.738a.623.623 0 0 1-.095.581l-.626.818c.013.191.013.384 0 .574l.626.818a.624.624 0 0 1 .095.582c-.219.64-.559 1.228-1.003 1.738a.623.623 0 0 1-.552.208l-1.02-.134c-.16.107-.326.204-.498.288l-.395.95a.623.623 0 0 1-.457.374c-.662.13-1.343.13-2.005 0a.623.623 0 0 1-.457-.373l-.394-.951a4.218 4.218 0 0 1-.498-.288l-1.021.134a.623.623 0 0 1-.552-.209 5.213 5.213 0 0 1-1.003-1.737.624.624 0 0 1 .095-.582l.626-.817a4.126 4.126 0 0 1 0-.574l-.626-.819a.623.623 0 0 1-.095-.581c.219-.64.559-1.229 1.003-1.738a.623.623 0 0 1 .552-.208l1.02.133c.16-.106.326-.203.498-.287l.395-.951a.623.623 0 0 1 .457-.373 5.207 5.207 0 0 1 2.005 0c.205.04.377.18.457.373Zm-1.02.803a3.975 3.975 0 0 0-.879 0l-.355.855a.626.626 0 0 1-.338.338c-.241.1-.468.23-.675.39a.628.628 0 0 1-.461.124l-.919-.12a3.933 3.933 0 0 0-.439.762l.563.735c.1.13.145.297.123.461-.034.258-.034.52 0 .779a.623.623 0 0 1-.123.461l-.563.736c.118.27.265.524.44.76l.918-.12c.164-.02.33.024.462.125.206.16.433.29.674.39a.626.626 0 0 1 .338.338l.355.854c.293.033.587.033.88 0l.354-.854a.629.629 0 0 1 .338-.339c.241-.099.468-.23.675-.389a.629.629 0 0 1 .461-.124l.919.12c.174-.237.321-.492.44-.762l-.564-.735a.623.623 0 0 1-.123-.461c.034-.259.034-.52 0-.779a.623.623 0 0 1 .123-.461s.564-.735.563-.736a3.95 3.95 0 0 0-.44-.761l-.918.12a.628.628 0 0 1-.461-.124 2.937 2.937 0 0 0-.675-.39.629.629 0 0 1-.338-.338l-.355-.855Z"/></g></svg>