<svg xmlns="http://www.w3.org/2000/svg" width="41" height="40" fill="none"><path fill="" fill-rule="evenodd" d="M29.635 12.083a1.25 1.25 0 0 1 2.5 0v5a1.25 1.25 0 0 1-2.5 0v-5ZM22.969 12.083a1.25 1.25 0 0 1 2.5 0v5a1.25 1.25 0 0 1-2.5 0v-5ZM16.303 12.083a1.25 1.25 0 0 1 2.5 0v5a1.25 1.25 0 0 1-2.5 0v-5ZM32.552 28.333a4.585 4.585 0 0 1 4.583 4.583 4.585 4.585 0 0 1-4.583 4.584 4.585 4.585 0 0 1-4.583-4.584 4.585 4.585 0 0 1 4.583-4.583Zm0 2.5a2.084 2.084 0 1 0 .002 4.168 2.084 2.084 0 0 0-.002-4.168ZM16.718 28.333a4.585 4.585 0 0 1 4.583 4.583 4.585 4.585 0 0 1-4.583 4.584 4.585 4.585 0 0 1-4.583-4.584 4.585 4.585 0 0 1 4.583-4.583Zm0 2.5a2.084 2.084 0 1 0 .002 4.168 2.084 2.084 0 0 0-.002-4.168Z" clip-rule="evenodd"/><path fill="" fill-rule="evenodd" d="M4.219 5a1.25 1.25 0 0 1 0-2.5h3.663c1.367 0 2.55.95 2.847 2.283l4.13 18.585A2.085 2.085 0 0 0 16.894 25h17.325a1.25 1.25 0 0 1 0 2.5H16.894a4.585 4.585 0 0 1-4.475-3.588L8.289 5.327A.416.416 0 0 0 7.882 5H4.22Z" clip-rule="evenodd"/><path fill="" fill-rule="evenodd" d="m34.761 20.121 1.387-11.788H10.053a1.25 1.25 0 0 1 0-2.5h26.563c.595 0 1.162.255 1.557.698.395.445.581 1.039.511 1.629l-1.48 12.581a2.08 2.08 0 0 1-1.83 1.825l-21.011 2.425a1.25 1.25 0 0 1-.287-2.483l20.685-2.387Z" clip-rule="evenodd"/></svg>
