<svg xmlns="http://www.w3.org/2000/svg" width="25" height="24" fill="none"><path fill="#5E686E" fill-rule="evenodd" d="M21.75 9.25v-2.5c0-.729-.29-1.429-.805-1.945A2.755 2.755 0 0 0 19 4H6c-.729 0-1.429.29-1.945.805A2.755 2.755 0 0 0 3.25 6.75v2.5a.75.75 0 0 0 1.5 0v-2.5A1.252 1.252 0 0 1 6 5.5h13a1.252 1.252 0 0 1 1.25 1.25v2.5a.75.75 0 0 0 1.5 0Z" clip-rule="evenodd"/><path fill="#5E686E" fill-rule="evenodd" d="M21.5 8.5H20a1.75 1.75 0 0 0-1.75 1.75v2.5A.25.25 0 0 1 18 13H7a.25.25 0 0 1-.25-.25v-2.5A1.75 1.75 0 0 0 5 8.5H3.5a1.75 1.75 0 0 0-1.75 1.75v4.5c0 .729.29 1.429.805 1.945A2.755 2.755 0 0 0 4.5 17.5h16c.729 0 1.429-.29 1.945-.805a2.755 2.755 0 0 0 .805-1.945v-4.5A1.75 1.75 0 0 0 21.5 8.5ZM20 10h1.5a.25.25 0 0 1 .25.25v4.5A1.252 1.252 0 0 1 20.5 16h-16a1.252 1.252 0 0 1-1.25-1.25v-4.5A.25.25 0 0 1 3.5 10H5a.25.25 0 0 1 .25.25v2.5c0 .966.784 1.75 1.75 1.75h11a1.75 1.75 0 0 0 1.75-1.75v-2.5A.25.25 0 0 1 20 10Z" clip-rule="evenodd"/><path fill="#5E686E" fill-rule="evenodd" d="m18.857 17.136 1.5 2.5a.75.75 0 0 0 1.286-.772l-1.5-2.5a.75.75 0 0 0-1.286.772ZM4.857 16.364l-1.5 2.5a.75.75 0 0 0 1.286.772l1.5-2.5a.75.75 0 0 0-1.286-.772Z" clip-rule="evenodd"/></svg>
