<svg xmlns="http://www.w3.org/2000/svg" width="24" height="24" fill="none"><g clip-path="url(#a)"><path fill="#75828A" d="M0 6.75A3.75 3.75 0 0 1 3.75 3h16.5A3.75 3.75 0 0 1 24 6.75v10.5A3.75 3.75 0 0 1 20.25 21H3.75A3.75 3.75 0 0 1 0 17.25V6.75ZM3.75 4.5A2.25 2.25 0 0 0 1.5 6.75v10.5a2.25 2.25 0 0 0 2.25 2.25h16.5a2.25 2.25 0 0 0 2.25-2.25V6.75a2.25 2.25 0 0 0-2.25-2.25H3.75Zm16.281 6.969a.751.751 0 0 1 0 1.062l-4.5 4.5a.75.75 0 0 1-1.062-1.062l4.5-4.5a.75.75 0 0 1 1.062 0Zm0 3.75a.75.75 0 0 1 0 1.062l-.75.75a.75.75 0 0 1-1.062-1.062l.75-.75a.75.75 0 0 1 1.062 0Z"/></g><defs><clipPath id="a"><path fill="#fff" d="M0 0h24v24H0z"/></clipPath></defs></svg>
