<svg width="22" height="23" fill="none" xmlns="http://www.w3.org/2000/svg"><g fill-rule="evenodd" clip-rule="evenodd" fill="#fff"><path d="M11 .75C5.067.75.25 5.567.25 11.5S5.067 22.25 11 22.25s10.75-4.817 10.75-10.75S16.933.75 11 .75Zm0 1.5c5.105 0 9.25 4.145 9.25 9.25s-4.145 9.25-9.25 9.25-9.25-4.145-9.25-9.25S5.895 2.25 11 2.25Z"/><path d="m6.934 8.495 7.07 7.07a.75.75 0 1 0 1.062-1.06L7.995 7.434a.75.75 0 1 0-1.061 1.06Z"/><path d="m7.995 15.566 7.07-7.071a.75.75 0 1 0-1.06-1.061l-7.071 7.07a.75.75 0 1 0 1.06 1.062Z"/></g></svg>