<svg width="80" height="80" viewBox="0 0 80 80" fill="none" xmlns="http://www.w3.org/2000/svg">
<g clip-path="url(#clip0_6411_155187)">
<rect width="80" height="80" rx="40" fill="white"/>
<path d="M74.0086 0H5.99141C2.68234 0 0 4.09408 0 9.14473V70.8553C0 75.9057 2.68234 80 5.99141 80H74.0086C77.3175 80 80 75.9059 80 70.8553V9.14473C80 4.09408 77.3177 0 74.0086 0Z" fill="#FF4B55"/>
<path d="M58.5986 33.8386L61.9513 38.1554L67.1865 36.4307C67.4792 36.3341 67.7283 36.6601 67.5531 36.91L64.418 41.3823L67.7024 45.75C67.8861 45.9942 67.6481 46.3278 67.3525 46.241L62.0621 44.6882L58.8569 49.1121C58.6778 49.3595 58.2814 49.24 58.2739 48.9364L58.1394 43.5044L52.8742 41.871C52.5798 41.7797 52.5727 41.3721 52.864 41.2712L58.0713 39.4668L58.0224 34.0334C58.0192 33.7296 58.4113 33.5975 58.5986 33.8386Z" fill="#F5F5F5"/>
<path d="M40.061 57.9045C30.6124 57.9045 22.9479 50.3605 22.9479 41.0524C22.9479 31.7615 30.6127 24.2005 40.061 24.2005C43.5764 24.2005 46.8181 25.2647 49.5201 27.0657C49.9337 27.3414 50.4059 26.8065 50.0597 26.4521C46.0222 22.3203 40.3075 19.7998 33.9712 20.0125C23.0855 20.3781 14.0738 28.9683 13.3781 39.6668C12.5814 51.9211 22.4398 62.1052 34.7139 62.1052C40.7601 62.1052 46.194 59.6173 50.0742 55.6396C50.4171 55.2881 49.9439 54.7613 49.5341 55.0346C46.8295 56.8394 43.5824 57.9045 40.061 57.9045Z" fill="#F5F5F5"/>
</g>
<defs>
<clipPath id="clip0_6411_155187">
<rect width="80" height="80" rx="40" fill="white"/>
</clipPath>
</defs>
</svg>
