<svg xmlns="http://www.w3.org/2000/svg" width="24" height="24" fill="none"><path fill="#fff" fill-rule="evenodd" d="M12 4.834c2.207 0 4 1.793 4 4s-1.793 4-4 4-4-1.793-4-4 1.793-4 4-4Zm0 1a3.001 3.001 0 0 0 0 6 3.001 3.001 0 0 0 0-6Z" clip-rule="evenodd"/><path fill="#fff" fill-rule="evenodd" d="M6.168 18.667a.5.5 0 0 1-1 0 6.837 6.837 0 0 1 6.833-6.833 6.837 6.837 0 0 1 6.834 6.833.5.5 0 0 1-1 0A5.836 5.836 0 0 0 12 12.834a5.836 5.836 0 0 0-5.833 5.833Z" clip-rule="evenodd"/><rect width="23" height="23" x=".5" y=".5" stroke="#fff" rx="11.5"/></svg>