<svg width="22" height="16" fill="none" xmlns="http://www.w3.org/2000/svg"><g fill-rule="evenodd" clip-rule="evenodd" fill="#5E686E"><path d="M17 6.25A4.752 4.752 0 0 0 12.25 11 4.752 4.752 0 0 0 17 15.75 4.752 4.752 0 0 0 21.75 11 4.752 4.752 0 0 0 17 6.25Zm0 1.5a3.251 3.251 0 0 1 0 6.5 3.251 3.251 0 0 1 0-6.5Z"/><path d="m15.055 12.03 1 1a.75.75 0 0 0 1.118-.064l1.915-2.414a.751.751 0 0 0-1.176-.932l-1.391 1.755-.405-.405a.75.75 0 0 0-1.061 1.06Z"/><path d="M19.75 7.536V3c0-.729-.29-1.429-.805-1.945A2.755 2.755 0 0 0 17 .25H3c-.729 0-1.429.29-1.945.805A2.755 2.755 0 0 0 .25 3v9c0 .729.29 1.429.805 1.945A2.755 2.755 0 0 0 3 14.75h11.355a.75.75 0 0 0 0-1.5H3A1.252 1.252 0 0 1 1.75 12V3A1.252 1.252 0 0 1 3 1.75h14A1.252 1.252 0 0 1 18.25 3v4.536a.75.75 0 0 0 1.5 0Z"/><path d="M19 4.25H1a.75.75 0 0 0 0 1.5h18a.75.75 0 0 0 0-1.5ZM7.001 10.25H4a.75.75 0 0 0 0 1.5h3.001a.75.75 0 0 0 0-1.5Z"/></g></svg>