<svg xmlns="http://www.w3.org/2000/svg" width="24" height="24" fill="none"><path fill="#012169" d="M27.572 0H-3.573a2.743 2.743 0 0 0-2.743 2.744v18.513A2.743 2.743 0 0 0-3.573 24h31.145a2.743 2.743 0 0 0 2.743-2.743V2.744A2.743 2.743 0 0 0 27.571 0Z"/><path fill="#F5F5F5" d="M30.277 2.29A2.744 2.744 0 0 0 27.571 0h-.713l-11.7 7.666V0H8.84v7.666L-2.859 0h-.714c-1.36 0-2.49.99-2.705 2.29l10 6.552H-6.316v6.316H3.722l-10 6.552A2.744 2.744 0 0 0-3.573 24h.714l11.7-7.666V24h6.316v-7.666L26.857 24h.715c1.36 0 2.489-.99 2.705-2.29l-10-6.552h10.038V8.842H20.276L30.277 2.29Z"/><path fill="#C8102E" d="M13.894 0h-3.79v10.105h-16.42v3.79h16.42V24h3.79V13.895h16.421v-3.79H13.894V0Z"/><path fill="#C8102E" d="m-4.542 23.823 13.349-8.665h-2.32L-5.656 23.04c.297.347.679.619 1.114.783ZM18.466 15.158h-2.32l12.929 8.393c.362-.238.664-.559.879-.936l-11.488-7.457ZM-6.027 1.517 5.258 8.842h2.32L-5.21.542c-.343.255-.624.59-.817.975ZM17.478 8.842 29.644.945A2.748 2.748 0 0 0 28.52.168L15.158 8.842h2.32Z"/></svg>