<svg xmlns="http://www.w3.org/2000/svg" width="83" height="54" fill="none"><g clip-path="url(#a)"><path fill="#F5F5F5" d="M80.141 3.47H2.865v47.056h77.276V3.471Z"/><path fill="#F5F5F5" d="M76.784.703H6.216C2.783.703 0 3.395 0 6.715v40.568c0 3.32 2.783 6.011 6.216 6.011h70.568c3.433 0 6.216-2.691 6.216-6.011V6.715c0-3.32-2.783-6.012-6.216-6.012Zm3.354 49.823H2.862V3.471h77.276v47.055Z"/><path fill="#F5F5F5" d="M53.238 37.784c1.203 0 2.178-.943 2.178-2.106 0-1.163-.975-2.106-2.178-2.106-1.203 0-2.178.943-2.178 2.106 0 1.163.975 2.106 2.178 2.106Z"/><path fill="#F5F5F5" d="M57.064 23.585c-1.603 1.303-2.68 1.358-2.68 1.358 2.85-1.124 2.552-3.264 2.552-3.264-1.347 1.715-2.723 2.195-2.723 2.195 2.865-1.88 2.411-4.403 2.411-4.403-.936 2.002-2.12 2.784-2.12 2.784 2.383-3.066 1.213-5.04 1.213-5.04-.936 2.838-1.724 3.662-1.724 3.662 1.83-4.733.263-6.097.263-6.097 0 2.537-.979 3.991-.979 3.991 1.021-3.347-.581-5.267-.581-5.267s-.015 2.729-.559 4.158c-.13-.192-.207-.166-.207-.166-.276 1.752-1.25 2.986-1.67 3.45-.094-.437-.375-.57-.375-.57s-.05.428-.448 1.06c-.261.415-1.492 1.381-1.691 2.232-.16.682.539 1.248.766 1.385.227.137.468.384.368.782-.099.398-.837.356-1.361.343-.525-.014-.596.823-1.177.795l-.099.624-.228.048s-2.383 4.592-2.585 6.155l-1.755.224-1.754-.224c-.203-1.563-2.586-6.155-2.586-6.155l-.227-.048-.1-.624c-.58.028-.651-.809-1.176-.795-.525.013-1.263.055-1.362-.343-.1-.398.142-.645.369-.782s.925-.704.766-1.385c-.199-.85-1.43-1.817-1.691-2.231-.398-.632-.449-1.061-.449-1.061s-.28.133-.374.57c-.42-.464-1.394-1.698-1.67-3.45 0 0-.077-.026-.208.166-.543-1.43-.558-4.158-.558-4.158s-1.603 1.92-.582 5.267c0 0-.978-1.454-.978-3.991 0 0-1.567 1.364.262 6.097 0 0-.787-.823-1.723-3.663 0 0-1.17 1.975 1.212 5.04 0 0-1.184-.78-2.12-2.783 0 0-.453 2.523 2.411 4.402 0 0-1.375-.48-2.723-2.194 0 0-.298 2.14 2.553 3.264 0 0-1.078-.055-2.68-1.358 0 0-.284 1.893 3.432 2.867 0 0-1.518-.027-3.064-1.029 0 0-.042 1.866 3.135 2.236 0 0-1.05.151-2.227-.26 0 0 .043 1.508 2.808 1.7 0 0-1.092.083-1.801-.082 0 0 .07 1.55 2.255 1.29 0 0-.738.233-.979.301 0 0 .043 1.265 2.32.813 0 0-.405.243-.958.326 0 0 .468 1.056 2.368.59l-.39.41s1.468.824 2.596-.308l-.405.7s.958.35 1.553-.556c0 0-.163 1.358-2.148 1.605 0 0 .07.288.156.398 0 0-.128.233-1.277.425 0 0 .241.357.497.467 0 0-.497.411-.766.493 0 0 .425.206.695.247 0 0-.596.563-1.334.576-.737.014-2.056-.069-2.056-.069s-.014-.685-.354-1.275c-.34-.59-.454-.635-.454-.635s.074-.473-.138-.668c-.213-.196-.33-.288-.33-.288s.113-.947-.199-1.536c-.312-.59-1.418-1.88-1.475-2.84-.056-.96-.014-1.316-.014-1.316l-.34.082-.227-.453.383-.041-.156-.686-.525.192-.071-.59-.624.248.312.534-.553.151.326.631.425-.26.114.548s-.255.055-.397.274c0 0 .702.45.908.988.326.85.226 2.77.694 3.347.468.576.837.974.837.974s-.13.39.018.606a.737.737 0 0 0 .362.278s-.128.875.202 1.45c.33.577.52.721.52.721s-1.201.71-.35 1.533c0 0-.114.747.695.926 0 0 .042.59.737.521 0 0 .34-.096.426.069.085.164 0 1.11 0 1.11s.312-.027.51-.164l.625.302.014-.672.78-.302s-.34.055-1.036-.576c0 0 .114-.069.199-.604 0 0 .553-.425.667-.768.113-.342.893-1.097 1.8-1.344l.125.535s1.298-1.11 1.84-1.172l.447.569s1.673-2.4 2.41-2.826c-.056.192.355.22-.56 1.207-.914.988-.347 1.77-.347 1.77-.567.452-.454.864-.525 1.33-.07.466-1.957 1.673-1.957 1.673.595.727 1.262.563 1.262.563-.369.233-.255 1.015-.255 1.015.539.137 1.078-.096 1.078-.096-.185.494.099.836.099.836.34-.205 1.12-.329 1.12-.329-.099.85.469 1.303.469 1.303l.496-.521c.085.96.964 1.509.964 1.509s.88-.549.965-1.51l.496.522s.568-.453.468-1.303c0 0 .78.124 1.12.33 0 0 .285-.343.1-.837 0 0 .54.233 1.078.096 0 0 .113-.782-.255-1.015 0 0 .666.164 1.262-.563 0 0-1.886-1.207-1.957-1.673-.071-.466.042-.878-.525-1.33 0 0 .567-.782-.348-1.77-.915-.988-.503-1.015-.56-1.207.737.425 2.411 2.826 2.411 2.826l.447-.57c.542.062 1.84 1.173 1.84 1.173l.124-.535.023-.025c.677.353 1.795.83 2.246 1.163.483.357.88.385 2.043 0 1.163-.384 3.326-.974 3.006-1.673-.017-.038-.037-.064-.056-.093.05-.18.072-.496-.27-.771 0 0 .004.077.001.175l-1.108-.4a.592.592 0 0 0-.197-.269s.001.083-.014.194l-.285-.103.568-1.544c-.043-.023-.091-.036-.136-.057.012-.14.039-.333.081-.535.139.047.266.105.357.177l.16-.565s-.172-.011-.399-.052a1.4 1.4 0 0 1 .206-.423l-.751-.22s.02.221.006.496a1.437 1.437 0 0 1-.391-.22l-.176.628c.06.003.265.02.503.062a1.073 1.073 0 0 1-.227.47c-.027-.004-.051-.013-.079-.016l-.55 1.5-1.495-.539a2.004 2.004 0 0 0-.16.312c.008-.016.015-.04.023-.05 0 0-.578.292-.57.722a.418.418 0 0 0-.252.25c-.17.432.872 1.4.616 1.523-.25.12-1.56-.922-1.77-1.097.27-.05.664-.24.664-.24-.27-.083-.766-.494-.766-.494.256-.11.497-.467.497-.467-1.149-.192-1.277-.425-1.277-.425.085-.11.156-.398.156-.398-1.985-.247-2.148-1.605-2.148-1.605.595.906 1.553.556 1.553.556l-.405-.7c1.128 1.132 2.596.31 2.596.31l-.39-.413c1.9.467 2.368-.59 2.368-.59a2.862 2.862 0 0 1-.957-.325c2.276.453 2.319-.813 2.319-.813-.242-.069-.98-.301-.98-.301 2.185.26 2.256-1.29 2.256-1.29-.71.165-1.801.082-1.801.082 2.765-.192 2.808-1.7 2.808-1.7-1.177.411-2.227.26-2.227.26 3.177-.37 3.135-2.235 3.135-2.235-1.546 1-3.064 1.028-3.064 1.028 3.718-.974 3.434-2.867 3.434-2.867Zm-3.223 13.57c-.152-.239.21-.452.372-.678l.629.226c-.214.247-.845.697-1.001.451Zm-.42-.964c-.204.306-.346.649-.974.665-.787.02-.914-.659-1.084-1.029a.552.552 0 0 0-.234-.245c0-.067.003-.14.01-.213l2.282.822Z"/><path fill="#F5F5F5" d="M41.44 21.702s-1.01-.833-1.308-1.286c0 0 .34-.134.51-.34 0 0-.915-.473-1.404-.956 0 0 .32-.051.564-.247 0 0-.822-.143-1.238-.794.95-.314.632-1.17.632-1.17-.192.246-.979.555-1.83.205-.85-.35-1.787-.103-1.787.35 0 0-1.915-.535-1.436 1.255 0 0 .309-.669.99-.422.68.247 1.372 1.09 1.372 1.09s-.426.227-1.213-.02c0 0 .32 1.183 1.755.586 0 0 .568.295.596 1.16 0 0 .24-.124.397-.398 0 0 .227.836-.07 1.522 0 0 .396-.068.524-.192 0 0 .114.727-.383 1.317 0 0 2.18 1.005 3.564-.096 0 0-.521-.576-.692-1.111 0 0 .287-.114.457-.453ZM47.773 17.464c0-.453-.937-.7-1.787-.35-.851.35-1.639.041-1.83-.206 0 0-.318.857.632 1.17-.417.652-1.238.795-1.238.795.245.196.564.247.564.247-.49.483-1.404.957-1.404.957.17.205.51.34.51.34-.298.452-1.308 1.285-1.308 1.285.17.34.457.453.457.453-.17.534-.691 1.11-.691 1.11 1.383 1.101 3.563.096 3.563.096-.496-.59-.383-1.316-.383-1.316.128.123.525.192.525.192-.298-.686-.07-1.523-.07-1.523.155.275.397.398.397.398.028-.864.595-1.159.595-1.159 1.436.597 1.755-.586 1.755-.586-.787.247-1.212.02-1.212.02s.691-.843 1.372-1.09c.68-.247.99.421.99.421.477-1.79-1.437-1.254-1.437-1.254Z"/><path fill="#F5F5F5" d="M46.905 28.39c-.187-1.052-.348-1.96.121-3l.088-.195-1.858-2.062-.22.07c-.018.007-1.96.62-3.204.018l-.155-.075-.155.075c-1.24.6-3.186-.011-3.206-.018l-.22-.07-1.856 2.062.087.195c.47 1.04.308 1.948.122 3-.176.992-.376 2.117-.025 3.49.381 1.49 1.665 2.019 2.797 2.487.872.36 1.696.7 2.162 1.414l.294.45.293-.45c.466-.714 1.29-1.054 2.163-1.414 1.132-.468 2.415-.997 2.796-2.487.351-1.372.151-2.498-.024-3.49Zm-9.858-3.07 1.275-1.415c.578.154 2.138.486 3.355-.014 1.216.5 2.776.167 3.354.014l1.275 1.415c-.448 1.14-.272 2.134-.085 3.183.139.786.277 1.595.161 2.527h-9.41c-.117-.932.022-1.741.16-2.527.187-1.049.363-2.043-.085-3.183Zm6.813 8.43c-.789.325-1.6.66-2.183 1.296-.584-.636-1.395-.97-2.184-1.297-1.107-.457-2.062-.856-2.377-1.978h9.12c-.314 1.122-1.269 1.521-2.376 1.978Z"/><path fill="#F5F5F5" d="m37.045 25.322 1.275-1.416c.578.154 2.138.486 3.355-.013 1.216.5 2.777.167 3.354.013l1.275 1.416c-.448 1.14-.272 2.134-.086 3.182.14.786.278 1.595.162 2.528h-9.41c-.117-.933.022-1.742.16-2.528.187-1.048.363-2.043-.085-3.182ZM37.066 31.576c.011.048.018.095.03.143.299 1.166 1.27 1.567 2.396 2.031.789.326 1.6.66 2.184 1.297.583-.636 1.395-.971 2.183-1.297 1.126-.465 2.098-.866 2.396-2.03.012-.05.02-.096.03-.144h-9.219Z"/><path fill="#F5F5F5" d="M45.842 27.688c0-.607-.597-.703-1.139-.692-.542.01-1.335-.086-1.355-.493-.013-.255.428-.278.715-.19.167.053 1.204.232 1.53-.44 0 0-.38.012-.78-.075-.309-.066-1.574.086-1.802.558-.227.472.507.943 1.353.943s.962.163.955.363c-.009.262-.68.336-1.065.332-.607-.212-2.023-.046-2.03-.072-.007-.031-.326-.56-.326-.56s.58-.04.653-.142c.074-.103-.44-.497-.44-.497s.432-.167.448-.285c.018-.13-.35-.439-.35-.439s.142-.135.25-.367c.076-.165-.532-.21-.532-.21.033-.125.02-.247-.141-.303-.125-.044-.586.125-.9.125-.314 0-.434.22-.434.22s-.553.064-.629.126c-.075.063.022.472.022.472-.282-.042-.412-.283-.412-.283-.14.619.52.682.52.682l.11.335.27.032c.271.031.141.283-.282.283-.423 0-.602.488-.602.488-.294.008-.457-.221-.523-.514-.072-.321-.03-.815.025-1.128.065-.38-.13-.49-.13-.49l-.131.316c-.009-.324-.303-.355-.303-.355l-.049.394c-.147-.26-.4-.142-.4-.142s.245.853.237.9c-.008.048-.09.087-.204-.031-.114-.119-.196-.04-.196-.04.123.853.596.728.596.728s.02.267.163.81c.153.578.78.47.78.47 0 .188.152.46.195 1.09.043.629-.553 1.07-.553 1.07-.542-.011-.488.503-.488.503h1.496c0-1.338.595-1.568.595-1.568.882.04 1.731-.316 1.731-.316-.13.514.098.727.098.727.36-.048.18.64.074.64h-.458c-.13 0-.506.394-.506.394h1.552s.236-.331.318-.497c.081-.166-.18-.395-.196-.569-.016-.173.27-.284.27-.284.302.41.995.434.995.434l-.016-.308s.36.119.441.222c.082.102.066.576-.367.631-.433.055-.466.355-.466.355h1.184c.196 0 .351-.355.351-.49v-1.2c0-.189-.163-.165-.547-.205-.348-.036-.315-.405-.459-.833.504-.016 1.284-.123 1.284-.625ZM45.745 13.338c-.097-.828-.78-1.883-3.379-2.377a.656.656 0 0 0-.421-.589v-.461h.425v-.494h-.425v-.411h-.51v.411h-.426v.494h.425v.462a.657.657 0 0 0-.421.588c-2.6.495-3.282 1.549-3.38 2.377-.12 1.032.644 2.011 1.334 2.386v.524h5.446v-.524c.689-.375 1.453-1.354 1.332-2.386Zm-2.85 1.593h-.763v-3.036c.628.274 1.017.695 1.13 1.273.141.72-.157 1.454-.368 1.763Zm-2.778-1.763c.113-.578.502-1 1.13-1.273v3.036h-.762c-.212-.309-.51-1.043-.368-1.763Zm-.63-.834a2.563 2.563 0 0 0-.246.708c-.123.674.018 1.36.251 1.89h-.178c-.382-.255-.873-.88-.8-1.498.05-.432.389-.802.973-1.1Zm4.578 2.597h-.179c.234-.529.375-1.214.252-1.889a2.569 2.569 0 0 0-.246-.708c.584.298.923.668.973 1.1.073.617-.418 1.243-.8 1.497Z"/><path fill="#C8414B" d="M80.141 3.473H2.865v47.055h77.276V3.473Z"/><path fill="#E6B432" d="M76.784.703H6.216C2.783.703 0 3.395 0 6.715v40.568c0 3.32 2.783 6.011 6.216 6.011h70.568c3.433 0 6.216-2.691 6.216-6.011V6.715c0-3.32-2.783-6.012-6.216-6.012Zm3.354 49.823H2.862V3.471h77.276v47.055Z"/><path fill="#41479B" d="M53.238 37.788c1.203 0 2.178-.943 2.178-2.106 0-1.163-.975-2.106-2.178-2.106-1.203 0-2.178.943-2.178 2.106 0 1.163.975 2.106 2.178 2.106Z"/><path fill="#E6B432" d="M57.064 23.59c-1.603 1.302-2.68 1.357-2.68 1.357 2.85-1.124 2.552-3.264 2.552-3.264-1.347 1.714-2.723 2.194-2.723 2.194 2.865-1.879 2.411-4.402 2.411-4.402-.936 2.002-2.12 2.784-2.12 2.784 2.383-3.066 1.213-5.04 1.213-5.04-.936 2.838-1.724 3.661-1.724 3.661 1.83-4.732.263-6.096.263-6.096 0 2.537-.979 3.99-.979 3.99 1.021-3.346-.581-5.266-.581-5.266s-.015 2.728-.559 4.158c-.13-.192-.207-.167-.207-.167-.276 1.753-1.25 2.987-1.67 3.451-.094-.437-.375-.57-.375-.57s-.05.428-.448 1.06c-.261.415-1.492 1.381-1.691 2.232-.16.681.539 1.248.766 1.385.227.137.468.384.368.782-.099.398-.837.356-1.361.343-.525-.014-.596.823-1.177.795l-.099.624-.228.048s-2.383 4.592-2.585 6.155l-1.755.223-1.754-.223c-.203-1.563-2.586-6.155-2.586-6.155l-.227-.048-.1-.624c-.58.028-.651-.81-1.176-.795-.525.013-1.263.055-1.362-.343-.1-.398.142-.645.369-.782s.925-.704.766-1.385c-.199-.85-1.43-1.817-1.691-2.231-.398-.633-.449-1.061-.449-1.061s-.28.133-.374.57c-.42-.465-1.394-1.698-1.67-3.45 0 0-.077-.026-.208.166-.543-1.43-.558-4.158-.558-4.158s-1.603 1.92-.582 5.267c0 0-.978-1.454-.978-3.991 0 0-1.567 1.364.262 6.096 0 0-.787-.822-1.723-3.662 0 0-1.17 1.975 1.212 5.04 0 0-1.184-.78-2.12-2.784 0 0-.453 2.524 2.411 4.403 0 0-1.375-.48-2.723-2.194 0 0-.298 2.14 2.553 3.264 0 0-1.078-.055-2.68-1.358 0 0-.284 1.893 3.432 2.867 0 0-1.518-.027-3.064-1.029 0 0-.042 1.866 3.135 2.236 0 0-1.05.151-2.227-.26 0 0 .043 1.508 2.808 1.7 0 0-1.092.083-1.801-.082 0 0 .07 1.55 2.255 1.29 0 0-.738.233-.979.301 0 0 .043 1.265 2.32.813 0 0-.405.243-.958.325 0 0 .468 1.057 2.368.59l-.39.412s1.468.823 2.596-.309l-.405.7s.958.35 1.553-.556c0 0-.163 1.358-2.148 1.605 0 0 .07.288.156.398 0 0-.128.233-1.277.425 0 0 .241.357.497.466 0 0-.497.412-.766.494 0 0 .425.206.695.247 0 0-.596.563-1.334.576-.737.014-2.056-.069-2.056-.069s-.014-.685-.354-1.275c-.34-.59-.454-.635-.454-.635s.074-.473-.138-.668c-.213-.196-.33-.288-.33-.288s.113-.947-.199-1.536c-.312-.59-1.418-1.88-1.475-2.84-.056-.96-.014-1.316-.014-1.316l-.34.082-.227-.453.383-.041-.156-.686-.525.192-.071-.59-.624.247.312.535-.553.151.326.631.425-.26.114.548s-.255.055-.397.274c0 0 .702.45.908.988.326.85.226 2.77.694 3.347.468.576.837.973.837.973s-.13.392.018.607a.737.737 0 0 0 .362.278s-.128.875.202 1.45c.33.577.52.721.52.721s-1.201.71-.35 1.533c0 0-.114.747.695.926 0 0 .042.59.737.521 0 0 .34-.096.426.069.085.164 0 1.11 0 1.11s.312-.027.51-.164l.625.302.014-.672.78-.302s-.34.055-1.036-.576c0 0 .114-.069.199-.604 0 0 .553-.425.667-.768.113-.343.893-1.097 1.8-1.344l.125.535s1.298-1.11 1.84-1.173l.447.57s1.673-2.4 2.41-2.826c-.056.192.355.22-.56 1.207-.914.988-.347 1.77-.347 1.77-.567.452-.454.863-.525 1.33-.07.466-1.957 1.673-1.957 1.673.595.727 1.262.563 1.262.563-.369.233-.255 1.015-.255 1.015.539.137 1.078-.096 1.078-.096-.185.493.099.836.099.836.34-.205 1.12-.329 1.12-.329-.099.85.469 1.303.469 1.303l.496-.521c.085.96.964 1.509.964 1.509s.88-.55.965-1.51l.496.522s.568-.453.468-1.303c0 0 .78.124 1.12.33 0 0 .285-.344.1-.837 0 0 .54.233 1.078.096 0 0 .113-.782-.255-1.015 0 0 .666.164 1.262-.563 0 0-1.886-1.207-1.957-1.673-.071-.467.042-.878-.525-1.33 0 0 .567-.783-.348-1.77-.915-.988-.503-1.015-.56-1.207.737.425 2.411 2.825 2.411 2.825l.447-.569c.542.062 1.84 1.173 1.84 1.173l.124-.535.023-.025c.677.353 1.795.83 2.246 1.163.483.357.88.384 2.043 0 1.163-.384 3.326-.974 3.006-1.673-.017-.038-.037-.064-.056-.093.05-.181.072-.496-.27-.771 0 0 .004.076.001.175l-1.108-.4a.592.592 0 0 0-.197-.269s.001.082-.014.193l-.285-.102.568-1.544c-.043-.023-.091-.037-.136-.057.012-.14.039-.333.081-.535.139.047.266.105.357.177l.16-.565s-.172-.011-.399-.052a1.4 1.4 0 0 1 .206-.423l-.751-.22s.02.22.006.496a1.437 1.437 0 0 1-.391-.22l-.176.628c.06.003.265.02.503.062a1.073 1.073 0 0 1-.227.47c-.027-.004-.051-.013-.079-.016l-.55 1.5-1.495-.539a2.004 2.004 0 0 0-.16.312c.008-.016.015-.04.023-.05 0 0-.578.292-.57.722a.418.418 0 0 0-.252.25c-.17.432.872 1.4.616 1.523-.25.12-1.56-.922-1.77-1.097.27-.051.664-.24.664-.24-.27-.083-.766-.494-.766-.494.256-.11.497-.467.497-.467-1.149-.192-1.277-.425-1.277-.425.085-.11.156-.398.156-.398-1.985-.247-2.148-1.605-2.148-1.605.595.906 1.553.556 1.553.556l-.405-.7c1.128 1.132 2.596.309 2.596.309l-.39-.412c1.9.467 2.368-.59 2.368-.59-.553-.082-.957-.325-.957-.325 2.276.453 2.319-.813 2.319-.813-.242-.068-.98-.301-.98-.301 2.185.26 2.256-1.29 2.256-1.29-.71.165-1.801.082-1.801.082 2.765-.192 2.808-1.7 2.808-1.7-1.177.411-2.227.26-2.227.26 3.177-.37 3.135-2.236 3.135-2.236-1.546 1.002-3.064 1.03-3.064 1.03 3.718-.975 3.434-2.868 3.434-2.868ZM53.84 37.157c-.152-.238.21-.45.372-.677l.629.226c-.214.246-.845.696-1.001.451Zm-.42-.963c-.204.306-.346.649-.974.665-.787.02-.914-.659-1.084-1.029a.552.552 0 0 0-.234-.245c0-.067.003-.14.01-.213l2.282.822Z"/><path fill="#E6B432" d="M41.44 21.702s-1.01-.833-1.308-1.286c0 0 .34-.134.51-.34 0 0-.915-.473-1.404-.956 0 0 .32-.051.564-.247 0 0-.822-.143-1.238-.794.95-.314.632-1.17.632-1.17-.192.246-.979.555-1.83.205-.85-.35-1.787-.103-1.787.35 0 0-1.915-.535-1.436 1.255 0 0 .309-.669.99-.422.68.247 1.372 1.09 1.372 1.09s-.426.227-1.213-.02c0 0 .32 1.183 1.755.586 0 0 .568.295.596 1.16 0 0 .24-.124.397-.398 0 0 .227.836-.07 1.522 0 0 .396-.068.524-.192 0 0 .114.727-.383 1.317 0 0 2.18 1.005 3.564-.096 0 0-.521-.576-.692-1.111 0 0 .287-.114.457-.453ZM47.773 17.464c0-.453-.937-.7-1.787-.35-.851.35-1.639.041-1.83-.206 0 0-.318.857.632 1.17-.417.652-1.238.795-1.238.795.245.196.564.247.564.247-.49.483-1.404.957-1.404.957.17.205.51.34.51.34-.298.452-1.308 1.285-1.308 1.285.17.34.457.453.457.453-.17.534-.691 1.11-.691 1.11 1.383 1.101 3.563.096 3.563.096-.496-.59-.383-1.316-.383-1.316.128.123.525.192.525.192-.298-.686-.07-1.523-.07-1.523.155.275.397.398.397.398.028-.864.595-1.159.595-1.159 1.436.597 1.755-.586 1.755-.586-.787.247-1.212.02-1.212.02s.691-.843 1.372-1.09c.68-.247.99.421.99.421.477-1.79-1.437-1.254-1.437-1.254Z"/><path fill="#E6B432" d="M46.905 28.393c-.187-1.051-.348-1.96.121-3l.088-.194-1.858-2.062-.22.07c-.018.007-1.96.62-3.204.018l-.155-.075-.155.076c-1.24.6-3.186-.012-3.206-.019l-.22-.07-1.856 2.062.087.194c.47 1.04.308 1.949.122 3-.176.993-.376 2.118-.025 3.49.381 1.49 1.665 2.02 2.797 2.488.872.36 1.696.7 2.162 1.414l.294.45.293-.45c.466-.714 1.29-1.054 2.163-1.414 1.132-.468 2.415-.998 2.796-2.487.351-1.373.151-2.498-.024-3.49Zm-9.858-3.069 1.275-1.415c.578.154 2.138.486 3.355-.014 1.216.5 2.776.167 3.354.014l1.275 1.415c-.448 1.14-.272 2.134-.085 3.183.139.786.277 1.595.161 2.527h-9.41c-.117-.932.022-1.741.16-2.527.187-1.049.363-2.043-.085-3.183Zm6.813 8.43c-.789.325-1.6.66-2.183 1.296-.584-.636-1.395-.971-2.184-1.297-1.107-.457-2.062-.856-2.377-1.978h9.12c-.314 1.122-1.269 1.521-2.376 1.978Z"/><path fill="#41479B" d="m37.045 25.326 1.275-1.416c.578.154 2.138.486 3.355-.014 1.216.5 2.777.168 3.354.014l1.275 1.416c-.448 1.14-.272 2.133-.086 3.182.14.786.278 1.595.162 2.527h-9.41c-.117-.932.022-1.741.16-2.527.187-1.048.363-2.043-.085-3.182Z"/><path fill="#73AF00" d="M37.066 31.578c.011.048.018.095.03.143.299 1.165 1.27 1.567 2.396 2.031.789.326 1.6.66 2.184 1.297.583-.636 1.395-.971 2.183-1.297 1.126-.465 2.098-.866 2.396-2.03.012-.05.02-.096.03-.144h-9.219Z"/><path fill="#E6B432" d="M45.834 27.686c0-.607-.597-.703-1.139-.692-.542.01-1.335-.086-1.355-.493-.013-.254.428-.278.716-.19.166.053 1.203.232 1.529-.44 0 0-.38.012-.78-.075-.308-.066-1.574.086-1.801.558-.228.472.506.943 1.352.943.846 0 .962.163.955.363-.009.262-.68.336-1.065.333-.607-.213-2.022-.047-2.03-.072-.007-.032-.326-.561-.326-.561s.58-.04.653-.142c.074-.103-.44-.497-.44-.497s.432-.166.449-.285c.017-.13-.35-.439-.35-.439s.141-.135.248-.367c.077-.165-.53-.21-.53-.21.032-.125.02-.247-.142-.304-.124-.043-.585.126-.9.126-.314 0-.434.22-.434.22s-.553.064-.629.126c-.075.063.022.472.022.472-.282-.042-.412-.283-.412-.283-.14.619.52.682.52.682l.11.335.27.032c.271.031.141.283-.282.283-.422 0-.602.488-.602.488-.294.008-.457-.221-.522-.513-.072-.322-.03-.816.024-1.13.065-.378-.13-.489-.13-.489l-.131.316a.349.349 0 0 0-.303-.355l-.048.394c-.148-.26-.4-.142-.4-.142s.245.853.236.9c-.008.048-.09.087-.204-.031-.114-.119-.195-.04-.195-.04.122.853.595.728.595.728s.02.267.164.81c.152.578.78.47.78.47 0 .188.151.46.194 1.09.044.629-.553 1.07-.553 1.07-.542-.011-.488.503-.488.503h1.497c0-1.338.594-1.568.594-1.568.882.04 1.731-.316 1.731-.316-.13.514.098.727.098.727.36-.047.18.64.074.64h-.457c-.13 0-.507.394-.507.394h1.552s.236-.331.318-.497c.082-.166-.18-.395-.196-.569-.016-.173.27-.284.27-.284.302.41.996.434.996.434l-.017-.308s.36.119.441.221c.082.103.066.577-.367.632-.433.055-.465.355-.465.355h1.184c.195 0 .35-.355.35-.49v-1.2c0-.189-.163-.165-.546-.205-.349-.036-.316-.404-.46-.833.505-.016 1.284-.123 1.284-.625ZM45.745 13.34c-.097-.828-.78-1.883-3.379-2.377a.656.656 0 0 0-.421-.589v-.461h.425v-.494h-.425v-.411h-.51v.411h-.426v.494h.425v.461a.657.657 0 0 0-.421.59c-2.6.494-3.282 1.548-3.38 2.376-.12 1.032.644 2.011 1.334 2.386v.524h5.446v-.524c.689-.375 1.453-1.354 1.332-2.386Zm-2.85 1.593h-.763v-3.036c.628.274 1.017.695 1.13 1.273.141.72-.157 1.454-.368 1.763Zm-2.778-1.763c.113-.578.502-1 1.13-1.274v3.037h-.762c-.212-.309-.51-1.043-.368-1.763Zm-.63-.834a2.562 2.562 0 0 0-.246.708c-.123.674.018 1.36.251 1.89h-.178c-.382-.255-.873-.88-.8-1.498.05-.432.389-.802.973-1.1Zm4.578 2.597h-.179c.234-.529.375-1.214.252-1.889a2.568 2.568 0 0 0-.246-.708c.584.298.923.668.973 1.1.073.617-.418 1.243-.8 1.497Z"/></g><defs><clipPath id="a"><path fill="#fff" d="M0 0h83v54H0z"/></clipPath></defs></svg>