<svg xmlns="http://www.w3.org/2000/svg" width="24" height="24" fill="none"><path fill="#E20917" d="M33.08 0H-.08C-1.691 0-3 1.228-3 2.743v18.514C-3 22.772-1.692 24-.08 24h33.16c1.612 0 2.92-1.228 2.92-2.743V2.743C36 1.228 34.692 0 33.08 0Z"/><path fill="#F5F5F5" d="m17.135 9.836.99 1.295 1.545-.518a.095.095 0 0 1 .109.144l-.926 1.342.97 1.31a.095.095 0 0 1-.104.147l-1.562-.465-.946 1.327a.095.095 0 0 1-.172-.053l-.04-1.63-1.555-.49a.095.095 0 0 1-.003-.18l1.538-.54-.015-1.63c0-.092.115-.132.17-.06ZM11.66 17.055A5.055 5.055 0 0 1 6.609 12a5.058 5.058 0 0 1 5.053-5.056c1.038 0 1.995.32 2.793.86.122.083.261-.078.159-.184a6.264 6.264 0 0 0-4.75-1.932c-3.215.11-5.876 2.687-6.081 5.896a6.315 6.315 0 0 0 6.3 6.732c1.785 0 3.39-.747 4.535-1.94.101-.106-.038-.264-.16-.181a4.96 4.96 0 0 1-2.796.86Z"/></svg>